<?xml version="1.0" encoding="utf-8"?>
<!-- Generator: Adobe Illustrator 28.0.0, SVG Export Plug-In . SVG Version: 6.00 Build 0)  -->
<svg version="1.1" id="Component_4_1" xmlns="http://www.w3.org/2000/svg" xmlns:xlink="http://www.w3.org/1999/xlink" x="0px"
	 y="0px" viewBox="0 0 43.7 40" style="enable-background:new 0 0 43.7 40;" xml:space="preserve">
<style type="text/css">
	.st0{clip-path:url(#SVGID_00000063603572452170997280000002456605059275647140_);}
	.st1{fill:#FFFFFF;}
</style>
<g>
	<defs>
		<path id="SVGID_1_" d="M5,16.5C5,10.1,10.1,5,16.5,5s11.6,5.2,11.6,11.6c0,6.4-5.2,11.6-11.6,11.6C10.1,28.1,5,22.9,5,16.5
			 M16.5,0C7.4,0,0,7.4,0,16.5s7.4,16.5,16.5,16.6c3.7,0,7.4-1.3,10.3-3.6l12.9,10c0.4,0.3,1,0.5,1.5,0.5c1.4,0,2.5-1.1,2.5-2.4
			v-0.1c0-0.8-0.4-1.5-1-1.9l-12.5-9.7c5.2-7.5,3.2-17.8-4.3-23C23.1,1,19.9,0,16.5,0z"/>
	</defs>
	<clipPath id="SVGID_00000030461804256793275810000012951544797753063859_">
		<use xlink:href="#SVGID_1_"  style="overflow:visible;"/>
	</clipPath>
	<g id="Group_12" style="clip-path:url(#SVGID_00000030461804256793275810000012951544797753063859_);">
		<rect id="Rectangle_32" y="0" class="st1" width="43.7" height="40"/>
	</g>
</g>
</svg>
