<?xml version="1.0" encoding="utf-8"?>
<!-- Generator: Adobe Illustrator 28.0.0, SVG Export Plug-In . SVG Version: 6.00 Build 0)  -->
<svg version="1.1" id="Component_3_1" xmlns="http://www.w3.org/2000/svg" xmlns:xlink="http://www.w3.org/1999/xlink" x="0px"
	 y="0px" viewBox="0 0 36.4 40" style="enable-background:new 0 0 36.4 40;" xml:space="preserve">
<style type="text/css">
	.st0{clip-path:url(#SVGID_00000111175606203477874750000000532187238234028961_);}
	.st1{clip-path:url(#SVGID_00000049939582341289610740000009217178959379926699_);}
</style>
<g id="Group_15" transform="translate(9.728)">
	<g>
		<defs>
			<path id="SVGID_1_" d="M8.5,0C3.8,0,0,3.8,0,8.5S3.8,17,8.5,17c4.7,0,8.5-3.8,8.5-8.5C17,3.8,13.2,0,8.5,0z"/>
		</defs>
		<clipPath id="SVGID_00000173867547825174909450000005282690744227175102_">
			<use xlink:href="#SVGID_1_"  style="overflow:visible;"/>
		</clipPath>
		<g id="Group_14" style="clip-path:url(#SVGID_00000173867547825174909450000005282690744227175102_);">
			<rect id="Rectangle_33" x="0" y="0" width="17" height="17"/>
		</g>
	</g>
</g>
<g id="Group_17" transform="translate(0 20.612)">
	<g>
		<defs>
			<path id="SVGID_00000040548885598653688200000002322854830942038699_" d="M0,17.2c0,1.2,1.1,2.2,2.3,2.2c1.2,0,2.3-0.9,2.3-2.2
				c0-7.1,6.1-12.8,13.6-12.8s13.6,5.8,13.6,12.8c0.1,1.3,1.2,2.3,2.5,2.2c1.2-0.1,2.1-1,2.2-2.2C36.4,7.7,28.2,0,18.2,0
				S0,7.7,0,17.2"/>
		</defs>
		<clipPath id="SVGID_00000107561811105555707030000008513353345462883261_">
			<use xlink:href="#SVGID_00000040548885598653688200000002322854830942038699_"  style="overflow:visible;"/>
		</clipPath>
		<g id="Group_16" style="clip-path:url(#SVGID_00000107561811105555707030000008513353345462883261_);">
			<rect id="Rectangle_34" y="0" width="36.4" height="19.4"/>
		</g>
	</g>
</g>
</svg>
