<svg id="Component_4_1" data-name="Component 4 – 1" xmlns="http://www.w3.org/2000/svg" xmlns:xlink="http://www.w3.org/1999/xlink" width="43.666" height="39.984" viewBox="0 0 43.666 39.984">
  <defs>
    <clipPath id="clip-path">
      <path id="Path_41" data-name="Path 41" d="M4.957,16.536A11.574,11.574,0,1,1,16.533,28.109,11.589,11.589,0,0,1,4.957,16.536M16.533,0A16.535,16.535,0,1,0,26.765,29.5l12.91,9.968a2.456,2.456,0,0,0,1.511.519,2.479,2.479,0,0,0,2.48-2.434v-.081a2.487,2.487,0,0,0-.961-1.93L30.171,25.857A16.521,16.521,0,0,0,16.533,0Z" transform="translate(0 0.001)"/>
    </clipPath>
  </defs>
  <g id="Group_12" data-name="Group 12" clip-path="url(#clip-path)">
    <rect id="Rectangle_32" data-name="Rectangle 32" width="43.666" height="39.984" transform="translate(0 0.002)"/>
  </g>
</svg>
