<svg id="Component_7_1" data-name="Component 7 – 1" xmlns="http://www.w3.org/2000/svg" xmlns:xlink="http://www.w3.org/1999/xlink" width="15" height="15.006" viewBox="0 0 15 15.006">
  <defs>
    <clipPath id="clip-path">
      <rect id="Rectangle_151" data-name="Rectangle 151" width="15" height="15.006" fill="none"/>
    </clipPath>
  </defs>
  <g id="Group_135" data-name="Group 135" clip-path="url(#clip-path)">
    <path id="Path_168" data-name="Path 168" d="M7.5,0A7.5,7.5,0,1,1,0,7.5,7.507,7.507,0,0,1,7.5,0m0,2.13a1.406,1.406,0,0,0-1.4,1.4V7.74a1.4,1.4,0,0,0,2.806,0V3.534a1.4,1.4,0,0,0-1.4-1.4m0,7.951a1.4,1.4,0,1,0,1.4,1.394,1.4,1.4,0,0,0-1.4-1.394" transform="translate(0 0)" fill-rule="evenodd"/>
  </g>
</svg>
