<?xml version="1.0" encoding="utf-8"?>
<!-- Generator: Adobe Illustrator 28.0.0, SVG Export Plug-In . SVG Version: 6.00 Build 0)  -->
<svg version="1.1" id="Group_118" xmlns="http://www.w3.org/2000/svg" xmlns:xlink="http://www.w3.org/1999/xlink" x="0px" y="0px"
	 viewBox="0 0 23 17.5" style="enable-background:new 0 0 23 17.5;" xml:space="preserve">
<style type="text/css">
	.st0{clip-path:url(#SVGID_00000122686692565339123750000008228619997621644452_);}
	.st1{fill:#FFFFFF;}
</style>
<g>
	<defs>
		<rect id="SVGID_1_" width="23" height="17.5"/>
	</defs>
	<clipPath id="SVGID_00000181777920171859534830000016261584298852125607_">
		<use xlink:href="#SVGID_1_"  style="overflow:visible;"/>
	</clipPath>
	<g id="Group_117" style="clip-path:url(#SVGID_00000181777920171859534830000016261584298852125607_);">
		<path id="Path_152" class="st1" d="M19.8,17.5H3.2c-1.8,0-3.2-1.4-3.2-3.2V3.2C0,1.4,1.4,0,3.2,0h16.6C21.6,0,23,1.4,23,3.2v11.1
			C23,16.1,21.6,17.5,19.8,17.5 M3.2,2C2.5,2,2,2.5,2,3.2l0,0v11.1c0,0.7,0.5,1.2,1.2,1.2h16.6c0.7,0,1.2-0.5,1.2-1.2c0,0,0,0,0,0
			V3.2C21,2.5,20.5,2,19.8,2l0,0L3.2,2z"/>
		<path id="Path_153" class="st1" d="M17.3,6.4h-7.1c-0.6,0-1-0.4-1-1c0-0.6,0.4-1,1-1h7.1c0.6,0,1,0.4,1,1S17.9,6.4,17.3,6.4"/>
		<rect id="Rectangle_136" x="1" y="8.8" class="st1" width="21" height="4.5"/>
	</g>
</g>
</svg>
