<?xml version="1.0" encoding="utf-8"?>
<!-- Generator: Adobe Illustrator 28.0.0, SVG Export Plug-In . SVG Version: 6.00 Build 0)  -->
<svg version="1.1" id="Component_9_1" xmlns="http://www.w3.org/2000/svg" xmlns:xlink="http://www.w3.org/1999/xlink" x="0px"
	 y="0px" viewBox="0 0 12.2 15" style="enable-background:new 0 0 12.2 15;" xml:space="preserve">
<style type="text/css">
	.st0{clip-path:url(#SVGID_00000016034731675809663680000010093304527053340801_);}
	.st1{fill:#FFFFFF;}
</style>
<g>
	<defs>
		<rect id="SVGID_1_" width="12.2" height="15"/>
	</defs>
	<clipPath id="SVGID_00000107564960469989768940000005159854444272111255_">
		<use xlink:href="#SVGID_1_"  style="overflow:visible;"/>
	</clipPath>
	<g id="Group_130" style="clip-path:url(#SVGID_00000107564960469989768940000005159854444272111255_);">
		<path id="Path_161" class="st1" d="M0.9,0C0.4,0,0,0.4,0,0.9v13.2C0,14.6,0.4,15,0.9,15h8v-1.8c0-0.8,0.6-1.4,1.4-1.4h1.9v-11
			c0-0.5-0.4-0.9-0.9-0.9H0.9z M9.9,8.2H2.3V7.6h7.6V8.2z M9.9,6H2.3V5.4h7.6V6z M9.9,3.9H2.3V3.3h7.6V3.9z"/>
		<path id="Path_162" class="st1" d="M9.4,13.2v1.4l2.5-2.3h-1.6C9.8,12.3,9.4,12.7,9.4,13.2"/>
	</g>
</g>
</svg>
