<?xml version="1.0" encoding="utf-8"?>
<!-- Generator: Adobe Illustrator 28.0.0, SVG Export Plug-In . SVG Version: 6.00 Build 0)  -->
<svg version="1.1" id="Component_10_1" xmlns="http://www.w3.org/2000/svg" xmlns:xlink="http://www.w3.org/1999/xlink" x="0px"
	 y="0px" viewBox="0 0 10.2 15" style="enable-background:new 0 0 10.2 15;" xml:space="preserve">
<style type="text/css">
	.st0{clip-path:url(#SVGID_00000092430487611089004380000002895944257819590591_);}
	.st1{fill:#FFFFFF;}
</style>
<g>
	<defs>
		<rect id="SVGID_1_" width="10.2" height="15"/>
	</defs>
	<clipPath id="SVGID_00000090258977891789414430000014669063891724983204_">
		<use xlink:href="#SVGID_1_"  style="overflow:visible;"/>
	</clipPath>
	<g id="Group_127" style="clip-path:url(#SVGID_00000090258977891789414430000014669063891724983204_);">
		<path id="Path_159" class="st1" d="M7.5,4.5c0,0,0-0.1,0-0.1s0-0.1,0-0.1l0-0.1c0,0,0,0,0-0.1s0-0.1,0-0.1l0-0.1c0,0,0,0,0,0
			c0,0,0-0.1-0.1-0.1l0-0.1c0,0,0,0,0,0c0-0.1-0.1-0.1-0.1-0.2l0,0C7.1,3.4,7,3.4,7,3.3l0,0c0-0.1-0.1-0.1-0.1-0.2l0,0
			C6.3,2.7,5.7,2.4,5.1,2.4h0c-1.3,0-2.4,1.1-2.4,2.4s1.1,2.4,2.4,2.4h0c0.6,0,1.3-0.3,1.7-0.7C6.9,6.5,6.9,6.4,7,6.4l0,0
			c0-0.1,0.1-0.1,0.1-0.2l0,0c0-0.1,0.1-0.1,0.1-0.2l0,0c0,0,0,0,0,0l0,0c0,0,0-0.1,0.1-0.1c0,0,0,0,0,0l0-0.1c0,0,0-0.1,0-0.1
			s0,0,0-0.1l0-0.1c0,0,0,0,0-0.1s0-0.1,0-0.1l0-0.1c0,0,0,0,0,0c0-0.1,0-0.2,0-0.2s0-0.2,0-0.2C7.5,4.6,7.5,4.6,7.5,4.5L7.5,4.5z"
			/>
		<path id="Path_160" class="st1" d="M9.3,8c0,0,0.1-0.1,0.1-0.1l0,0c0.1-0.1,0.2-0.3,0.2-0.3C10,6.8,10.2,6,10.2,5.1
			c0-0.1,0-0.2,0-0.3c0,0,0-0.1,0-0.1l0-0.1c0,0,0-0.1,0-0.1s0-0.1,0-0.1l0-0.1c0,0,0-0.1,0-0.1c0,0,0-0.1,0-0.1l0-0.1
			c0,0,0-0.1,0-0.1s0-0.1,0-0.1l0-0.1l0-0.1c0,0,0-0.1,0-0.1l0-0.1c0,0,0,0,0-0.1c0,0,0-0.1,0-0.1l0-0.1c0,0,0,0,0-0.1
			c0,0,0-0.1,0-0.1l0-0.1c0,0,0,0,0-0.1c0,0,0-0.1-0.1-0.1l0-0.1l0,0c0-0.1-0.1-0.1-0.1-0.2l0,0c0-0.1-0.1-0.1-0.1-0.2l0,0
			c0-0.1-0.1-0.1-0.1-0.2l0,0C9.3,2.1,9.3,2,9.2,2l0,0c0-0.1-0.1-0.1-0.1-0.2l0,0C9,1.7,9,1.7,8.9,1.6S8.8,1.5,8.8,1.4l0,0
			C7.8,0.5,6.5,0,5.1,0C2.4-0.1,0.1,2,0,4.6c0,0.2,0,0.3,0,0.5C0,6,0.2,6.9,0.7,7.7l0.1,0.1l0,0l0.1,0.2l0,0.1l3.3,5.5l0,0l0.8,1.3
			C5,15,5.1,15,5.1,15l0,0c0.1,0,0.2,0,0.2-0.1l0.7-1.3l0,0l3.2-5.5C9.3,8.1,9.3,8.1,9.3,8 M7.9,5.1C7.9,5.2,7.9,5.2,7.9,5.1l0,0.1
			c0,0,0,0.1,0,0.1s0,0.1,0,0.1l0,0.1c0,0,0,0.1,0,0.1s0,0.1,0,0.1l0,0.1c0,0,0,0,0,0.1c0,0.1,0,0.1-0.1,0.2l0,0c0,0,0,0,0,0.1
			c0,0.1-0.1,0.1-0.1,0.2c0,0,0,0,0,0.1c0,0.1-0.1,0.1-0.1,0.2l0,0C7.3,6.7,7.2,6.8,7.1,6.9c-0.5,0.5-1.3,0.9-2,0.9h0
			c-1.6,0-2.9-1.3-2.9-2.9C2.2,3.3,3.5,2,5.1,2h0c0.8,0,1.5,0.3,2,0.9l0,0C7.2,2.9,7.3,3,7.3,3l0,0c0.1,0.1,0.1,0.1,0.1,0.2
			c0,0,0,0,0,0c0,0.1,0.1,0.1,0.1,0.2c0,0,0,0,0,0.1l0,0c0,0.1,0.1,0.1,0.1,0.2c0,0,0,0,0,0.1l0,0.1c0,0,0,0.1,0,0.1
			c0,0,0,0.1,0,0.1l0,0.1c0,0,0,0.1,0,0.1s0,0.1,0,0.1l0,0.1c0,0,0,0.1,0,0.1C8,4.8,8,5,7.9,5.1"/>
	</g>
</g>
</svg>
