<?xml version="1.0" encoding="utf-8"?>
<!-- Generator: Adobe Illustrator 28.0.0, SVG Export Plug-In . SVG Version: 6.00 Build 0)  -->
<svg version="1.1" id="Component_7_1" xmlns="http://www.w3.org/2000/svg" xmlns:xlink="http://www.w3.org/1999/xlink" x="0px"
	 y="0px" viewBox="0 0 15 15" style="enable-background:new 0 0 15 15;" xml:space="preserve">
<style type="text/css">
	.st0{clip-path:url(#SVGID_00000116203782290219865390000007606336979513433757_);}
	.st1{fill-rule:evenodd;clip-rule:evenodd;fill:#FFFFFF;}
</style>
<g>
	<defs>
		<rect id="SVGID_1_" width="15" height="15"/>
	</defs>
	<clipPath id="SVGID_00000011031757836498150590000000908943735536042635_">
		<use xlink:href="#SVGID_1_"  style="overflow:visible;"/>
	</clipPath>
	<g id="Group_135" style="clip-path:url(#SVGID_00000011031757836498150590000000908943735536042635_);">
		<path id="Path_168" class="st1" d="M7.5,0C11.6,0,15,3.4,15,7.5S11.6,15,7.5,15S0,11.6,0,7.5C0,3.4,3.4,0,7.5,0 M7.5,2.1
			c-0.8,0-1.4,0.6-1.4,1.4v4.2c0,0.8,0.6,1.4,1.4,1.4c0.8,0,1.4-0.6,1.4-1.4V3.5C8.9,2.8,8.3,2.1,7.5,2.1C7.5,2.1,7.5,2.1,7.5,2.1
			 M7.5,10.1c-0.8,0-1.4,0.6-1.4,1.4c0,0.8,0.6,1.4,1.4,1.4c0.8,0,1.4-0.6,1.4-1.4c0,0,0,0,0,0C8.9,10.7,8.3,10.1,7.5,10.1"/>
	</g>
</g>
</svg>
