<svg id="Component_8_1" data-name="Component 8 – 1" xmlns="http://www.w3.org/2000/svg" xmlns:xlink="http://www.w3.org/1999/xlink" width="15.999" height="25" viewBox="0 0 15.999 25">
  <defs>
    <clipPath id="clip-path">
      <rect id="Rectangle_134" data-name="Rectangle 134" width="15.999" height="25" fill="none"/>
    </clipPath>
  </defs>
  <g id="Group_113" data-name="Group 113" clip-path="url(#clip-path)">
    <path id="Path_149" data-name="Path 149" d="M15.984,10.2a2.447,2.447,0,0,0-.677-1.262L10.73,4.386c-1.045-1.056-2.7-.713-4.07-.713l.065.358.228,1.261H8.459V8.7a2.466,2.466,0,0,0,2.463,2.476H14.38V22.55a.829.829,0,0,1-.832.829H2.464a.818.818,0,0,1-.829-.829V6.327l-.42-2.309A2.433,2.433,0,0,0,0,6.122V22.679A2.494,2.494,0,0,0,2.464,25H13.548A2.451,2.451,0,0,0,16,22.55V10.269ZM6.456,15.74a.4.4,0,0,1-.306.28.387.387,0,0,1-.381-.154L3.8,13.176l3.543-.65Zm.8-3.687h0l-3.546.639L2.2,4.311l3.546-.638ZM5.487,2.321h0l-3.531.652.164.97,3.544-.651ZM2.274.383h0L4.288.013a.78.78,0,0,1,.9.625l.231,1.327L1.889,2.6,1.649,1.289A.749.749,0,0,1,1.776.7a.775.775,0,0,1,.5-.319M9.989,6.431h0l3.546,3.532H10.844a.856.856,0,0,1-.855-.854Z" transform="translate(0 0)" fill-rule="evenodd"/>
  </g>
</svg>
