<?xml version="1.0" encoding="utf-8"?>
<!-- Generator: Adobe Illustrator 28.0.0, SVG Export Plug-In . SVG Version: 6.00 Build 0)  -->
<svg version="1.1" id="Component_13_1" xmlns="http://www.w3.org/2000/svg" xmlns:xlink="http://www.w3.org/1999/xlink" x="0px"
	 y="0px" viewBox="0 0 15 15" style="enable-background:new 0 0 15 15;" xml:space="preserve">
<style type="text/css">
	.st0{clip-path:url(#SVGID_00000083086872163732904770000005016446879659456444_);}
	.st1{fill:#FFFFFF;}
</style>
<g>
	<defs>
		<rect id="SVGID_1_" width="15" height="15"/>
	</defs>
	<clipPath id="SVGID_00000135681095990089597980000014842123207969291705_">
		<use xlink:href="#SVGID_1_"  style="overflow:visible;"/>
	</clipPath>
	<g id="Group_132" style="clip-path:url(#SVGID_00000135681095990089597980000014842123207969291705_);">
		<path id="Path_163" class="st1" d="M0,7.5C0,11.6,3.4,15,7.5,15S15,11.6,15,7.5S11.6,0,7.5,0S0,3.4,0,7.5 M13.3,7.5
			c0,3.2-2.6,5.8-5.8,5.8c-3.2,0-5.8-2.6-5.8-5.8s2.6-5.8,5.8-5.8C10.7,1.7,13.3,4.3,13.3,7.5C13.3,7.5,13.3,7.5,13.3,7.5"/>
		<path id="Path_164" class="st1" d="M7.2,3.1v4.4c0,0.1,0.1,0.2,0.2,0.2c0.1,0,0.2-0.1,0.2-0.2c0,0,0,0,0,0V3.1
			c0-0.1-0.1-0.2-0.2-0.2C7.3,2.8,7.2,2.9,7.2,3.1C7.2,3.1,7.2,3.1,7.2,3.1"/>
		<path id="Path_165" class="st1" d="M3.4,9.2c-0.1,0-0.2,0.1-0.2,0.1S3.3,9.3,3.4,9.2l4.1-1.6c0.1,0,0.2-0.1,0.2-0.1s-0.1,0-0.2,0
			L3.4,9.2z"/>
		<path id="Path_166" class="st1" d="M7.6,7.2c-0.2,0-0.3,0.2-0.3,0.3c0,0.2,0.2,0.3,0.3,0.3h2.9c0.2,0,0.3-0.2,0.3-0.3
			c0-0.2-0.2-0.3-0.3-0.3H7.6z"/>
		<path id="Path_167" class="st1" d="M7,7.5C7,7.8,7.2,8,7.5,8s0.6-0.3,0.6-0.6c0-0.3-0.3-0.6-0.6-0.6C7.2,6.9,7,7.1,7,7.5
			C7,7.5,7,7.5,7,7.5"/>
	</g>
</g>
</svg>
