<svg id="Component_26_1" data-name="Component 26 – 1" xmlns="http://www.w3.org/2000/svg" xmlns:xlink="http://www.w3.org/1999/xlink" width="23" height="18.688" viewBox="0 0 23 18.688">
  <defs>
    <clipPath id="clip-path">
      <rect id="Rectangle_138" data-name="Rectangle 138" width="23" height="18.688" fill="none"/>
    </clipPath>
  </defs>
  <g id="Group_120" data-name="Group 120" clip-path="url(#clip-path)">
    <path id="Path_154" data-name="Path 154" d="M0,0V14.377H11.495V12.935H1.431V1.441H21.562v7.9h.719A2.485,2.485,0,0,1,23,9.458V0ZM22.281,13.655H13.657c-.4,0-.722.243-.722.547v1.069c0,.3.327.546.722.546h8.624A.651.651,0,0,0,23,15.272V14.2a.651.651,0,0,0-.719-.547M13.657,9.344h6.474V2.87H2.871V11.5h8.624v-.184c0-1.312.5-1.975,2.162-1.975M10.695,8.53V7.02A2,2,0,0,1,9.662,6.4a1.54,1.54,0,0,1-.327-1,1.459,1.459,0,0,1,.372-1,1.529,1.529,0,0,1,.988-.465V3.591h.534V3.94a1.585,1.585,0,0,1,.916.4,1.567,1.567,0,0,1,.445.871l-.92.118a.765.765,0,0,0-.441-.582V6.159a2.343,2.343,0,0,1,1.188.615,1.388,1.388,0,0,1,.325.953,1.593,1.593,0,0,1-.409,1.106,1.746,1.746,0,0,1-1.1.557v.684h-.534V9.4a1.645,1.645,0,0,1-1.012-.467,1.9,1.9,0,0,1-.5-1.09l.942-.117a1.262,1.262,0,0,0,.219.5.928.928,0,0,0,.351.3m0-3.8a.649.649,0,0,0-.328.257.578.578,0,0,0-.127.382.542.542,0,0,0,.118.351.7.7,0,0,0,.337.265Zm.534,3.86a.716.716,0,0,0,.441-.257.68.68,0,0,0,.177-.477.585.585,0,0,0-.152-.4.855.855,0,0,0-.466-.281Zm11.053,7.949H13.657c-.4,0-.722.233-.722.536v1.079c0,.3.327.535.722.535h8.624c.4,0,.719-.232.719-.535V17.073c0-.3-.324-.536-.719-.536m0-5.753H13.657c-.4,0-.722.246-.722.535V12.4c0,.3.327.534.722.534h8.624c.4,0,.719-.231.719-.534V11.319c0-.289-.324-.535-.719-.535" transform="translate(0 0)" fill-rule="evenodd"/>
  </g>
</svg>
