<svg id="Component_9_1" data-name="Component 9 – 1" xmlns="http://www.w3.org/2000/svg" xmlns:xlink="http://www.w3.org/1999/xlink" width="12.224" height="15" viewBox="0 0 12.224 15">
  <defs>
    <clipPath id="clip-path">
      <rect id="Rectangle_149" data-name="Rectangle 149" width="12.224" height="15"/>
    </clipPath>
  </defs>
  <g id="Group_130" data-name="Group 130" clip-path="url(#clip-path)">
    <path id="Path_161" data-name="Path 161" d="M.894,0A.9.9,0,0,0,0,.894V14.106A.9.9,0,0,0,.894,15H8.873V13.244a1.406,1.406,0,0,1,1.4-1.4h1.947V.894A.9.9,0,0,0,11.33,0Zm9,8.184H2.33V7.569H9.894Zm0-2.153H2.33V5.416H9.894Zm0-2.153H2.33V3.263H9.894Z" transform="translate(0 0)"/>
    <path id="Path_162" data-name="Path 162" d="M37.9,50.785V52.2l2.454-2.314H38.8a.9.9,0,0,0-.894.894" transform="translate(-28.52 -37.541)"/>
  </g>
</svg>
