<?xml version="1.0" encoding="utf-8"?>
<!-- Generator: Adobe Illustrator 28.0.0, SVG Export Plug-In . SVG Version: 6.00 Build 0)  -->
<svg version="1.1" id="Component_8_1" xmlns="http://www.w3.org/2000/svg" xmlns:xlink="http://www.w3.org/1999/xlink" x="0px"
	 y="0px" viewBox="0 0 16 25" style="enable-background:new 0 0 16 25;" xml:space="preserve">
<style type="text/css">
	.st0{clip-path:url(#SVGID_00000056387193479752043860000000994257787961481868_);}
	.st1{fill-rule:evenodd;clip-rule:evenodd;fill:#FFFFFF;}
</style>
<g>
	<defs>
		<rect id="SVGID_1_" width="16" height="25"/>
	</defs>
	<clipPath id="SVGID_00000057145716443581441620000017730862685866622098_">
		<use xlink:href="#SVGID_1_"  style="overflow:visible;"/>
	</clipPath>
	<g id="Group_113" style="clip-path:url(#SVGID_00000057145716443581441620000017730862685866622098_);">
		<path id="Path_149" class="st1" d="M16,10.2c-0.1-0.5-0.3-0.9-0.7-1.3l-4.6-4.6C9.7,3.3,8,3.7,6.7,3.7L6.7,4L7,5.3h1.5v3.4
			c0,1.4,1.1,2.5,2.5,2.5c0,0,0,0,0,0h3.5v11.4c0,0.5-0.4,0.8-0.8,0.8c0,0,0,0,0,0H2.5c-0.5,0-0.8-0.4-0.8-0.8c0,0,0,0,0,0V6.3
			L1.2,4C0.5,4.5,0,5.3,0,6.1v16.6C0.1,24,1.2,25,2.5,25h11.1c1.4,0,2.5-1.1,2.5-2.5l0,0L16,10.2L16,10.2z M6.5,15.7
			c0,0.1-0.2,0.3-0.3,0.3c-0.1,0-0.3,0-0.4-0.2l-2-2.7l3.5-0.6L6.5,15.7z M7.3,12.1L7.3,12.1l-3.5,0.6L2.2,4.3l3.5-0.6L7.3,12.1z
			 M5.5,2.3L5.5,2.3L2,3l0.2,1l3.5-0.7L5.5,2.3z M2.3,0.4L2.3,0.4l2-0.4c0.4-0.1,0.8,0.2,0.9,0.6L5.4,2L1.9,2.6L1.6,1.3
			c0-0.2,0-0.4,0.1-0.6C1.9,0.5,2.1,0.4,2.3,0.4 M10,6.4L10,6.4l3.5,3.5h-2.7C10.4,10,10,9.6,10,9.1V6.4z"/>
	</g>
</g>
</svg>
