<svg id="Group_118" data-name="Group 118" xmlns="http://www.w3.org/2000/svg" xmlns:xlink="http://www.w3.org/1999/xlink" width="23" height="17.517" viewBox="0 0 23 17.517">
  <defs>
    <clipPath id="clip-path">
      <rect id="Rectangle_137" data-name="Rectangle 137" width="23" height="17.517"/>
    </clipPath>
  </defs>
  <g id="Group_117" data-name="Group 117" clip-path="url(#clip-path)">
    <path id="Path_152" data-name="Path 152" d="M19.791,17.517H3.209A3.212,3.212,0,0,1,0,14.308V3.209A3.212,3.212,0,0,1,3.209,0H19.791A3.213,3.213,0,0,1,23,3.209v11.1a3.213,3.213,0,0,1-3.209,3.209M3.209,2.006a1.2,1.2,0,0,0-1.2,1.2v11.1a1.2,1.2,0,0,0,1.2,1.2H19.791a1.2,1.2,0,0,0,1.2-1.2V3.209a1.2,1.2,0,0,0-1.2-1.2Z"/>
    <path id="Path_153" data-name="Path 153" d="M37.039,15.852H29.952a1,1,0,1,1,0-2.006h7.087a1,1,0,1,1,0,2.006" transform="translate(-19.722 -9.433)"/>
    <rect id="Rectangle_136" data-name="Rectangle 136" width="20.994" height="4.547" transform="translate(1.003 8.758)"/>
  </g>
</svg>
