<svg id="Component_14_1" data-name="Component 14 – 1" xmlns="http://www.w3.org/2000/svg" xmlns:xlink="http://www.w3.org/1999/xlink" width="15" height="12.241" viewBox="0 0 15 12.241">
  <defs>
    <clipPath id="clip-path">
      <rect id="Rectangle_152" data-name="Rectangle 152" width="15" height="12.241" fill="none"/>
    </clipPath>
  </defs>
  <g id="Group_137" data-name="Group 137" clip-path="url(#clip-path)">
    <path id="Path_169" data-name="Path 169" d="M.068.061,4.935,0h.038L5,.022,6.374,1.834l8.5-.06h.068v.069L15,12.165v.076H0V.061ZM12.273,10.368v-.8h-.815V9.012h.815v-.8h.536v.8h.81v.554h-.81v.8Zm.219.681A1.753,1.753,0,1,0,10.74,9.292a1.754,1.754,0,0,0,1.752,1.757M.961,4.01H5.518V3.161H.961Zm4.556.841H.961V5.7H5.518Zm0,1.69H.961V7.39H5.518Z" transform="translate(0 0)"/>
  </g>
</svg>
