<svg id="Component_10_1" data-name="Component 10 – 1" xmlns="http://www.w3.org/2000/svg" xmlns:xlink="http://www.w3.org/1999/xlink" width="10.183" height="15" viewBox="0 0 10.183 15">
  <defs>
    <clipPath id="clip-path">
      <rect id="Rectangle_148" data-name="Rectangle 148" width="10.183" height="15" transform="translate(0 0)"/>
    </clipPath>
  </defs>
  <g id="Group_127" data-name="Group 127" clip-path="url(#clip-path)">
    <path id="Path_159" data-name="Path 159" d="M19.17,15.183c0-.036-.009-.071-.016-.106s-.013-.052-.019-.077l-.022-.086c-.006-.023-.011-.046-.018-.069s-.023-.066-.036-.1l-.029-.079c-.005-.015-.01-.03-.016-.044-.019-.046-.042-.09-.064-.134l-.025-.051c0-.009-.008-.018-.013-.027-.029-.054-.061-.105-.094-.157l-.018-.03c-.045-.068-.086-.122-.128-.174l-.016-.022q-.068-.084-.149-.165l-.014-.016a2.408,2.408,0,0,0-1.692-.71h-.028a2.427,2.427,0,0,0,0,4.855h.03a2.411,2.411,0,0,0,1.7-.718c.061-.062.111-.118.155-.171l.018-.025c.041-.051.082-.1.12-.161l.025-.042c.033-.052.066-.1.095-.157l.012-.025c.006-.013.012-.026.018-.038l.011-.021c.021-.042.042-.083.06-.126.006-.014.011-.028.016-.043l.03-.08c.013-.033.025-.065.035-.1s.013-.046.018-.069l.023-.087c.007-.025.014-.05.019-.075s.012-.072.016-.107l.013-.084c0-.016.006-.032.008-.049.008-.082.012-.165.012-.248s0-.166-.012-.248c0-.016,0-.033-.007-.049Z" transform="translate(-11.695 -10.707)"/>
    <path id="Path_160" data-name="Path 160" d="M9.321,8.033c.024-.04.05-.082.086-.135l.012-.021c.064-.121.163-.3.168-.306a5.4,5.4,0,0,0,.6-2.48q0-.14-.006-.277c0-.04,0-.08-.007-.119l-.005-.079c0-.026,0-.051-.005-.075s-.007-.065-.01-.1l-.008-.07q0-.05-.011-.1c0-.026-.008-.053-.012-.079l-.01-.068c-.006-.038-.011-.077-.018-.114s-.012-.061-.018-.091l-.016-.081-.017-.083c-.01-.04-.02-.079-.03-.119L9.99,3.572c0-.021-.01-.041-.016-.063-.012-.043-.026-.086-.039-.128l-.016-.053c-.006-.021-.012-.042-.019-.06-.013-.042-.029-.083-.044-.125l-.02-.055c-.007-.02-.013-.039-.021-.057-.018-.046-.037-.091-.056-.136l-.021-.051L9.72,2.8c-.027-.06-.056-.12-.085-.179l-.02-.042c-.03-.059-.062-.116-.1-.186L9.5,2.368c-.035-.061-.072-.121-.115-.188l-.012-.018c-.038-.06-.079-.118-.123-.18l-.012-.017c-.045-.061-.09-.121-.135-.176l-.011-.014c-.049-.06-.1-.12-.154-.181s-.107-.116-.163-.172h0A5.059,5.059,0,0,0,5.092,0,4.872,4.872,0,0,0,0,5.092,5.463,5.463,0,0,0,.685,7.739l.076.14L.77,7.9l.128.2.036.054L4.192,13.62h0l.755,1.269a.226.226,0,0,0,.194.11h0a.225.225,0,0,0,.194-.113L6.07,13.62h0L9.245,8.153c.028-.042.051-.079.076-.12M7.944,5.149c0,.027-.007.053-.012.08l-.01.068c-.006.046-.013.093-.022.138s-.016.069-.026.1l-.019.074c-.008.033-.016.065-.026.1s-.029.085-.045.127L7.761,5.9c-.009.024-.016.047-.026.07-.022.052-.047.1-.072.154l-.022.045c-.008.017-.016.035-.026.051-.034.064-.073.126-.112.186-.014.025-.022.037-.03.05-.045.066-.093.13-.142.192l-.021.027c-.053.065-.112.131-.176.2a2.867,2.867,0,0,1-2.024.861H5.08a2.879,2.879,0,0,1,0-5.758h.03a2.859,2.859,0,0,1,2.015.852l.012.013c.065.066.121.128.171.19l.018.025c.052.065.1.129.145.2.008.011.016.024.023.037.047.073.085.135.12.2.009.017.017.035.026.052l.011.023c.034.067.061.12.084.176.01.023.019.048.027.072l.024.065c.016.042.032.083.045.126s.018.064.026.1l.018.072c.01.035.019.07.026.106s.015.09.022.137l.01.068c0,.026.009.053.011.079a2.984,2.984,0,0,1,0,.586" transform="translate(0 0)"/>
  </g>
</svg>
