<?xml version="1.0" encoding="utf-8"?>
<!-- Generator: Adobe Illustrator 28.0.0, SVG Export Plug-In . SVG Version: 6.00 Build 0)  -->
<svg version="1.1" id="Component_26_1" xmlns="http://www.w3.org/2000/svg" xmlns:xlink="http://www.w3.org/1999/xlink" x="0px"
	 y="0px" viewBox="0 0 23 18.7" style="enable-background:new 0 0 23 18.7;" xml:space="preserve">
<style type="text/css">
	.st0{clip-path:url(#SVGID_00000182512308885875430840000007984699106689192108_);}
	.st1{fill-rule:evenodd;clip-rule:evenodd;fill:#FFFFFF;}
</style>
<g>
	<defs>
		<rect id="SVGID_1_" width="23" height="18.7"/>
	</defs>
	<clipPath id="SVGID_00000091709058008213926880000001484340101136667019_">
		<use xlink:href="#SVGID_1_"  style="overflow:visible;"/>
	</clipPath>
	<g id="Group_120" style="clip-path:url(#SVGID_00000091709058008213926880000001484340101136667019_);">
		<path id="Path_154" class="st1" d="M0,0v14.4h11.5v-1.4H1.4V1.4h20.1v7.9h0.7c0.2,0,0.5,0,0.7,0.1V0H0z M22.3,13.7h-8.6
			c-0.4,0-0.7,0.2-0.7,0.5v1.1c0,0.3,0.3,0.5,0.7,0.5h8.6c0.3,0,0.7-0.2,0.7-0.5v-1.1C22.9,13.9,22.6,13.6,22.3,13.7 M13.7,9.3h6.5
			V2.9H2.9v8.6h8.6v-0.2C11.5,10,12,9.3,13.7,9.3 M10.7,8.5V7c-0.4-0.1-0.8-0.3-1-0.6c-0.2-0.3-0.3-0.6-0.3-1c0-0.4,0.1-0.7,0.4-1
			c0.3-0.3,0.6-0.4,1-0.5V3.6h0.5v0.3c0.3,0,0.7,0.2,0.9,0.4c0.2,0.2,0.4,0.5,0.4,0.9l-0.9,0.1c0-0.3-0.2-0.5-0.4-0.6v1.4
			c0.4,0.1,0.9,0.3,1.2,0.6c0.2,0.3,0.3,0.6,0.3,1c0,0.4-0.1,0.8-0.4,1.1c-0.3,0.3-0.7,0.5-1.1,0.6v0.7h-0.5V9.4
			c-0.4,0-0.7-0.2-1-0.5C9.4,8.6,9.2,8.3,9.2,7.8l0.9-0.1c0,0.2,0.1,0.4,0.2,0.5C10.4,8.4,10.6,8.5,10.7,8.5 M10.7,4.7
			c-0.1,0-0.2,0.1-0.3,0.3c-0.1,0.1-0.1,0.2-0.1,0.4c0,0.1,0,0.3,0.1,0.4c0.1,0.1,0.2,0.2,0.3,0.3V4.7z M11.2,8.6
			c0.2,0,0.3-0.1,0.4-0.3c0.1-0.1,0.2-0.3,0.2-0.5c0-0.1-0.1-0.3-0.2-0.4c-0.1-0.1-0.3-0.2-0.5-0.3V8.6z M22.3,16.5h-8.6
			c-0.4,0-0.7,0.2-0.7,0.5v1.1c0,0.3,0.3,0.5,0.7,0.5h8.6c0.4,0,0.7-0.2,0.7-0.5v-1.1C23,16.8,22.7,16.5,22.3,16.5 M22.3,10.8h-8.6
			c-0.4,0-0.7,0.2-0.7,0.5v1.1c0,0.3,0.3,0.5,0.7,0.5h8.6c0.4,0,0.7-0.2,0.7-0.5v-1.1C23,11,22.7,10.8,22.3,10.8"/>
	</g>
</g>
</svg>
