<?xml version="1.0" encoding="utf-8"?>
<!-- Generator: Adobe Illustrator 28.0.0, SVG Export Plug-In . SVG Version: 6.00 Build 0)  -->
<svg version="1.1" id="Component_14_1" xmlns="http://www.w3.org/2000/svg" xmlns:xlink="http://www.w3.org/1999/xlink" x="0px"
	 y="0px" viewBox="0 0 15 12.2" style="enable-background:new 0 0 15 12.2;" xml:space="preserve">
<style type="text/css">
	.st0{clip-path:url(#SVGID_00000103963863488641669230000017764172182837625266_);}
	.st1{fill:#FFFFFF;}
</style>
<g>
	<defs>
		<rect id="SVGID_1_" width="15" height="12.2"/>
	</defs>
	<clipPath id="SVGID_00000137102310317586557090000016353832645902164921_">
		<use xlink:href="#SVGID_1_"  style="overflow:visible;"/>
	</clipPath>
	<g id="Group_137" style="clip-path:url(#SVGID_00000137102310317586557090000016353832645902164921_);">
		<path id="Path_169" class="st1" d="M0.1,0.1L4.9,0h0l0,0l1.4,1.8l8.5-0.1h0.1v0.1L15,12.2v0.1H0L0.1,0.1L0.1,0.1z M12.3,10.4V9.6
			h-0.8V9h0.8V8.2h0.5V9h0.8v0.6h-0.8v0.8L12.3,10.4z M12.5,11c1,0,1.8-0.8,1.8-1.8c0-1-0.8-1.8-1.8-1.8c-1,0-1.8,0.8-1.8,1.7
			C10.7,10.3,11.5,11,12.5,11C12.5,11,12.5,11,12.5,11 M1,4h4.6V3.2H1V4z M5.5,4.9H1v0.8h4.6L5.5,4.9z M5.5,6.5H1v0.8h4.6L5.5,6.5z"
			/>
	</g>
</g>
</svg>
