<svg id="Component_13_1" data-name="Component 13 – 1" xmlns="http://www.w3.org/2000/svg" xmlns:xlink="http://www.w3.org/1999/xlink" width="15" height="15" viewBox="0 0 15 15">
  <defs>
    <clipPath id="clip-path">
      <rect id="Rectangle_150" data-name="Rectangle 150" width="15" height="15" transform="translate(0 0)"/>
    </clipPath>
  </defs>
  <g id="Group_132" data-name="Group 132" clip-path="url(#clip-path)">
    <path id="Path_163" data-name="Path 163" d="M0,7.5A7.5,7.5,0,1,0,7.5,0,7.5,7.5,0,0,0,0,7.5m13.292,0A5.792,5.792,0,1,1,7.5,1.708,5.792,5.792,0,0,1,13.292,7.5" transform="translate(0 0)"/>
    <path id="Path_164" data-name="Path 164" d="M36.246,14.487v4.395a.233.233,0,1,0,.466,0V14.487a.233.233,0,1,0-.466,0" transform="translate(-29.012 -11.409)"/>
    <path id="Path_165" data-name="Path 165" d="M16.146,38.956c-.119.049-.207.108-.2.131s.114,0,.232-.049l4.057-1.69c.119-.049.207-.108.2-.131s-.114,0-.232.049Z" transform="translate(-12.765 -29.782)"/>
    <path id="Path_166" data-name="Path 166" d="M36.6,35.894a.341.341,0,0,0,0,.682h2.881a.341.341,0,0,0,0-.682Z" transform="translate(-29.026 -28.73)"/>
    <path id="Path_167" data-name="Path 167" d="M34.845,35.057a.58.58,0,1,0,.58-.581.58.58,0,0,0-.58.581" transform="translate(-27.89 -27.595)"/>
  </g>
</svg>
