<svg id="Component_18_1" data-name="Component 18 – 1" xmlns="http://www.w3.org/2000/svg" xmlns:xlink="http://www.w3.org/1999/xlink" width="15.09" height="18.549" viewBox="0 0 15.09 18.549">
  <defs>
    <clipPath id="clip-path">
      <rect id="Rectangle_104" data-name="Rectangle 104" width="15.09" height="17.549" fill="#e24b97"/>
    </clipPath>
  </defs>
  <rect id="Rectangle_103" data-name="Rectangle 103" width="15.09" height="3.147" transform="translate(0 15.402)" fill="#e24b97"/>
  <g id="Group_80" data-name="Group 80">
    <g id="Group_79" data-name="Group 79" clip-path="url(#clip-path)">
      <path id="Path_92" data-name="Path 92" d="M13.945,6.128a6.128,6.128,0,1,0-12.256,0v8.184H13.945ZM7.606,2.657H7.519A3.47,3.47,0,0,0,4.046,6.128a.475.475,0,1,1-.951,0A4.439,4.439,0,0,1,7.519,1.7h.087a.478.478,0,0,1,0,.955" transform="translate(-0.28 0)" fill="#e24b97"/>
      <path id="Path_93" data-name="Path 93" d="M7.886,2.041H7.8A4.439,4.439,0,0,0,3.375,6.466a.475.475,0,1,0,.951,0A3.47,3.47,0,0,1,7.8,3h.087a.478.478,0,0,0,0-.955" transform="translate(-0.56 -0.338)" fill="#fff"/>
    </g>
  </g>
</svg>
