<svg xmlns="http://www.w3.org/2000/svg" xmlns:xlink="http://www.w3.org/1999/xlink" width="40" height="34.65" viewBox="0 0 40 34.65">
  <defs>
    <clipPath id="clip-path">
      <rect id="Rectangle_133" data-name="Rectangle 133" width="40" height="34.65" fill="#fff"/>
    </clipPath>
  </defs>
  <g id="Group_111" data-name="Group 111" transform="translate(0 0)">
    <g id="Group_110" data-name="Group 110" transform="translate(0 0)" clip-path="url(#clip-path)">
      <path id="Path_148" data-name="Path 148" d="M7.462,6.409H9.586a1.077,1.077,0,0,0,1.067-1.073V1.067A1.071,1.071,0,0,0,9.586,0H7.462A1.072,1.072,0,0,0,6.393,1.067V5.336A1.078,1.078,0,0,0,7.462,6.409M40,27.634A7.019,7.019,0,1,1,32.97,20.6,7.038,7.038,0,0,1,40,27.634m-1.756,0a5.265,5.265,0,1,0-5.276,5.246,5.28,5.28,0,0,0,5.276-5.246m-1.538-1.721a.88.88,0,0,0-1.249,0l-3.1,3.093L30.5,27.14a.9.9,0,0,0-1.256,0,.91.91,0,0,0,0,1.257l2.49,2.487a.96.96,0,0,0,.623.234.858.858,0,0,0,.611-.234l3.737-3.745a.854.854,0,0,0,0-1.227M17.524,21.992a3.2,3.2,0,1,1-3.192,3.188,3.2,3.2,0,0,1,3.192-3.188m-9.212,0A3.2,3.2,0,1,1,5.1,25.179a3.2,3.2,0,0,1,3.212-3.188m0-8.294A3.205,3.205,0,1,1,5.1,16.9a3.21,3.21,0,0,1,3.212-3.2m9.212,0a3.205,3.205,0,1,1-3.192,3.2,3.209,3.209,0,0,1,3.192-3.2m9.235,0a3.205,3.205,0,1,1-3.205,3.2,3.206,3.206,0,0,1,3.205-3.2m7.334-5.176V19.159a6.691,6.691,0,0,0-1.124-.085,8.874,8.874,0,0,0-.987.06v-6.34c0-4.085-24-2.125-27.738-2.125a2.12,2.12,0,0,0-2.12,2.125V29.857a2.121,2.121,0,0,0,2.12,2.119H25.631a8.749,8.749,0,0,0,1.8,2.136H4.245A4.256,4.256,0,0,1,0,29.857V8.522A4.262,4.262,0,0,1,4.245,4.267H5.318V5.336A2.142,2.142,0,0,0,7.462,7.454H9.586a2.139,2.139,0,0,0,2.142-2.119V4.267H22.38V5.336A2.118,2.118,0,0,0,24.5,7.454H26.64a2.121,2.121,0,0,0,2.125-2.119V4.267h1.07a4.258,4.258,0,0,1,4.259,4.255M24.5,6.409H26.64a1.082,1.082,0,0,0,1.075-1.073V1.067A1.076,1.076,0,0,0,26.64,0H24.5a1.057,1.057,0,0,0-1.051,1.067V5.336A1.063,1.063,0,0,0,24.5,6.409" transform="translate(0 0)" fill="#fff" fill-rule="evenodd"/>
    </g>
  </g>
</svg>
