<?xml version="1.0" encoding="utf-8"?>
<!-- Generator: Adobe Illustrator 28.0.0, SVG Export Plug-In . SVG Version: 6.00 Build 0)  -->
<svg version="1.1" id="Layer_1" xmlns="http://www.w3.org/2000/svg" xmlns:xlink="http://www.w3.org/1999/xlink" x="0px" y="0px"
	 viewBox="0 0 25.9 25.9" style="enable-background:new 0 0 25.9 25.9;" xml:space="preserve">
<style type="text/css">
	.st0{fill:none;stroke:#FFFFFF;stroke-width:2;}
	.st1{clip-path:url(#SVGID_00000137822582972239037180000015114231606774111165_);}
	.st2{fill:#FFFFFF;}
</style>
<g id="Group_89" transform="translate(-21 -444)">
	<path id="Rectangle_33" class="st0" d="M33.9,445L33.9,445c6.6,0,11.9,5.3,11.9,11.9v0c0,6.6-5.3,11.9-11.9,11.9h0
		c-6.6,0-11.9-5.3-11.9-11.9v0C22,450.3,27.3,445,33.9,445z"/>
	<g id="Group_23" transform="translate(24.782 448.358)">
		<g>
			<defs>
				<path id="SVGID_1_" d="M16.4,0.3l-10,10.8l-4.6-5c-0.4-0.4-1.1-0.4-1.5,0c-0.4,0.4-0.4,1-0.1,1.5l5.4,5.8
					c0.4,0.4,1.1,0.5,1.5,0.1c0,0,0,0,0.1-0.1L18,1.8c0.4-0.4,0.4-1.1,0-1.5S16.9-0.1,16.4,0.3C16.4,0.3,16.4,0.3,16.4,0.3"/>
			</defs>
			<clipPath id="SVGID_00000173853200374390961140000010080119809538217618_">
				<use xlink:href="#SVGID_1_"  style="overflow:visible;"/>
			</clipPath>
			<g id="Group_22" transform="translate(0)" style="clip-path:url(#SVGID_00000173853200374390961140000010080119809538217618_);">
				<rect id="Rectangle_75" x="-0.1" y="0" class="st2" width="18.5" height="13.8"/>
			</g>
		</g>
	</g>
</g>
</svg>
