<svg id="Component_25_1" data-name="Component 25 – 1" xmlns="http://www.w3.org/2000/svg" xmlns:xlink="http://www.w3.org/1999/xlink" width="25.813" height="22.361" viewBox="0 0 25.813 22.361">
  <defs>
    <clipPath id="clip-path">
      <rect id="Rectangle_133" data-name="Rectangle 133" width="25.813" height="22.361"/>
    </clipPath>
  </defs>
  <g id="Group_110" data-name="Group 110" clip-path="url(#clip-path)">
    <path id="Path_148" data-name="Path 148" d="M4.815,4.136H6.186a.7.7,0,0,0,.689-.693V.689A.691.691,0,0,0,6.186,0H4.815a.692.692,0,0,0-.69.689V3.443a.7.7,0,0,0,.69.693m21,13.7a4.53,4.53,0,1,1-4.538-4.539,4.542,4.542,0,0,1,4.538,4.539m-1.133,0a3.4,3.4,0,1,0-3.4,3.386,3.408,3.408,0,0,0,3.4-3.386m-.993-1.111a.568.568,0,0,0-.806,0l-2,2-1.2-1.2a.58.58,0,0,0-.811,0,.587.587,0,0,0,0,.812l1.607,1.605a.619.619,0,0,0,.4.151.554.554,0,0,0,.394-.151l2.412-2.417a.551.551,0,0,0,0-.792M11.309,14.192a2.067,2.067,0,1,1-2.06,2.057,2.065,2.065,0,0,1,2.06-2.057m-5.945,0a2.067,2.067,0,1,1-2.073,2.057,2.066,2.066,0,0,1,2.073-2.057m0-5.352A2.068,2.068,0,1,1,3.291,10.9,2.071,2.071,0,0,1,5.364,8.84m5.945,0A2.068,2.068,0,1,1,9.249,10.9a2.071,2.071,0,0,1,2.06-2.065m5.96,0A2.068,2.068,0,1,1,15.2,10.9,2.069,2.069,0,0,1,17.269,8.84M22,5.5v6.865a4.318,4.318,0,0,0-.726-.055,5.727,5.727,0,0,0-.637.039V8.257c0-2.636-15.486-1.371-17.9-1.371A1.368,1.368,0,0,0,1.371,8.257V19.268a1.369,1.369,0,0,0,1.368,1.367h13.8a5.646,5.646,0,0,0,1.164,1.379H2.739A2.747,2.747,0,0,1,0,19.268V5.5A2.75,2.75,0,0,1,2.739,2.753h.693v.69A1.383,1.383,0,0,0,4.815,4.811H6.186A1.381,1.381,0,0,0,7.569,3.443v-.69h6.874v.69A1.367,1.367,0,0,0,15.81,4.811h1.381a1.369,1.369,0,0,0,1.371-1.367v-.69h.691A2.748,2.748,0,0,1,22,5.5M15.81,4.136h1.381a.7.7,0,0,0,.694-.693V.689A.694.694,0,0,0,17.192,0H15.81a.682.682,0,0,0-.678.689V3.443a.686.686,0,0,0,.678.693" transform="translate(0 0)" fill-rule="evenodd"/>
  </g>
</svg>
