<svg xmlns="http://www.w3.org/2000/svg" width="45.138" height="45.138" viewBox="0 0 45.138 45.138">
  <g id="Group_31" data-name="Group 31" transform="translate(-173.931 -774)">
    <rect id="Rectangle_40" data-name="Rectangle 40" width="34" height="38" transform="translate(180 777)" fill="#fff"/>
    <g id="Group_11" data-name="Group 11" transform="translate(165.328 774)">
      <g id="Group_6" data-name="Group 6" transform="translate(8.603)">
        <g id="Component_1_1" data-name="Component 1 – 1" transform="translate(0 0)">
          <path id="Path_28" data-name="Path 28" d="M495.291,412.184a10.255,10.255,0,0,0-9.356-6.067H461.283A10.235,10.235,0,0,0,451.04,416.36v24.652a10.242,10.242,0,0,0,10.243,10.243h24.653a10.237,10.237,0,0,0,10.243-10.243V416.36A10.2,10.2,0,0,0,495.291,412.184Zm-9.256,27.3a11.184,11.184,0,0,1-2.795,3.7,14.659,14.659,0,0,1-9.585,3.43,15.309,15.309,0,0,1-4.724-.735,13.217,13.217,0,0,1-6.172-4.175,11.95,11.95,0,0,1-1.917-3.374,13.534,13.534,0,0,1-.634-2.94c-.068-.718.406-1.045,1.053-.727,2.448,1.2,6.668,3.273,13.9,6.821a.83.83,0,0,0,.988-.447.851.851,0,0,0-.276-1.036l-3.62-1.816c-.1-.052-.291-.143-.165-.394a.256.256,0,0,1,.4-.122l4.432,2.218c.326.164.827-.125,1-.447s.139-.927-.2-1.1l-4.443-2.224a.293.293,0,0,1-.139-.419.27.27,0,0,1,.414-.115l4.319,2.153a.814.814,0,0,0,1.02-.485.843.843,0,0,0-.209-1.068l-4.782-2.4a.219.219,0,0,1-.089-.328c.077-.154.183-.178.3-.12l3.494,1.725a.812.812,0,0,0,.97-.386.84.84,0,0,0-.208-1.072c-8.323-4.065-12.578-6.147-14.732-7.2a2.4,2.4,0,0,1-1.128-1.137,9.477,9.477,0,0,1-.035-8.083,10.217,10.217,0,0,1,1.944-2.8,11.97,11.97,0,0,1,5.88-3.285,14.662,14.662,0,0,1,7.27.239,12.115,12.115,0,0,1,5.7,3.441,9.714,9.714,0,0,1,2.533,6.47.763.763,0,0,1,0,.087.755.755,0,0,1-1.087.571c-2.517-1.221-6.367-3.09-12.238-5.942-.339-.16-.821.151-.972.5a.812.812,0,0,0,.294,1l3.512,1.688c.118.056.164.153.09.309a.219.219,0,0,1-.313.132l-4.834-2.289c-.339-.16-.812.151-.97.494a.814.814,0,0,0,.247,1.1l4.358,2.073a.269.269,0,0,1,.164.4.293.293,0,0,1-.415.149l-4.49-2.128c-.339-.16-.832.175-.983.521a.886.886,0,0,0,.265,1.063l4.479,2.122a.256.256,0,0,1,.151.392c-.12.253-.307.162-.412.113l-3.661-1.732a.851.851,0,0,0-.986.421.829.829,0,0,0,.258,1.054c14.666,7.1,16.984,8.211,17.23,8.329.039.019.026.013,0,0a2.475,2.475,0,0,1,1.415,1.882q.075.528.1,1.063A10.549,10.549,0,0,1,486.035,439.486Z" transform="translate(-451.04 -406.117)" fill="#f09cb4"/>
        </g>
      </g>
    </g>
  </g>
</svg>
