<svg id="Component_23_1" data-name="Component 23 – 1" xmlns="http://www.w3.org/2000/svg" xmlns:xlink="http://www.w3.org/1999/xlink" width="34.78" height="30.436" viewBox="0 0 34.78 30.436">
  <defs>
    <clipPath id="clip-path">
      <rect id="Rectangle_100" data-name="Rectangle 100" width="34.78" height="30.436" transform="translate(0 0)" fill="none"/>
    </clipPath>
  </defs>
  <g id="Group_75" data-name="Group 75" clip-path="url(#clip-path)">
    <path id="Path_88" data-name="Path 88" d="M60.522,69.788,62.58,67.5c.334-.371.671-.74,1-1.114l.014-.015a1.163,1.163,0,0,0,.323-.781,1.123,1.123,0,0,0-.323-.78,1.1,1.1,0,0,0-1.561,0l-.823.914L59.237,67.92l-2.381,2.644L54.8,72.85c-.334.371-.671.74-1,1.114l-.014.016a1.162,1.162,0,0,0-.323.78,1.123,1.123,0,0,0,.323.781,1.1,1.1,0,0,0,1.561,0l.823-.914,1.976-2.194,2.381-2.644" transform="translate(-40.702 -49.101)" fill="#002860"/>
    <path id="Path_89" data-name="Path 89" d="M34.727,8.791a9.871,9.871,0,0,0-.242-1.339,9.67,9.67,0,0,0-.463-1.292,9.79,9.79,0,0,0-1.4-2.27,10.549,10.549,0,0,0-1.6-1.613A9.936,9.936,0,0,0,26.914.192,7.946,7.946,0,0,0,22.25.548a9.692,9.692,0,0,0-1.293.624,11.037,11.037,0,0,0-1.226.864,16.459,16.459,0,0,0-1.446,1.351q-.887.9-1.766,1.8A18.967,18.967,0,0,0,14.7,3.451,9.726,9.726,0,0,0,8.621.815a8.356,8.356,0,0,0-6.2,2.669A9.328,9.328,0,0,0,0,9.878a9.084,9.084,0,0,0,3.195,6.9l1.781,1.761a.858.858,0,0,0,.122.143,1.534,1.534,0,0,0,.128.1l.061.06.012-.01a1,1,0,0,0,.58.17,1.128,1.128,0,0,0,.781-.323l1.054-1.113q1.33-1.4,2.664-2.8Q12.136,12.92,13.9,11.08l.069-.072-.475-.469-.157-.155-.157-.155-.751-.741-.03-.03L11.365,8.435a.442.442,0,0,1,.624-.624l.388.383.633.626.78.771.157.155.126.124.508.5.246.243,2.124,1.992-.409.454-1.976,2.194L12.185,17.9l-2.059,2.286c-.334.371-.671.74-1,1.114l-.014.016a1.162,1.162,0,0,0-.324.78,1.123,1.123,0,0,0,.324.781,1.1,1.1,0,0,0,1.561,0l.823-.914,1.976-2.194,2.381-2.644,2.058-2.286.651-.722.125.117.005.005.006.005a2.735,2.735,0,0,0,1.792.74A2.173,2.173,0,0,0,22,11.24c-1-1.052-2.953-3.2-4.02-4.389q.581-.6,1.163-1.191c.517-.526,1.025-1.067,1.567-1.566.189-.174.385-.339.586-.5a8.473,8.473,0,0,1,1.594-.94,7.1,7.1,0,0,1,1.5-.412,6.928,6.928,0,0,1,1.513,0,7.726,7.726,0,0,1,1.663.46,9.356,9.356,0,0,1,1.8,1.064,10.646,10.646,0,0,1,1.695,1.688,8.8,8.8,0,0,1,.989,1.681,7.95,7.95,0,0,1,.469,1.712,7.966,7.966,0,0,1,0,1.79,8.359,8.359,0,0,1-.5,1.828,8.45,8.45,0,0,1-.932,1.6,17.1,17.1,0,0,1-1.2,1.272l-1.307,1.318q-1.719,1.735-3.435,3.473l-3.741,3.79-3.083,3.126c-.487.494-.979.982-1.46,1.481l-.02.021a1.141,1.141,0,0,0-.323.78,1.123,1.123,0,0,0,.323.781,1.111,1.111,0,0,0,.781.323,1.143,1.143,0,0,0,.78-.323l.524-.532,1.4-1.418,2.019-2.047,2.36-2.391,2.445-2.476,2.269-2.295q.914-.924,1.83-1.847l.671-.674A10.935,10.935,0,0,0,33.1,15.039a9.549,9.549,0,0,0,1.035-1.947,8.253,8.253,0,0,0,.528-1.943,8.888,8.888,0,0,0,.062-2.358" transform="translate(0 0.001)" fill="#002860"/>
  </g>
</svg>
