<svg id="Group_6" data-name="Group 6" xmlns="http://www.w3.org/2000/svg" width="70" height="69.999" viewBox="0 0 70 69.999">
  <path id="Path_28" data-name="Path 28" d="M519.664,415.526a15.9,15.9,0,0,0-14.509-9.409H466.924A15.872,15.872,0,0,0,451.04,422v38.231a15.883,15.883,0,0,0,15.884,15.884h38.231a15.875,15.875,0,0,0,15.884-15.884V422A15.823,15.823,0,0,0,519.664,415.526ZM505.31,457.865a17.342,17.342,0,0,1-4.334,5.733,22.733,22.733,0,0,1-14.864,5.319,23.743,23.743,0,0,1-7.325-1.14,20.5,20.5,0,0,1-9.572-6.475,18.535,18.535,0,0,1-2.972-5.232,20.983,20.983,0,0,1-.983-4.56c-.1-1.114.629-1.621,1.633-1.128,3.8,1.864,10.34,5.076,21.558,10.577a1.287,1.287,0,0,0,1.533-.693,1.32,1.32,0,0,0-.428-1.607l-5.614-2.816c-.161-.081-.451-.222-.256-.611a.4.4,0,0,1,.623-.19l6.874,3.44c.506.254,1.283-.194,1.552-.692.278-.515.216-1.438-.3-1.7l-6.89-3.449a.455.455,0,0,1-.215-.649.418.418,0,0,1,.641-.178l6.7,3.339a1.262,1.262,0,0,0,1.581-.752,1.308,1.308,0,0,0-.325-1.657l-7.416-3.714a.34.34,0,0,1-.138-.508c.12-.239.283-.276.464-.185l5.419,2.675a1.259,1.259,0,0,0,1.5-.6,1.3,1.3,0,0,0-.322-1.662c-12.906-6.3-19.506-9.532-22.846-11.167a3.731,3.731,0,0,1-1.749-1.763,14.7,14.7,0,0,1-.054-12.535,15.844,15.844,0,0,1,3.015-4.337,18.564,18.564,0,0,1,9.119-5.094,22.739,22.739,0,0,1,11.275.37,18.788,18.788,0,0,1,8.843,5.337A15.066,15.066,0,0,1,504.96,429.6a1.193,1.193,0,0,1-.007.135,1.17,1.17,0,0,1-1.685.885c-3.9-1.894-9.874-4.792-18.978-9.214-.525-.249-1.273.234-1.507.77a1.259,1.259,0,0,0,.456,1.554l5.447,2.618c.182.086.254.238.14.479a.339.339,0,0,1-.485.2l-7.5-3.55c-.526-.249-1.259.234-1.5.765a1.263,1.263,0,0,0,.383,1.708l6.758,3.215a.418.418,0,0,1,.255.615.455.455,0,0,1-.643.231l-6.963-3.3c-.526-.249-1.29.271-1.524.807a1.374,1.374,0,0,0,.411,1.649l6.946,3.291a.4.4,0,0,1,.234.607c-.186.393-.476.252-.639.175l-5.678-2.685a1.32,1.32,0,0,0-1.529.654,1.286,1.286,0,0,0,.4,1.634c22.743,11,26.338,12.733,26.721,12.917.06.029.04.019,0,0a3.838,3.838,0,0,1,2.195,2.919q.116.818.151,1.648A16.36,16.36,0,0,1,505.31,457.865Z" transform="translate(-451.04 -406.117)" fill="#fff"/>
</svg>
