<svg id="Component_21_1" data-name="Component 21 – 1" xmlns="http://www.w3.org/2000/svg" xmlns:xlink="http://www.w3.org/1999/xlink" width="40" height="40" viewBox="0 0 40 40">
  <defs>
    <clipPath id="clip-path">
      <rect id="Rectangle_98" data-name="Rectangle 98" width="40" height="40" fill="#e24b97"/>
    </clipPath>
  </defs>
  <g id="Group_69" data-name="Group 69" clip-path="url(#clip-path)">
    <path id="Path_78" data-name="Path 78" d="M51.622,41.617a9.59,9.59,0,1,1-9.59-9.59,9.59,9.59,0,0,1,9.59,9.59" transform="translate(-22.032 -21.75)" fill="#e24b97"/>
    <path id="Path_79" data-name="Path 79" d="M59.772,7.678a1.209,1.209,0,0,1-1.209-1.209V1.209a1.209,1.209,0,0,1,2.417,0V6.469a1.209,1.209,0,0,1-1.209,1.209" transform="translate(-39.772 -0.001)" fill="#e24b97"/>
    <path id="Path_80" data-name="Path 80" d="M59.772,108.412a1.209,1.209,0,0,1-1.209-1.209v-5.259a1.209,1.209,0,0,1,2.417,0V107.2a1.208,1.208,0,0,1-1.209,1.209" transform="translate(-39.772 -68.412)" fill="#e24b97"/>
    <path id="Path_81" data-name="Path 81" d="M107.2,60.98h-5.259a1.209,1.209,0,0,1,0-2.417H107.2a1.209,1.209,0,0,1,0,2.417" transform="translate(-68.412 -39.772)" fill="#e24b97"/>
    <path id="Path_82" data-name="Path 82" d="M1.209,60.98H6.468a1.209,1.209,0,1,0,0-2.417H1.209a1.209,1.209,0,1,0,0,2.417" transform="translate(0 -39.772)" fill="#e24b97"/>
    <path id="Path_83" data-name="Path 83" d="M22.081,23.288a1.2,1.2,0,0,1-.854-.354l-3.719-3.719a1.208,1.208,0,0,1,1.709-1.709l3.719,3.719a1.209,1.209,0,0,1-.854,2.063" transform="translate(-11.649 -11.648)" fill="#e24b97"/>
    <path id="Path_84" data-name="Path 84" d="M93.31,94.519a1.2,1.2,0,0,1-.854-.354l-3.719-3.719a1.209,1.209,0,1,1,1.709-1.709l3.718,3.719a1.209,1.209,0,0,1-.854,2.063" transform="translate(-60.023 -60.023)" fill="#e24b97"/>
    <path id="Path_85" data-name="Path 85" d="M18.362,94.519a1.209,1.209,0,0,1-.854-2.063l3.719-3.719a1.208,1.208,0,1,1,1.709,1.709l-3.719,3.719a1.2,1.2,0,0,1-.854.354" transform="translate(-11.649 -60.023)" fill="#e24b97"/>
    <path id="Path_86" data-name="Path 86" d="M89.592,23.288a1.209,1.209,0,0,1-.854-2.063l3.718-3.719a1.209,1.209,0,0,1,1.709,1.709l-3.719,3.719a1.2,1.2,0,0,1-.854.354" transform="translate(-60.023 -11.648)" fill="#e24b97"/>
  </g>
</svg>
