<?xml version="1.0" encoding="utf-8"?>
<!-- Generator: Adobe Illustrator 28.0.0, SVG Export Plug-In . SVG Version: 6.00 Build 0)  -->
<svg version="1.1" id="Component_28_1" xmlns="http://www.w3.org/2000/svg" xmlns:xlink="http://www.w3.org/1999/xlink" x="0px"
	 y="0px" viewBox="0 0 40.3 29.7" style="enable-background:new 0 0 40.3 29.7;" xml:space="preserve">
<style type="text/css">
	.st0{clip-path:url(#SVGID_00000146473174942985367110000010440308667085977271_);}
	.st1{fill:#FFFFFF;}
	.st2{clip-path:url(#SVGID_00000066492303900424286780000003395543735012049564_);}
	.st3{clip-path:url(#SVGID_00000163769707723337032290000016954216931334424994_);}
</style>
<g id="Group_20">
	<g>
		<defs>
			<path id="SVGID_1_" d="M1.9,0C0.9,0,0,0.9,0,2c0,1,0.8,1.8,1.9,1.9h36.5c1.1,0,1.9-0.9,1.9-2c0-1-0.8-1.8-1.9-1.9H1.9z"/>
		</defs>
		<clipPath id="SVGID_00000174561164768821116760000007952737249005779349_">
			<use xlink:href="#SVGID_1_"  style="overflow:visible;"/>
		</clipPath>
		<g id="Group_19" style="clip-path:url(#SVGID_00000174561164768821116760000007952737249005779349_);">
			<rect id="Rectangle_35" class="st1" width="40.3" height="3.8"/>
		</g>
	</g>
</g>
<g id="Group_22" transform="translate(0 12.923)">
	<g>
		<defs>
			<path id="SVGID_00000112634102895587268750000006077657800735072679_" d="M1.9,0C0.9,0,0,0.9,0,2c0,1,0.8,1.8,1.9,1.9h26.5
				c1.1,0,1.9-0.9,1.9-2c0-1-0.8-1.8-1.9-1.9H1.9z"/>
		</defs>
		<clipPath id="SVGID_00000088829996894157051930000010007046380010765230_">
			<use xlink:href="#SVGID_00000112634102895587268750000006077657800735072679_"  style="overflow:visible;"/>
		</clipPath>
		<g id="Group_21" style="clip-path:url(#SVGID_00000088829996894157051930000010007046380010765230_);">
			<rect id="Rectangle_36" y="0" class="st1" width="30.3" height="3.8"/>
		</g>
	</g>
</g>
<g id="Group_24" transform="translate(0 25.847)">
	<g>
		<defs>
			<path id="SVGID_00000170995880451100044560000004943045760748341906_" d="M1.9,0C0.9,0,0,0.9,0,2c0,1,0.8,1.8,1.9,1.9h36.5
				c1.1,0,1.9-0.9,1.9-2c0-1-0.8-1.8-1.9-1.9H1.9z"/>
		</defs>
		<clipPath id="SVGID_00000075130000598601378960000013825248161883794572_">
			<use xlink:href="#SVGID_00000170995880451100044560000004943045760748341906_"  style="overflow:visible;"/>
		</clipPath>
		<g id="Group_23" style="clip-path:url(#SVGID_00000075130000598601378960000013825248161883794572_);">
			<rect id="Rectangle_37" y="0" class="st1" width="40.3" height="3.8"/>
		</g>
	</g>
</g>
</svg>
