<svg id="Component_28_1" data-name="Component 28 – 1" xmlns="http://www.w3.org/2000/svg" xmlns:xlink="http://www.w3.org/1999/xlink" width="40.335" height="29.664" viewBox="0 0 40.335 29.664">
  <defs>
    <clipPath id="clip-path">
      <path id="Path_44" data-name="Path 44" d="M1.907,0a1.909,1.909,0,0,0,0,3.817H38.428a1.909,1.909,0,0,0,0-3.817Z"/>
    </clipPath>
    <clipPath id="clip-path-2">
      <path id="Path_45" data-name="Path 45" d="M1.907,4.12a1.909,1.909,0,0,0,0,3.817h26.53a1.909,1.909,0,0,0,0-3.817Z" transform="translate(0 -4.12)"/>
    </clipPath>
    <clipPath id="clip-path-3">
      <path id="Path_46" data-name="Path 46" d="M1.907,8.24a1.909,1.909,0,0,0,0,3.817H38.428a1.909,1.909,0,0,0,0-3.817Z" transform="translate(0 -8.24)"/>
    </clipPath>
  </defs>
  <g id="Group_20" data-name="Group 20">
    <g id="Group_19" data-name="Group 19" clip-path="url(#clip-path)">
      <rect id="Rectangle_35" data-name="Rectangle 35" width="40.335" height="3.817" transform="translate(0 0)"/>
    </g>
  </g>
  <g id="Group_22" data-name="Group 22" transform="translate(0 12.923)">
    <g id="Group_21" data-name="Group 21" clip-path="url(#clip-path-2)">
      <rect id="Rectangle_36" data-name="Rectangle 36" width="30.345" height="3.817" transform="translate(0 0)"/>
    </g>
  </g>
  <g id="Group_24" data-name="Group 24" transform="translate(0 25.847)">
    <g id="Group_23" data-name="Group 23" clip-path="url(#clip-path-3)">
      <rect id="Rectangle_37" data-name="Rectangle 37" width="40.335" height="3.817" transform="translate(0 0)"/>
    </g>
  </g>
</svg>
