<?xml version="1.0" encoding="utf-8"?>
<!-- Generator: Adobe Illustrator 28.0.0, SVG Export Plug-In . SVG Version: 6.00 Build 0)  -->
<svg version="1.1" id="Layer_1" xmlns="http://www.w3.org/2000/svg" xmlns:xlink="http://www.w3.org/1999/xlink" x="0px" y="0px"
	 viewBox="0 0 20.9 27.4" style="enable-background:new 0 0 20.9 27.4;" xml:space="preserve">
<style type="text/css">
	.st0{clip-path:url(#SVGID_00000112617800810114072070000008707795115365083780_);}
	.st1{fill-rule:evenodd;clip-rule:evenodd;fill:#FFFFFF;}
</style>
<g id="Group_140" transform="translate(0 0)">
	<g>
		<defs>
			<rect id="SVGID_1_" width="20.9" height="27.4"/>
		</defs>
		<clipPath id="SVGID_00000087402834363994616770000013824986196132846470_">
			<use xlink:href="#SVGID_1_"  style="overflow:visible;"/>
		</clipPath>
		<g id="Group_139" style="clip-path:url(#SVGID_00000087402834363994616770000013824986196132846470_);">
			<path id="Path_170" class="st1" d="M9.9,9.9L9.9,9.9c-0.2,0.3-0.4,0.7-0.5,1.1c-0.7,2.4,0.3,4.9,2.5,6.2c0.4,0.2,0.7,0.4,1.1,0.5
				c0.4,0.1,0.9,0.2,1.4,0.2l2.8,8.2c0.2,0.5,0.6,1,1.2,1.1c0.3,0.1,0.7,0.1,1.1,0l0.3-0.1c0.5-0.2,1-0.6,1.1-1.2
				c0.1-0.3,0.1-0.7,0-1.1l-2.8-8.2c0.5-0.4,0.9-0.9,1.2-1.4c0.2-0.4,0.4-0.7,0.5-1.1c0.7-2.4-0.3-4.9-2.5-6.2
				c-0.3-0.2-0.7-0.4-1.1-0.5C13.7,6.7,11.2,7.8,9.9,9.9 M3.8,7.8h5.8c0.1,0,0.1,0,0.2,0.1C9.8,8,9.8,8,9.8,8.1V9
				c0,0.1,0,0.1-0.1,0.2c0,0.1-0.1,0.1-0.2,0.1H3.8c-0.1,0-0.1,0-0.2-0.1c0,0-0.1-0.1-0.1-0.2V8.1c0-0.1,0-0.1,0.1-0.2
				C3.7,7.9,3.7,7.8,3.8,7.8 M3.8,16.4h5.4c0.1,0,0.1,0,0.2,0.1c0,0,0.1,0.1,0.1,0.2v0.9c0,0.1,0,0.1-0.1,0.2
				c-0.1,0-0.1,0.1-0.2,0.1H3.8c-0.1,0-0.1,0-0.2-0.1c0-0.1-0.1-0.1-0.1-0.2v-0.9c0-0.1,0-0.1,0.1-0.2C3.7,16.4,3.7,16.4,3.8,16.4
				 M3.8,13.6h4.7c0.1,0,0.1,0,0.2,0.1c0.1,0.1,0.1,0.1,0.1,0.2v0.9c0,0.1,0,0.1-0.1,0.2c0,0-0.1,0.1-0.2,0.1H3.8
				c-0.1,0-0.1,0-0.2-0.1c0-0.1-0.1-0.1-0.1-0.2v-0.9C3.5,13.7,3.6,13.6,3.8,13.6C3.8,13.6,3.8,13.6,3.8,13.6 M3.8,10.7h4.7
				c0.1,0,0.1,0,0.2,0.1c0.1,0,0.1,0.1,0.1,0.2v0.9c0,0.1,0,0.1-0.1,0.2c0,0.1-0.1,0.1-0.2,0.1H3.8c-0.1,0-0.1,0-0.2-0.1
				c0,0-0.1-0.1-0.1-0.2V11c0-0.1,0-0.1,0.1-0.2C3.7,10.7,3.7,10.7,3.8,10.7 M10.7,11.4L10.7,11.4c0.6-2.1,2.8-3.3,4.9-2.7
				s3.3,2.8,2.7,4.9c-0.6,2.1-2.8,3.3-4.9,2.7C11.3,15.7,10.1,13.5,10.7,11.4C10.7,11.4,10.7,11.4,10.7,11.4 M6.8,3.7L6.8,3.7
				c-0.3,0-0.6,0.2-0.6,0.4v0.8h7.9V4.1c0-0.2-0.3-0.4-0.6-0.4H12V0.6c-1-0.7-2.4-0.7-3.4,0v3.2H6.8z M20.6,2.7L20.6,2.7v14.9l0,4.1
				c0,0.2,0,0.4-0.1,0.5l-1.8-5.5c0.4-0.4,0.8-0.9,1.1-1.4c0.2-0.4,0.4-0.8,0.5-1.2l0,0c0.6-2.1,0-4.4-1.6-5.9V4.3
				c0-0.1,0-0.2-0.1-0.3c-0.1-0.1-0.2-0.2-0.4-0.1h-3.7c-0.2-0.2-0.4-0.2-0.6-0.2h-1.5V1.7h7.4c0.3,0,0.5,0.1,0.7,0.3
				C20.4,2.2,20.6,2.5,20.6,2.7 M15.6,22.8H1c-0.3,0-0.5-0.1-0.7-0.3C0.1,22.3,0,22,0,21.7l0-4.6V2.7C0,2.5,0.1,2.2,0.3,2
				c0.2-0.2,0.5-0.3,0.7-0.3h7.3v1.8H6.8c-0.2,0-0.4,0.1-0.6,0.2H2.5c-0.1,0-0.3,0-0.3,0.1C2.1,4,2.1,4.1,2.1,4.3v13.4l0,2.6
				c0,0.1,0.1,0.3,0.1,0.4c0.1,0.1,0.2,0.1,0.4,0.1h12.4L15.6,22.8z"/>
		</g>
	</g>
</g>
</svg>
