<svg xmlns="http://www.w3.org/2000/svg" xmlns:xlink="http://www.w3.org/1999/xlink" width="20.937" height="27.357" viewBox="0 0 20.937 27.357">
  <defs>
    <clipPath id="clip-path">
      <rect id="Rectangle_153" data-name="Rectangle 153" width="20.937" height="27.357" transform="translate(0 0)" fill="none"/>
    </clipPath>
  </defs>
  <g id="Group_140" data-name="Group 140" transform="translate(0 0)">
    <g id="Group_139" data-name="Group 139" clip-path="url(#clip-path)">
      <path id="Path_170" data-name="Path 170" d="M9.935,9.941h0a4.231,4.231,0,0,0-.5,1.123,5.368,5.368,0,0,0,2.5,6.178,5.577,5.577,0,0,0,1.121.508,5.414,5.414,0,0,0,1.356.2l2.772,8.2a1.842,1.842,0,0,0,1.184,1.121,1.5,1.5,0,0,0,1.07-.031l.3-.085a1.774,1.774,0,0,0,1.122-1.174,1.729,1.729,0,0,0-.021-1.069l-2.781-8.231a4.874,4.874,0,0,0,1.175-1.429,4.932,4.932,0,0,0,.5-1.121,5.4,5.4,0,0,0-2.495-6.19,4.426,4.426,0,0,0-1.121-.5,5.349,5.349,0,0,0-6.19,2.5m-6.124-2.1H9.564a.22.22,0,0,1,.18.086.238.238,0,0,1,.084.179v.909a.247.247,0,0,1-.084.181.213.213,0,0,1-.18.074H3.811a.245.245,0,0,1-.191-.074.273.273,0,0,1-.076-.181V8.1a.262.262,0,0,1,.076-.179.252.252,0,0,1,.191-.086m0,8.578H9.183a.267.267,0,0,1,.192.089.249.249,0,0,1,.074.179v.9a.291.291,0,0,1-.074.192.267.267,0,0,1-.192.073H3.811a.255.255,0,0,1-.191-.073.283.283,0,0,1-.076-.192v-.9A.242.242,0,0,1,3.62,16.5a.255.255,0,0,1,.191-.089m0-2.854H8.518a.268.268,0,0,1,.18.072.279.279,0,0,1,.085.193v.9a.274.274,0,0,1-.085.19.259.259,0,0,1-.18.072H3.811a.3.3,0,0,1-.191-.072.3.3,0,0,1-.076-.19v-.9a.254.254,0,0,1,.267-.265m0-2.858H8.518a.253.253,0,0,1,.18.076.266.266,0,0,1,.085.189v.9a.225.225,0,0,1-.085.179.234.234,0,0,1-.18.084H3.811a.265.265,0,0,1-.191-.084.246.246,0,0,1-.076-.179v-.9a.293.293,0,0,1,.076-.189.288.288,0,0,1,.191-.076m6.887.7h0a3.972,3.972,0,1,1,2.729,4.919A3.955,3.955,0,0,1,10.7,11.4M6.844,3.713h0c-.307,0-.559.156-.559.389v.75h7.924V4.1c0-.233-.252-.389-.561-.389h-1.68V.558A3.04,3.04,0,0,0,8.537.527V3.713Zm13.714-.964h0V17.633l-.032,4.107a1.1,1.1,0,0,1-.139.54L18.537,16.8A5.578,5.578,0,0,0,19.6,15.445a4.723,4.723,0,0,0,.508-1.207l.022-.022A5.784,5.784,0,0,0,18.5,8.365V4.27a.444.444,0,0,0-.139-.336A.462.462,0,0,0,18,3.785H14.264a.868.868,0,0,0-.616-.243H12.135v-1.8H19.52a.981.981,0,0,1,.731.277,1.062,1.062,0,0,1,.307.73M15.615,22.775H1.037a.935.935,0,0,1-.729-.307A.972.972,0,0,1,0,21.74l.022-4.6V2.749a1.07,1.07,0,0,1,.306-.73.977.977,0,0,1,.729-.277H8.369v1.8H6.844a.837.837,0,0,0-.581.243H2.55a.416.416,0,0,0-.339.149.451.451,0,0,0-.138.336V17.633l-.03,2.594a.59.59,0,0,0,.147.36.58.58,0,0,0,.36.14H14.906Z" fill-rule="evenodd"/>
    </g>
  </g>
</svg>
