<svg id="Group_54" data-name="Group 54" xmlns="http://www.w3.org/2000/svg" xmlns:xlink="http://www.w3.org/1999/xlink" width="33.997" height="33.996" viewBox="0 0 33.997 33.996">
  <defs>
    <clipPath id="clip-path">
      <rect id="Rectangle_91" data-name="Rectangle 91" width="33.997" height="33.996" fill="#fff"/>
    </clipPath>
  </defs>
  <g id="Component_2_1" data-name="Component 2 – 1">
    <g id="Group_53" data-name="Group 53" clip-path="url(#clip-path)">
      <path id="Path_74" data-name="Path 74" d="M34,17a3.812,3.812,0,0,0-3.984-3.585H24.568a4,4,0,0,1-3.984-3.984V3.984A3.812,3.812,0,0,0,17,0a3.812,3.812,0,0,0-3.586,3.984V9.428a4,4,0,0,1-3.983,3.984H3.983A3.812,3.812,0,0,0,0,17a3.812,3.812,0,0,0,3.983,3.585H9.429a4,4,0,0,1,3.983,3.984v5.445A3.812,3.812,0,0,0,17,34a3.812,3.812,0,0,0,3.585-3.984V24.567a4,4,0,0,1,3.984-3.984h5.445A3.812,3.812,0,0,0,34,17" transform="translate(0 0)" fill="#fff"/>
    </g>
  </g>
</svg>
