<?xml version="1.0" encoding="utf-8"?>
<!-- Generator: Adobe Illustrator 28.0.0, SVG Export Plug-In . SVG Version: 6.00 Build 0)  -->
<svg version="1.1" id="Component_27_1" xmlns="http://www.w3.org/2000/svg" xmlns:xlink="http://www.w3.org/1999/xlink" x="0px"
	 y="0px" viewBox="0 0 35.3 30" style="enable-background:new 0 0 35.3 30;" xml:space="preserve">
<style type="text/css">
	.st0{clip-path:url(#SVGID_00000036952525115087738140000007923253097454444161_);}
	.st1{fill:#FFFFFF;}
</style>
<g>
	<defs>
		<rect id="SVGID_1_" width="35.3" height="30"/>
	</defs>
	<clipPath id="SVGID_00000085934273160855840920000003020680298328703363_">
		<use xlink:href="#SVGID_1_"  style="overflow:visible;"/>
	</clipPath>
	<g id="Group_77" style="clip-path:url(#SVGID_00000085934273160855840920000003020680298328703363_);">
		<path id="Path_90" class="st1" d="M8,20.7c5.7-8.5,19.3-7.9,19.3-7.9v4.5l8-8.6l-8-8.6v4.9C8.6,4.9,8,20.7,8,20.7"/>
		<path id="Path_91" class="st1" d="M27.4,25.8C27.4,25.8,27.4,25.8,27.4,25.8l-23.1,0c0,0,0,0,0,0V9.1c0,0,0,0,0,0h7.1
			c1.2-1.3,2.7-2.4,4.2-3.2c0.7-0.4,1.4-0.7,2.1-1H4.2C1.9,4.9,0,6.8,0,9.1v16.6C0,28.1,1.9,30,4.2,30h23.1c2.3,0,4.2-1.9,4.2-4.2
			V15.2l-4.2,4.6L27.4,25.8z"/>
	</g>
</g>
</svg>
