<svg id="Component_27_1" data-name="Component 27 – 1" xmlns="http://www.w3.org/2000/svg" xmlns:xlink="http://www.w3.org/1999/xlink" width="35.339" height="30" viewBox="0 0 35.339 30">
  <defs>
    <clipPath id="clip-path">
      <rect id="Rectangle_102" data-name="Rectangle 102" width="35.338" height="30"/>
    </clipPath>
  </defs>
  <g id="Group_77" data-name="Group 77" clip-path="url(#clip-path)">
    <path id="Path_90" data-name="Path 90" d="M144.4,20.675c5.736-8.5,19.323-7.9,19.323-7.9v4.487l7.969-8.629L163.72,0V4.87c-18.777,0-19.323,15.805-19.323,15.805" transform="translate(-136.35)"/>
    <path id="Path_91" data-name="Path 91" d="M27.38,108.276a.024.024,0,0,1-.006.007H4.237a.015.015,0,0,1-.007-.01V91.62a.015.015,0,0,1,.01-.007h7.148a17.393,17.393,0,0,1,4.224-3.243,19.071,19.071,0,0,1,2.093-.987H4.241A4.245,4.245,0,0,0,0,91.624v16.649a4.245,4.245,0,0,0,4.241,4.241H27.37a4.245,4.245,0,0,0,4.241-4.241v-10.6l-4.23,4.581Z" transform="translate(0 -82.514)"/>
  </g>
</svg>
