<svg xmlns="http://www.w3.org/2000/svg" xmlns:xlink="http://www.w3.org/1999/xlink" width="166" height="154" viewBox="0 0 166 154">
  <defs>
    <clipPath id="clip-path">
      <rect id="Rectangle_78" data-name="Rectangle 78" width="166" height="129.081" transform="translate(0 -17)" fill="none" stroke="#707070" stroke-width="1"/>
    </clipPath>
  </defs>
  <g id="Group_43" data-name="Group 43" transform="translate(-26 -357)">
    <g id="Rectangle_76" data-name="Rectangle 76" transform="translate(26 357)" fill="#f0f0f0" stroke="#707070" stroke-width="1">
      <rect width="166" height="154" rx="10" stroke="none"/>
      <rect x="0.5" y="0.5" width="165" height="153" rx="9.5" fill="none"/>
    </g>
    <g id="Group_42" data-name="Group 42" transform="translate(26 398.919)" clip-path="url(#clip-path)">
      <path id="Path_60" data-name="Path 60" d="M36.131,15.953A15.955,15.955,0,1,0,20.184,31.905,15.952,15.952,0,0,0,36.131,15.953" transform="translate(21.01 -9.002)" fill="#fff" stroke="#707070" stroke-width="1"/>
      <path id="Path_61" data-name="Path 61" d="M166,56.276V76.082a9.987,9.987,0,0,1-9.986,9.98H10.041a8.149,8.149,0,0,1-1.035-.055,8.787,8.787,0,0,1-.991-.149A10.029,10.029,0,0,1,.2,78.053,9.893,9.893,0,0,1,0,76.022v-2.34L32.918,37.048a4.088,4.088,0,0,1,5.984-.11L63.568,62.453a4.1,4.1,0,0,0,5.956-.083L120.234,7.1a4.1,4.1,0,0,1,6.215.2Z" transform="translate(0 26.017)" fill="#fff" stroke="#707070" stroke-width="1"/>
    </g>
    <g id="Rectangle_168" data-name="Rectangle 168" transform="translate(26 357)" fill="none" stroke="#707070" stroke-width="1">
      <rect width="166" height="154" rx="10" stroke="none"/>
      <rect x="0.5" y="0.5" width="165" height="153" rx="9.5" fill="none"/>
    </g>
  </g>
</svg>
