<svg id="Component_17_1" data-name="Component 17 – 1" xmlns="http://www.w3.org/2000/svg" width="59.614" height="89.421" viewBox="0 0 59.614 89.421">
  <path id="Path_8" data-name="Path 8" d="M3965.115,490.117a21.688,21.688,0,0,0-21.664,21.663v7h9.172v-7a12.492,12.492,0,0,1,24.984,0v7h9.171v-7A21.687,21.687,0,0,0,3965.115,490.117Z" transform="translate(-3935.308 -490.117)" fill="#e24b97"/>
  <path id="Path_9" data-name="Path 9" d="M3978.163,575.924H3927.72a4.586,4.586,0,0,0-4.586,4.585v45.857a4.586,4.586,0,0,0,4.586,4.586h50.443a4.586,4.586,0,0,0,4.586-4.586V580.509A4.586,4.586,0,0,0,3978.163,575.924Zm-19.26,41.271H3946.98a2.294,2.294,0,0,1-2.08-3.258l3.747-8.07a2.361,2.361,0,0,0-.69-2.788,7.555,7.555,0,0,1-2.658-5.755c0-5.723,6.291-9.977,12.334-6.224a4.815,4.815,0,0,1,1.552,1.563c2.488,4.067,1.4,8.136-1.268,10.424a2.35,2.35,0,0,0-.683,2.778l3.747,8.073A2.292,2.292,0,0,1,3958.9,617.195Z" transform="translate(-3923.134 -541.531)" fill="#e24b97"/>
</svg>
