<svg width="20" height="20" viewBox="0 0 20 20" fill="none" xmlns="http://www.w3.org/2000/svg">
<path d="M19.5308 18.4708C19.6045 18.5395 19.6636 18.6223 19.7046 18.7143C19.7456 18.8063 19.7676 18.9056 19.7694 19.0063C19.7712 19.107 19.7527 19.207 19.7149 19.3004C19.6772 19.3938 19.6211 19.4786 19.5499 19.5499C19.4786 19.6211 19.3938 19.6772 19.3004 19.7149C19.207 19.7527 19.107 19.7712 19.0063 19.7694C18.9056 19.7676 18.8063 19.7456 18.7143 19.7046C18.6223 19.6636 18.5395 19.6045 18.4708 19.5308L10.0008 11.0621L1.53082 19.5308C1.38865 19.6633 1.2006 19.7354 1.0063 19.732C0.811999 19.7286 0.626614 19.6499 0.489201 19.5124C0.351788 19.375 0.273076 19.1896 0.269648 18.9953C0.26622 18.801 0.338343 18.613 0.470823 18.4708L8.93957 10.0008L0.470823 1.53082C0.338343 1.38865 0.26622 1.2006 0.269648 1.0063C0.273076 0.811999 0.351788 0.626614 0.489201 0.489201C0.626614 0.351788 0.811999 0.273076 1.0063 0.269648C1.2006 0.26622 1.38865 0.338343 1.53082 0.470823L10.0008 8.93957L18.4708 0.470823C18.613 0.338343 18.801 0.26622 18.9953 0.269648C19.1896 0.273076 19.375 0.351788 19.5124 0.489201C19.6499 0.626614 19.7286 0.811999 19.732 1.0063C19.7354 1.2006 19.6633 1.38865 19.5308 1.53082L11.0621 10.0008L19.5308 18.4708Z" fill="#626576"/>
</svg>
