<svg width="20" height="20" viewBox="0 0 20 20" fill="none" xmlns="http://www.w3.org/2000/svg">
<path d="M3.21946 2.15383L9.99746 8.92683L16.7035 2.22183C17.1605 1.81483 17.6335 2.05783 17.8225 2.26183C17.9437 2.40957 18.0062 2.5968 17.9981 2.78774C17.99 2.97867 17.9118 3.15992 17.7785 3.29683L11.0715 10.0008L17.7785 16.7028C18.0765 16.9528 18.0765 17.4428 17.8375 17.7168C17.5975 17.9898 17.1575 18.1478 16.7425 17.8238L9.99746 11.0748L3.24446 17.8268C2.94846 18.0918 2.46046 18.0378 2.21946 17.7748C1.97746 17.5108 1.88546 17.0548 2.19446 16.7328L8.92347 10.0008L2.22246 3.29683C1.97746 3.02683 1.89246 2.53283 2.22246 2.22183C2.55246 1.91083 3.04446 1.95383 3.21946 2.15383Z" fill="#A3A5AE"/>
</svg>
