<svg width="20" height="20" viewBox="0 0 20 20" fill="none" xmlns="http://www.w3.org/2000/svg">
<path d="M19.5269 18.2198C19.6006 18.2885 19.6597 18.3713 19.7007 18.4633C19.7417 18.5553 19.7637 18.6546 19.7655 18.7553C19.7673 18.856 19.7488 18.9561 19.711 19.0494C19.6733 19.1428 19.6172 19.2277 19.546 19.2989C19.4747 19.3701 19.3899 19.4262 19.2965 19.464C19.2031 19.5017 19.1031 19.5202 19.0024 19.5184C18.9017 19.5167 18.8024 19.4946 18.7104 19.4536C18.6184 19.4126 18.5356 19.3535 18.4669 19.2798L9.99692 10.8111L1.52692 19.2798C1.38474 19.4123 1.1967 19.4844 1.00239 19.481C0.808093 19.4776 0.622708 19.3989 0.485295 19.2615C0.347882 19.1241 0.26917 18.9387 0.265742 18.7444C0.262314 18.5501 0.334437 18.362 0.466917 18.2198L8.93567 9.74985L0.466917 1.27985C0.334437 1.13767 0.262314 0.949625 0.265742 0.755324C0.26917 0.561023 0.347882 0.375638 0.485295 0.238225C0.622708 0.100812 0.808093 0.0220998 1.00239 0.0186715C1.1967 0.0152433 1.38474 0.0873663 1.52692 0.219846L9.99692 8.6886L18.4669 0.219846C18.6091 0.0873663 18.7971 0.0152433 18.9914 0.0186715C19.1857 0.0220998 19.3711 0.100812 19.5085 0.238225C19.646 0.375638 19.7247 0.561023 19.7281 0.755324C19.7315 0.949625 19.6594 1.13767 19.5269 1.27985L11.0582 9.74985L19.5269 18.2198Z" fill="#626576"/>
</svg>
