<svg width="32" height="33" viewBox="0 0 32 33" fill="none" xmlns="http://www.w3.org/2000/svg">
<rect y="0.800781" width="32" height="32" rx="16" fill="#F4F5FA"/>
<path d="M15.7617 6.71875V11.4185C15.7626 11.9938 15.9928 12.5451 16.4017 12.9516C16.8106 13.358 17.3649 13.5863 17.9427 13.5863H22.6293" fill="#0C7DCC"/>
<path fill-rule="evenodd" clip-rule="evenodd" d="M22.9537 15.2021V12.7915L16.8809 6.71875H11.4047C10.5789 6.71875 9.78684 7.04661 9.20262 7.63029C8.61841 8.21396 8.28983 9.00569 8.28906 9.83151V21.2853C8.28982 22.1331 8.62673 22.946 9.22592 23.5457C9.8251 24.1454 10.6377 24.4831 11.4854 24.4846H17.4467V23.3778H11.4912C10.939 23.3771 10.4097 23.1572 10.0196 22.7665C9.6294 22.3757 9.4102 21.8462 9.4102 21.294V9.83151C9.41097 9.30152 9.62209 8.7935 9.99713 8.419C10.3722 8.04451 10.8805 7.83416 11.4105 7.83416H16.4197L21.8411 13.2527V15.2021H22.9537Z" fill="#263A92"/>
<path fill-rule="evenodd" clip-rule="evenodd" d="M22.6654 16.9378C22.1971 16.9378 21.8174 17.3174 21.8174 17.7857V23.0794C21.8174 23.4085 21.5507 23.6753 21.2216 23.6753C20.8925 23.6753 20.6258 23.4085 20.6258 23.0794V17.7857C20.6258 16.6592 21.5389 15.7461 22.6654 15.7461C23.7918 15.7461 24.7049 16.6592 24.7049 17.7857V23.0794C24.7049 25.0032 23.1454 26.5628 21.2216 26.5628C19.2978 26.5628 17.7383 25.0032 17.7383 23.0794V19.2294C17.7383 18.9004 18.005 18.6336 18.3341 18.6336C18.6632 18.6336 18.9299 18.9004 18.9299 19.2294V23.0794C18.9299 24.3451 19.956 25.3711 21.2216 25.3711C22.4873 25.3711 23.5133 24.3451 23.5133 23.0794V17.7857C23.5133 17.3174 23.1337 16.9378 22.6654 16.9378Z" fill="#0C7DCC"/>
</svg>
