<svg width="21" height="21" viewBox="0 0 21 21" fill="none" xmlns="http://www.w3.org/2000/svg">
<path d="M16.3376 5.6846C15.5858 4.93412 14.6932 4.33946 13.7111 3.93474C12.7289 3.53003 11.6765 3.32323 10.6143 3.3262C10.5952 3.3262 10.5759 3.32628 10.5568 3.32639C9.48509 3.3189 8.42245 3.52352 7.43013 3.92847C6.4378 4.33342 5.5354 4.9307 4.77489 5.6859C4.01439 6.4411 3.41081 7.33931 2.99893 8.32878C2.58705 9.31825 2.375 10.3794 2.375 11.4512V15.8262C2.37557 16.3233 2.5733 16.7999 2.9248 17.1514C3.27631 17.5029 3.75289 17.7006 4.25 17.7012H5.5C5.99711 17.7006 6.47369 17.5029 6.8252 17.1514C7.17671 16.7999 7.37443 16.3233 7.375 15.8262V12.7012C7.37443 12.2041 7.17671 11.7275 6.8252 11.376C6.47369 11.0245 5.99711 10.8268 5.5 10.8262H3.65277C3.80986 9.10918 4.60624 7.51383 5.8841 6.35628C7.16196 5.19874 8.82804 4.56348 10.5522 4.57639C10.5554 4.57643 10.5583 4.57643 10.5615 4.57639C12.2857 4.56343 13.9518 5.19866 15.2297 6.35622C16.5075 7.51377 17.3039 9.10916 17.461 10.8262H15.6138C15.1166 10.8268 14.6401 11.0245 14.2886 11.376C13.9371 11.7275 13.7393 12.2041 13.7388 12.7012V15.8262C13.7393 16.3233 13.9371 16.7999 14.2886 17.1514C14.6401 17.5029 15.1166 17.7006 15.6138 17.7012H16.8638C17.3609 17.7006 17.8374 17.5029 18.189 17.1514C18.5405 16.7999 18.7382 16.3233 18.7388 15.8262V11.4512C18.7419 10.3787 18.5311 9.31626 18.1188 8.32612C17.7065 7.33598 17.101 6.43797 16.3376 5.6846Z" fill="#2BA4FA"/>
</svg>
