<svg width="21" height="21" viewBox="0 0 21 21" fill="none" xmlns="http://www.w3.org/2000/svg">
<path d="M3 7.49219L9.575 11.8755C9.84888 12.0583 10.1708 12.1558 10.5 12.1558C10.8292 12.1558 11.1511 12.0583 11.425 11.8755L18 7.49219M4.66667 16.6589H16.3333C16.7754 16.6589 17.1993 16.4833 17.5118 16.1707C17.8244 15.8581 18 15.4342 18 14.9922V6.65885C18 6.21683 17.8244 5.7929 17.5118 5.48034C17.1993 5.16778 16.7754 4.99219 16.3333 4.99219H4.66667C4.22464 4.99219 3.80072 5.16778 3.48816 5.48034C3.17559 5.7929 3 6.21683 3 6.65885V14.9922C3 15.4342 3.17559 15.8581 3.48816 16.1707C3.80072 16.4833 4.22464 16.6589 4.66667 16.6589Z" stroke="#2BA4FA" stroke-width="1.5" stroke-linecap="round" stroke-linejoin="round"/>
</svg>
