<svg width="24" height="24" viewBox="0 0 24 24" fill="none" xmlns="http://www.w3.org/2000/svg">
<g clip-path="url(#clip0_532_162282)">
<path d="M4.80221 13.412C4.87369 13.7869 5.18288 14.0835 5.55619 14.1514C5.95083 14.2232 6.35982 14.0239 6.54783 13.6702C6.729 13.3293 6.68054 12.9015 6.4261 12.6108C6.16472 12.3121 5.72893 12.2111 5.36232 12.3629C4.95525 12.5315 4.71432 12.9791 4.80221 13.412Z" fill="#263A92"/>
<path d="M9.0659 13.4121C9.14347 13.7868 9.4424 14.0829 9.81988 14.1515C10.2033 14.2212 10.603 14.0351 10.7967 13.6972C10.9943 13.3523 10.9518 12.9106 10.69 12.6108C10.4292 12.3121 9.99261 12.211 9.62652 12.363C9.21946 12.5321 8.97786 12.9786 9.0659 13.4121Z" fill="#263A92"/>
<path d="M13.3308 13.4122C13.4093 13.7931 13.7181 14.0931 14.1032 14.1548C14.4871 14.2162 14.8814 14.0243 15.0692 13.684C15.258 13.3417 15.2138 12.9055 14.9551 12.611C14.6969 12.317 14.2696 12.2131 13.9055 12.3574C13.4863 12.5235 13.248 12.9715 13.3308 13.4122Z" fill="#263A92"/>
<path d="M23.0623 9.6128C23.58 9.6128 23.9998 9.19308 23.9998 8.67534L24 3.97734C24 1.86178 22.282 0.140625 20.1704 0.140625H7.8592C5.74753 0.140625 4.02956 1.86178 4.02956 3.97734V4.58611H3.82969C1.71797 4.58611 0 6.30726 0 8.42283V17.7249C0 19.8405 1.71797 21.5617 3.82964 21.5617C4.34756 21.5617 4.76897 21.9851 4.76897 22.5056V22.9189C4.76897 23.2496 4.9432 23.5558 5.22745 23.7247C5.37492 23.8124 5.54058 23.8564 5.70647 23.8564C5.86045 23.8564 6.01463 23.8185 6.1545 23.7424L9.95362 21.6755C10.0905 21.601 10.2452 21.5616 10.4009 21.5616H16.1408C18.2525 21.5616 19.9704 19.8405 19.9704 17.7249V17.1162H20.1704C21.1746 17.1162 22.1236 16.7295 22.8428 16.0275C23.5598 15.3276 23.9703 14.3906 23.9985 13.3891C24.013 12.8716 23.6053 12.4402 23.0877 12.4256C23.0787 12.4254 23.0698 12.4252 23.0608 12.4252C22.5553 12.4252 22.1385 12.8278 22.1242 13.3364C22.0941 14.4045 21.2359 15.2412 20.1704 15.2412H19.9704V8.42283C19.9704 6.30726 18.2525 4.58611 16.1408 4.58611H5.90452V3.97734C5.90452 2.89566 6.78136 2.01562 7.85916 2.01562H20.1703C21.2481 2.01562 22.125 2.89561 22.125 3.9773L22.1248 8.6753C22.1248 9.19303 22.5445 9.6128 23.0623 9.6128ZM18.0954 8.42283V17.7249C18.0954 18.8066 17.2186 19.6867 16.1408 19.6867H10.4009C9.93314 19.6867 9.46866 19.8048 9.05761 20.0285L6.4403 21.4524C6.02297 20.4182 5.01005 19.6867 3.82969 19.6867C2.75184 19.6867 1.875 18.8066 1.875 17.7249V8.42283C1.875 7.34114 2.75184 6.46111 3.82964 6.46111H16.1408C17.2186 6.46111 18.0954 7.34114 18.0954 8.42283Z" fill="#263A92"/>
</g>
<defs>
<clipPath id="clip0_532_162282">
<rect width="24" height="24" fill="white"/>
</clipPath>
</defs>
</svg>
