<svg width="20" height="20" viewBox="0 0 20 20" fill="none" xmlns="http://www.w3.org/2000/svg">
<path fill-rule="evenodd" clip-rule="evenodd" d="M10.0007 19.1673C15.0633 19.1673 19.1673 15.0633 19.1673 10.0007C19.1673 4.93804 15.0633 0.833984 10.0007 0.833984C4.93804 0.833984 0.833984 4.93804 0.833984 10.0007C0.833984 15.0633 4.93804 19.1673 10.0007 19.1673ZM7.6197 6.42922C7.29096 6.10048 6.75796 6.10048 6.42922 6.42922C6.10048 6.75796 6.10048 7.29096 6.42922 7.6197L8.81027 10.0007L6.42941 12.3816C6.10067 12.7103 6.10067 13.2433 6.42941 13.5721C6.75815 13.9008 7.29114 13.9008 7.61988 13.5721L10.0007 11.1912L12.3816 13.5721C12.7103 13.9008 13.2433 13.9008 13.5721 13.5721C13.9008 13.2433 13.9008 12.7103 13.5721 12.3816L11.1912 10.0007L13.5723 7.6197C13.901 7.29096 13.901 6.75796 13.5723 6.42922C13.2435 6.10048 12.7105 6.10048 12.3818 6.42922L10.0007 8.81027L7.6197 6.42922Z" fill="#A3A5AE"/>
</svg>
