<svg width="20" height="20" viewBox="0 0 20 20" fill="none" xmlns="http://www.w3.org/2000/svg">
<g clip-path="url(#clip0_533_163235)">
<path d="M10 18.0002L9.528 18.4722C9.58993 18.5342 9.6635 18.5835 9.74449 18.6171C9.82548 18.6507 9.91231 18.668 10 18.668C10.0877 18.668 10.1745 18.6507 10.2555 18.6171C10.3365 18.5835 10.4101 18.5342 10.472 18.4722L10 18.0002ZM10 4.66683L9.528 5.13883C9.58993 5.20091 9.6635 5.25017 9.74449 5.28378C9.82548 5.31739 9.91231 5.33469 10 5.33469C10.0877 5.33469 10.1745 5.31739 10.2555 5.28378C10.3365 5.25017 10.4101 5.20091 10.472 5.13883L10 4.66683ZM10.472 17.5282L2.51867 9.57616L1.576 10.5188L9.528 18.4722L10.472 17.5282ZM17.4813 9.57616L9.528 17.5282L10.472 18.4722L18.424 10.5188L17.4813 9.57616ZM8.24267 3.85216L9.528 5.13883L10.472 4.19483L9.18533 2.9095L8.24267 3.85216ZM10.472 5.13883L11.7573 3.85216L10.8147 2.9095L9.528 4.19483L10.472 5.13883ZM14.6187 1.3335C13.192 1.3335 11.824 1.90016 10.8147 2.9095L11.7573 3.85216C12.5164 3.0935 13.5455 2.66717 14.6187 2.66683V1.3335ZM18.6667 6.71483C18.6667 7.78816 18.24 8.8175 17.48 9.57616L18.424 10.5188C19.4328 9.5099 19.9997 8.14162 20 6.71483H18.6667ZM20 6.71483C20 5.28761 19.433 3.91885 18.4238 2.90965C17.4146 1.90046 16.0459 1.3335 14.6187 1.3335V2.66683C15.6923 2.66683 16.7219 3.09331 17.481 3.85246C18.2402 4.61161 18.6667 5.64123 18.6667 6.71483H20ZM5.38133 2.66683C6.45467 2.66683 7.484 3.0935 8.24267 3.8535L9.18533 2.9095C8.1764 1.90065 6.80812 1.33377 5.38133 1.3335V2.66683ZM1.33333 6.71483C1.33333 5.64123 1.75982 4.61161 2.51897 3.85246C3.27811 3.09331 4.30774 2.66683 5.38133 2.66683V1.3335C3.95411 1.3335 2.58535 1.90046 1.57616 2.90965C0.56696 3.91885 0 5.28761 0 6.71483H1.33333ZM2.51867 9.57616C2.14265 9.20052 1.84565 8.75449 1.64204 8.26354C1.43843 7.77258 1.33353 7.24633 1.33333 6.71483H0C0 8.1415 0.566667 9.50949 1.576 10.5188L2.51867 9.57616Z" fill="#FF0000"/>
<path d="M7.5 2.5L9.5 4.5L10.5 5L12.5 3H13.5L15 2.5L17 3L18.5 4.5L19 6.5L18.5 9.5L10 17.5L1.5 9L1 7L1.5 4.5L3.5 2.5L5 2L7.5 2.5Z" fill="#FF0000" stroke="#FF0000"/>
</g>
<defs>
<clipPath id="clip0_533_163235">
<rect width="20" height="20" fill="white"/>
</clipPath>
</defs>
</svg>
