<svg width="20" height="18" viewBox="0 0 20 18" fill="none" xmlns="http://www.w3.org/2000/svg">
<path d="M10 17.0002L9.528 17.4722C9.58993 17.5342 9.6635 17.5835 9.74449 17.6171C9.82548 17.6507 9.91231 17.668 10 17.668C10.0877 17.668 10.1745 17.6507 10.2555 17.6171C10.3365 17.5835 10.4101 17.5342 10.472 17.4722L10 17.0002ZM10 3.66683L9.528 4.13883C9.58993 4.20091 9.6635 4.25017 9.74449 4.28378C9.82548 4.31739 9.91231 4.33469 10 4.33469C10.0877 4.33469 10.1745 4.31739 10.2555 4.28378C10.3365 4.25017 10.4101 4.20091 10.472 4.13883L10 3.66683ZM10.472 16.5282L2.51867 8.57616L1.576 9.51883L9.528 17.4722L10.472 16.5282ZM17.4813 8.57616L9.528 16.5282L10.472 17.4722L18.424 9.51883L17.4813 8.57616ZM8.24267 2.85216L9.528 4.13883L10.472 3.19483L9.18533 1.9095L8.24267 2.85216ZM10.472 4.13883L11.7573 2.85216L10.8147 1.9095L9.528 3.19483L10.472 4.13883ZM14.6187 0.333496C13.192 0.333496 11.824 0.900163 10.8147 1.9095L11.7573 2.85216C12.5164 2.0935 13.5455 1.66717 14.6187 1.66683V0.333496ZM18.6667 5.71483C18.6667 6.78816 18.24 7.8175 17.48 8.57616L18.424 9.51883C19.4328 8.5099 19.9997 7.14162 20 5.71483H18.6667ZM20 5.71483C20 4.28761 19.433 2.91885 18.4238 1.90965C17.4146 0.900456 16.0459 0.333496 14.6187 0.333496V1.66683C15.6923 1.66683 16.7219 2.09331 17.481 2.85246C18.2402 3.61161 18.6667 4.64123 18.6667 5.71483H20ZM5.38133 1.66683C6.45467 1.66683 7.484 2.0935 8.24267 2.8535L9.18533 1.9095C8.1764 0.900646 6.80812 0.333767 5.38133 0.333496V1.66683ZM1.33333 5.71483C1.33333 4.64123 1.75982 3.61161 2.51897 2.85246C3.27811 2.09331 4.30774 1.66683 5.38133 1.66683V0.333496C3.95411 0.333496 2.58535 0.900456 1.57616 1.90965C0.56696 2.91885 0 4.28761 0 5.71483H1.33333ZM2.51867 8.57616C2.14265 8.20052 1.84565 7.75449 1.64204 7.26354C1.43843 6.77258 1.33353 6.24633 1.33333 5.71483H0C0 7.1415 0.566667 8.5095 1.576 9.51883L2.51867 8.57616Z" fill="black"/>
</svg>
