<svg width="21" height="21" viewBox="0 0 21 21" fill="none" xmlns="http://www.w3.org/2000/svg">
<path d="M11.3925 18.4936L10.1988 15.6165L9.00503 18.4936C8.88468 18.7829 8.56739 18.9137 8.29613 18.7859C8.02499 18.6575 7.9025 18.3194 8.02284 18.0294L9.53076 14.3958C9.64727 14.1144 9.90988 13.9316 10.1988 13.9316C10.4877 13.9316 10.7503 14.1139 10.8668 14.3963L12.3747 18.0293C12.4951 18.3186 12.3726 18.6573 12.1014 18.7857C11.8303 18.9141 11.5129 18.7834 11.3925 18.4934L11.3925 18.4936Z" fill="#263A92"/>
<rect x="7.42188" y="7.7207" width="2.77778" height="4.62963" fill="#0C7DCC"/>
<rect x="11.125" y="5.86914" width="2.77778" height="6.48148" fill="#0C7DCC"/>
<path d="M1.86523 14.2031H18.5319" stroke="#263A92" stroke-linecap="round"/>
<path d="M3.7168 14.2031V4.16601C3.7168 3.06144 4.61223 2.16602 5.7168 2.16602H14.6798C15.7843 2.16602 16.6798 3.06145 16.6798 4.16602V14.2031" stroke="#263A92" stroke-linecap="round"/>
</svg>
