<svg width="21" height="21" viewBox="0 0 21 21" fill="none" xmlns="http://www.w3.org/2000/svg">
<path d="M8.5332 3V6.42171C8.53387 6.84053 8.70143 7.24197 8.99916 7.53789C9.29688 7.8338 9.70039 8 10.1211 8H13.5332" fill="#0C7DCC"/>
<path fill-rule="evenodd" clip-rule="evenodd" d="M13.7685 10.4114V7.42136L9.34718 3H5.36019C4.75894 3 4.18227 3.23871 3.75693 3.66366C3.33158 4.08861 3.09235 4.66503 3.0918 5.26628V13.6054C3.09235 14.2226 3.33764 14.8144 3.77388 15.251C4.21013 15.6877 4.80174 15.9335 5.41895 15.9346H8.24531L9.05111 15.1288H5.42316C5.02115 15.1283 4.63578 14.9682 4.35172 14.6837C4.06765 14.3993 3.90806 14.0137 3.90806 13.6117V5.26628C3.90861 4.88041 4.06232 4.51054 4.33537 4.23789C4.60842 3.96523 4.97852 3.81208 5.36439 3.81208H9.01141L12.9585 7.7571V11.2214L13.7685 10.4114Z" fill="#263A92"/>
<path fill-rule="evenodd" clip-rule="evenodd" d="M16.9152 8.8818C17.078 8.71909 17.3418 8.71909 17.5045 8.8818L19.2692 10.6465C19.4319 10.8092 19.4319 11.073 19.2692 11.2358C19.1065 11.3985 18.8427 11.3985 18.68 11.2358L16.9152 9.47106C16.7525 9.30834 16.7525 9.04452 16.9152 8.8818ZM15.6894 10.2059C15.8174 10.1643 15.9553 10.1643 16.0833 10.2059C16.1816 10.2378 16.2532 10.2909 16.301 10.3316C16.3425 10.3668 16.3862 10.4105 16.4235 10.4478C16.4259 10.4502 16.4282 10.4526 16.4305 10.4549L17.7032 11.7275C17.7405 11.7648 17.7842 11.8085 17.8194 11.85C17.8601 11.8979 17.9132 11.9694 17.9452 12.0677C17.9867 12.1957 17.9867 12.3336 17.9452 12.4616C17.9132 12.5599 17.8601 12.6315 17.8194 12.6793C17.7842 12.7208 17.7405 12.7645 17.7032 12.8018C17.7008 12.8042 17.6984 12.8065 17.6961 12.8089L13.1373 17.3677C13.1318 17.3732 13.1264 17.3786 13.121 17.384C13.0382 17.4669 12.9668 17.5383 12.8842 17.5985C12.8115 17.6515 12.7335 17.6968 12.6513 17.7336C12.5581 17.7755 12.4607 17.802 12.3476 17.8328C12.3403 17.8348 12.3329 17.8368 12.3255 17.8388L10.2607 18.4019C10.1164 18.4413 9.96215 18.4003 9.85642 18.2946C9.75069 18.1889 9.70972 18.0346 9.74907 17.8903L10.3122 15.8256C10.3142 15.8181 10.3162 15.8107 10.3182 15.8034C10.349 15.6903 10.3755 15.5929 10.4174 15.4997C10.4542 15.4176 10.4995 15.3395 10.5525 15.2668C10.6127 15.1842 10.6841 15.1128 10.7671 15.03C10.7724 15.0246 10.7778 15.0192 10.7833 15.0138L15.3421 10.4549C15.3445 10.4526 15.3468 10.4502 15.3492 10.4479C15.3865 10.4105 15.4302 10.3668 15.4717 10.3316C15.5195 10.2909 15.5911 10.2378 15.6894 10.2059ZM15.8863 11.0892L11.3725 15.603C11.2649 15.7106 11.2431 15.7341 11.226 15.7575C11.207 15.7836 11.1908 15.8115 11.1776 15.841C11.1658 15.8673 11.1562 15.898 11.1162 16.0448L10.7449 17.4061L12.1062 17.0349C12.253 16.9948 12.2837 16.9853 12.31 16.9734C12.3395 16.9602 12.3674 16.944 12.3935 16.925C12.4169 16.908 12.4404 16.8861 12.548 16.7785L17.0618 12.2647L15.8863 11.0892Z" fill="#263A92"/>
</svg>
