<svg width="18" height="18" viewBox="0 0 18 18" fill="none" xmlns="http://www.w3.org/2000/svg">
<path d="M13.9993 0.666016L17.3327 3.99935M0.666016 17.3327L1.72968 13.4326C1.79908 13.1781 1.83378 13.0509 1.88704 12.9323C1.93434 12.8269 1.99245 12.7268 2.06045 12.6334C2.13703 12.5283 2.23027 12.4351 2.41677 12.2486L11.0279 3.63742C11.193 3.47241 11.2755 3.38991 11.3706 3.359C11.4543 3.33181 11.5444 3.33181 11.6281 3.359C11.7232 3.38991 11.8057 3.47241 11.9708 3.63742L14.3613 6.02794C14.5263 6.19295 14.6088 6.27546 14.6397 6.37059C14.6669 6.45428 14.6669 6.54442 14.6397 6.62811C14.6088 6.72324 14.5263 6.80575 14.3613 6.97075L5.7501 15.5819C5.56361 15.7684 5.47036 15.8617 5.36525 15.9383C5.27192 16.0062 5.17178 16.0644 5.06645 16.1117C4.9478 16.1649 4.82058 16.1996 4.56613 16.269L0.666016 17.3327Z" stroke="#626576" stroke-width="1.2" stroke-linecap="round" stroke-linejoin="round"/>
</svg>
