<svg width="21" height="21" viewBox="0 0 21 21" fill="none" xmlns="http://www.w3.org/2000/svg">
<path fill-rule="evenodd" clip-rule="evenodd" d="M9.61891 14.8556L8.76862 14.2669C5.96856 14.5021 3.92773 15.231 3.92773 16.0938C3.92773 17.1468 6.96773 18.0004 10.7177 18.0004C14.4678 18.0004 17.5078 17.1468 17.5078 16.0938C17.5078 15.1801 15.2188 14.4165 12.1631 14.2305L11.1292 14.8336C12.7954 14.8623 14.2749 15.064 15.3452 15.3645C15.9285 15.5283 16.3539 15.7115 16.6186 15.8872C16.7712 15.9885 16.8313 16.0594 16.8541 16.0938C16.8313 16.1281 16.7712 16.199 16.6186 16.3003C16.3539 16.476 15.9285 16.6592 15.3452 16.823C14.1875 17.1481 12.5512 17.3575 10.7177 17.3575C8.88425 17.3575 7.24797 17.1481 6.09027 16.823C5.50696 16.6592 5.08156 16.476 4.81688 16.3003C4.66429 16.199 4.60415 16.1281 4.58138 16.0938C4.60415 16.0594 4.66429 15.9885 4.81688 15.8872C5.08156 15.7115 5.50696 15.5283 6.09027 15.3645C7.01097 15.106 8.23436 14.9206 9.61891 14.8556Z" fill="#4D5DA6"/>
<path d="M10.3703 3.03166C10.4334 2.98945 10.5157 2.98945 10.5788 3.03166L17.5064 7.66741C17.6174 7.74164 17.6174 7.90474 17.5064 7.97898L10.5788 12.6147C10.5157 12.6569 10.4334 12.6569 10.3703 12.6147L3.44257 7.97898C3.33164 7.90474 3.33164 7.74164 3.44257 7.66741L10.3703 3.03166Z" fill="#4D5DA6"/>
<path fill-rule="evenodd" clip-rule="evenodd" d="M4.11913 9.0083L3.08416 9.70086C2.6959 9.96068 2.69591 10.5315 3.08416 10.7913L10.1804 15.5399C10.4012 15.6877 10.6893 15.6877 10.9101 15.5399L18.0063 10.7913C18.3946 10.5315 18.3946 9.96067 18.0063 9.70086L16.9035 8.96289L16.4026 9.30437L17.3044 9.90779L17.3118 9.91273L17.5048 10.0419L17.6936 10.1682C17.749 10.2053 17.749 10.2869 17.6936 10.324L17.5048 10.4503L17.3118 10.5795L17.3044 10.5844L10.5974 15.0726C10.5658 15.0937 10.5246 15.0937 10.4931 15.0726L3.78606 10.5844L3.77868 10.5795L3.58566 10.4503L3.39689 10.324C3.34143 10.2869 3.34143 10.2053 3.39689 10.1682L3.58567 10.0419L3.77868 9.91273L3.78606 9.90779L4.61995 9.34978L4.11913 9.0083Z" fill="#263A92"/>
<path fill-rule="evenodd" clip-rule="evenodd" d="M4.11962 8.89502L4.78744 9.35036L3.8382 9.98556L3.83082 9.99049L3.44907 10.246L3.83082 10.5014L3.8382 10.5063L10.5452 14.9945L17.6414 10.246L17.2523 9.98556L17.3044 9.90764L17.6936 10.1681C17.749 10.2052 17.749 10.2867 17.6936 10.3238L10.5974 15.0724C10.5658 15.0935 10.5247 15.0935 10.4931 15.0724L3.39689 10.3238C3.34143 10.2867 3.34143 10.2052 3.39689 10.1681L4.61996 9.34963L4.11913 9.00815L3.08416 9.70071C2.6959 9.96053 2.69591 10.5314 3.08416 10.7912L10.1804 15.5398C10.4012 15.6875 10.6893 15.6875 10.9101 15.5398L18.0063 10.7912C18.3946 10.5314 18.3946 9.96052 18.0063 9.70071L16.9035 8.96274L16.4026 9.30422L17.3044 9.90764L17.2523 9.98556L16.2352 9.30495L16.903 8.84961L18.0584 9.6228C18.5022 9.91974 18.5022 10.5722 18.0584 10.8691L10.9622 15.6177C10.7099 15.7865 10.3806 15.7865 10.1282 15.6177L3.03203 10.8691C2.58829 10.5722 2.58828 9.91974 3.03203 9.6228L4.11962 8.89502Z" fill="#263A92"/>
</svg>
