<svg width="21" height="21" viewBox="0 0 21 21" fill="none" xmlns="http://www.w3.org/2000/svg">
<path d="M3.33269 13.3051H3.81524C4.00907 13.2996 4.16498 13.1447 4.17087 12.9515V9.46965C4.17087 6.29279 6.72714 3.69306 9.87823 3.67548H9.90844C11.4305 3.6781 12.8891 4.28293 13.9637 5.35705C15.0382 6.43118 15.6406 7.88644 15.6382 9.40315V13.8985C15.6382 15.3696 14.5596 16.5873 13.1403 16.7728V16.5435C13.1326 16.3498 12.9753 16.195 12.7808 16.19H11.4561C11.1317 16.19 10.8318 16.3625 10.6694 16.6425C10.5072 16.9225 10.5072 17.2675 10.6694 17.5475C10.8318 17.8275 11.1317 18 11.4561 18H12.7808C12.969 18 13.1403 17.8622 13.1403 17.6748V17.457C14.9002 17.2679 16.3194 15.7443 16.3194 13.8985V13.3052H16.4613C17.2827 13.3052 18.0418 12.8686 18.4525 12.1598C18.8631 11.4509 18.8631 10.5778 18.4525 9.86897C18.0418 9.16011 17.2827 8.72358 16.4613 8.72358H16.2967C16.1246 7.15315 15.3774 5.70109 14.1982 4.64516C13.0188 3.58924 11.4903 3.00341 9.90478 3C9.89221 3 9.87944 3.00566 9.86687 3.00566C6.59754 3.02424 3.89375 5.49952 3.51901 8.72381H3.33227C2.51094 8.72381 1.75184 9.16036 1.34128 9.8692C0.93051 10.5781 0.93051 11.4512 1.34128 12.16C1.75185 12.8689 2.51094 13.3054 3.33227 13.3054L3.33269 13.3051Z" fill="#22359D"/>
<path d="M13.9531 8.45508H5.84178C5.61593 8.45508 5.42773 8.64171 5.42773 8.86572V14.0172C5.42773 14.2412 5.61591 14.4278 5.84178 14.4278H7.3756V15.7984C7.3756 16.0037 7.62024 16.1064 7.77082 15.9664L10.0198 14.4278H13.9531C14.1789 14.4278 14.3671 14.2411 14.3671 14.0171V8.86568C14.3671 8.64169 14.1789 8.45508 13.9531 8.45508ZM12.8803 12.524C12.8803 12.5707 12.8427 12.608 12.7957 12.608H6.99921C6.95215 12.608 6.91454 12.5707 6.91454 12.524V12.104C6.91454 12.0574 6.95215 12.0201 6.99921 12.0201H12.8051C12.8521 12.0201 12.8898 12.0574 12.8898 12.104V12.524H12.8803ZM12.8803 10.7788C12.8803 10.8255 12.8427 10.8628 12.7957 10.8628H6.99921C6.95215 10.8628 6.91454 10.8255 6.91454 10.7788V10.3589C6.91454 10.3122 6.95215 10.2749 6.99921 10.2749H12.8051C12.8521 10.2749 12.8898 10.3122 12.8898 10.3589V10.7788H12.8803Z" fill="#2AB3FF"/>
</svg>
