<svg width="32" height="32" viewBox="0 0 32 32" fill="none" xmlns="http://www.w3.org/2000/svg">
<rect width="32" height="32" fill="white" fill-opacity="0.01"/>
<path d="M28 16.2266C28 16.4298 27.9193 16.6246 27.7757 16.7682C27.632 16.9119 27.4372 16.9926 27.234 16.9926H4.76596C4.56281 16.9926 4.36799 16.9119 4.22434 16.7682C4.0807 16.6246 4 16.4298 4 16.2266C4 16.0235 4.0807 15.8287 4.22434 15.685C4.36799 15.5414 4.56281 15.4607 4.76596 15.4607H27.234C27.4372 15.4607 27.632 15.5414 27.7757 15.685C27.9193 15.8287 28 16.0235 28 16.2266ZM4.76596 10.8649H27.234C27.4372 10.8649 27.632 10.7842 27.7757 10.6406C27.9193 10.4969 28 10.3021 28 10.099C28 9.89582 27.9193 9.701 27.7757 9.55735C27.632 9.41371 27.4372 9.33301 27.234 9.33301H4.76596C4.56281 9.33301 4.36799 9.41371 4.22434 9.55735C4.0807 9.701 4 9.89582 4 10.099C4 10.3021 4.0807 10.4969 4.22434 10.6406C4.36799 10.7842 4.56281 10.8649 4.76596 10.8649ZM27.234 21.5883H4.76596C4.56281 21.5883 4.36799 21.669 4.22434 21.8127C4.0807 21.9563 4 22.1511 4 22.3543C4 22.5574 4.0807 22.7523 4.22434 22.8959C4.36799 23.0395 4.56281 23.1202 4.76596 23.1202H27.234C27.4372 23.1202 27.632 23.0395 27.7757 22.8959C27.9193 22.7523 28 22.5574 28 22.3543C28 22.1511 27.9193 21.9563 27.7757 21.8127C27.632 21.669 27.4372 21.5883 27.234 21.5883Z" fill="#090A0B"/>
</svg>
