<svg width="21" height="21" viewBox="0 0 21 21" fill="none" xmlns="http://www.w3.org/2000/svg">
<path d="M5.5332 3.5H14.2577C15.0862 3.5 15.7577 4.17157 15.7577 5V15.4557L10.2766 19.0782L4.0332 15.4373V5C4.0332 4.17157 4.70478 3.5 5.5332 3.5Z" stroke="#263A92" stroke-linecap="round"/>
<path d="M13.8708 10.4452C13.8708 11.2316 13.6376 12.0004 13.2007 12.6543C12.7637 13.3083 12.1427 13.8179 11.4161 14.1189C10.6895 14.4199 9.88998 14.4986 9.11863 14.3452C8.34728 14.1917 7.63875 13.813 7.08264 13.2569C6.52652 12.7008 6.14781 11.9923 5.99438 11.2209C5.84095 10.4496 5.91969 9.65005 6.22066 8.92346C6.52162 8.19686 7.03129 7.57583 7.68521 7.1389C8.33913 6.70196 9.10793 6.46875 9.89439 6.46875C10.949 6.46875 11.9604 6.88769 12.7061 7.63342C13.4519 8.37914 13.8708 9.39055 13.8708 10.4452Z" fill="#4D5DA6"/>
<path d="M12.1492 8.89983C12.1308 8.85542 12.1038 8.81508 12.0698 8.78111C12.0358 8.7471 11.9955 8.72012 11.9511 8.70171C11.9067 8.6833 11.8591 8.67383 11.811 8.67383C11.7629 8.67383 11.7153 8.6833 11.6709 8.70171C11.6265 8.72012 11.5862 8.7471 11.5522 8.78111L9.25047 11.0833L8.4119 10.2443C8.34326 10.1756 8.25017 10.1371 8.1531 10.1371C8.05603 10.1371 7.96294 10.1756 7.89431 10.2443C7.82567 10.3129 7.78711 10.406 7.78711 10.5031C7.78711 10.6001 7.82567 10.6932 7.89431 10.7619L8.99167 11.8592C9.02565 11.8932 9.06599 11.9202 9.1104 11.9386C9.1548 11.957 9.2024 11.9665 9.25047 11.9665C9.29854 11.9665 9.34614 11.957 9.39055 11.9386C9.43495 11.9202 9.47529 11.8932 9.50927 11.8592L12.0698 9.2987C12.1038 9.26473 12.1308 9.22439 12.1492 9.17998C12.1676 9.13557 12.1771 9.08798 12.1771 9.03991C12.1771 8.99184 12.1676 8.94424 12.1492 8.89983Z" fill="white"/>
</svg>
