<svg width="21" height="20" viewBox="0 0 21 20" fill="none" xmlns="http://www.w3.org/2000/svg">
<path d="M8.59137 7.22618C8.43926 7.03658 8.16877 7.03658 8.01666 7.22618L6.74885 8.80646C6.59674 8.99606 6.59674 9.33322 6.74885 9.52281L8.01666 11.1031C8.1012 11.2085 8.20261 11.2507 8.30401 11.2507C8.40542 11.2507 8.50683 11.2085 8.59137 11.1031C8.74348 10.9135 8.74348 10.5763 8.59137 10.3867L7.61093 9.16465L8.59137 7.94258C8.76034 7.73196 8.76034 7.41597 8.59137 7.22622V7.22618Z" fill="#0C7DCC"/>
<path d="M13.5778 7.22691C13.4247 7.03634 13.1526 7.03634 12.9995 7.22691C12.8465 7.41747 12.8465 7.75634 12.9995 7.94689L13.986 9.17517L12.9995 10.3824C12.8465 10.5729 12.8465 10.9118 12.9995 11.1023C13.0846 11.2083 13.1866 11.2507 13.2887 11.2507C13.3907 11.2507 13.4927 11.2083 13.5778 11.1023L14.8533 9.51405C15.0064 9.32349 15.0064 8.98462 14.8533 8.79406L13.5778 7.22691Z" fill="#0C7DCC"/>
<path d="M11.6062 7.13759C11.3963 7.01106 11.1514 7.11655 11.0463 7.36961L9.80423 10.5334C9.69928 10.7865 9.78678 11.0818 9.99666 11.2084C10.0491 11.2507 10.1192 11.2507 10.1717 11.2507C10.3291 11.2507 10.4865 11.1452 10.5565 10.9554L11.7986 7.79157C11.9036 7.55941 11.8161 7.2641 11.6062 7.13759Z" fill="#0C7DCC"/>
<rect x="3.80078" y="3.83398" width="14" height="9.83333" rx="1.5" stroke="#263A92" stroke-linecap="round"/>
<line x1="10.8242" y1="13.834" x2="10.8242" y2="16.1673" stroke="#263A92" stroke-linecap="round"/>
<line x1="7.9668" y1="16.168" x2="13.6335" y2="16.168" stroke="#263A92" stroke-linecap="round"/>
</svg>
