<svg width="12" height="12" viewBox="0 0 12 12" fill="none" xmlns="http://www.w3.org/2000/svg">
<path fill-rule="evenodd" clip-rule="evenodd" d="M7.03408 2.9043C7.08696 2.63327 7.34955 2.45642 7.62058 2.5093C8.20662 2.62364 8.74521 2.91025 9.16742 3.33246C9.58962 3.75467 9.87624 4.29326 9.99058 4.8793C10.0435 5.15033 9.86661 5.41291 9.59558 5.46579C9.32454 5.51867 9.06196 5.34182 9.00908 5.07079C8.93286 4.6801 8.74178 4.32104 8.46031 4.03957C8.17884 3.75809 7.81978 3.56702 7.42908 3.49079C7.15805 3.43791 6.9812 3.17533 7.03408 2.9043Z" fill="#4D5DA6"/>
<path fill-rule="evenodd" clip-rule="evenodd" d="M7.02789 0.944838C7.05838 0.670384 7.30558 0.472612 7.58004 0.503101C8.70741 0.628343 9.7587 1.1332 10.5613 1.93477C11.3639 2.73635 11.87 3.787 11.9967 4.91421C12.0275 5.18863 11.8301 5.43608 11.5557 5.46692C11.2812 5.49775 11.0338 5.30029 11.003 5.02588C10.9016 4.1241 10.4967 3.28358 9.85462 2.64232C9.21255 2.00106 8.37152 1.59718 7.46962 1.49699C7.19517 1.4665 6.9974 1.21929 7.02789 0.944838Z" fill="#4D5DA6"/>
<path fill-rule="evenodd" clip-rule="evenodd" d="M3.66878 8.87612C2.45182 7.65917 1.56691 6.14368 1.09662 4.48907C1.02286 4.22956 0.965672 4.02833 0.96485 3.75238C0.963911 3.43699 1.06667 3.04187 1.22113 2.7669C1.48677 2.29402 2.05715 1.68799 2.54981 1.4388C2.97549 1.2235 3.47818 1.2235 3.90386 1.4388C4.32168 1.65014 4.80097 2.13934 5.05543 2.53071C5.37867 3.02788 5.37867 3.66882 5.05543 4.16599C4.96881 4.29921 4.84534 4.42247 4.70201 4.56555C4.65738 4.61011 4.60826 4.6423 4.64088 4.71025C4.96479 5.38489 5.40653 6.01768 5.96687 6.57802C6.52721 7.13837 7.16001 7.58011 7.83465 7.90402C7.9045 7.93756 7.93312 7.88919 7.97935 7.84289C8.12243 7.69956 8.24569 7.57609 8.37891 7.48947C8.87608 7.16623 9.51702 7.16623 10.0142 7.48947C10.4056 7.74393 10.8948 8.22322 11.1061 8.64104C11.3214 9.06671 11.3214 9.56941 11.1061 9.99508C10.8588 10.4841 10.2577 11.0543 9.778 11.3238C9.50303 11.4782 9.10791 11.581 8.79252 11.58C8.51657 11.5792 8.31534 11.522 8.05583 11.4483C6.40122 10.978 4.88572 10.0931 3.66878 8.87612Z" fill="#4D5DA6"/>
</svg>
