<svg width="20" height="20" viewBox="0 0 20 20" fill="none" xmlns="http://www.w3.org/2000/svg">
<path d="M10.1777 2.77734V6.25678C10.1784 6.68266 10.348 7.09087 10.6494 7.39178C10.9508 7.69269 11.3593 7.86169 11.7851 7.86169H15.2392" fill="#0C7DCC"/>
<path d="M13.5307 18.1778H6.15469C5.40657 18.1765 4.68949 17.8785 4.16073 17.3493C3.63197 16.82 3.33466 16.1027 3.33398 15.3546V5.24692C3.33466 4.51816 3.62462 3.81948 4.14017 3.30441C4.65573 2.78933 5.3547 2.5 6.08346 2.5H10.916L16.2751 7.85904V15.4283C16.2751 15.5148 16.2751 15.6013 16.2751 15.6827C16.215 16.3674 15.8992 17.0044 15.3906 17.4667C14.8821 17.9291 14.218 18.183 13.5307 18.1778ZM6.08856 3.48431C5.62085 3.48431 5.17226 3.66994 4.8413 4.00042C4.51034 4.3309 4.32403 4.77921 4.32336 5.24692V15.3622C4.32336 15.8495 4.51679 16.3168 4.86111 16.6616C5.20542 17.0064 5.67251 17.2004 6.15978 17.2011H13.5358C13.9754 17.2029 14.3997 17.0399 14.7251 16.7442C15.0504 16.4485 15.2532 16.0417 15.2933 15.6038C15.2933 15.5479 15.2933 15.4919 15.2933 15.436V8.26599L10.509 3.48431H6.08856Z" fill="#263A92"/>
<path d="M7.5 12.3148L9.5 14.1667L12.5 10" stroke="#263A92" stroke-linecap="round" stroke-linejoin="round"/>
</svg>
