<svg width="26" height="26" viewBox="0 0 26 26" fill="none" xmlns="http://www.w3.org/2000/svg">
<rect width="26" height="26" rx="13" fill="#F4F5FA"/>
<path d="M20.7033 14.4352H18.1982V6.151C18.1982 6.02226 18.1471 5.89895 18.0561 5.80794C17.9651 5.7171 17.8417 5.66602 17.7132 5.66602H6.15294C5.88499 5.66602 5.66797 5.88305 5.66797 6.15099V18.0871C5.66865 18.6824 5.9053 19.2533 6.32633 19.6741C6.74737 20.0952 7.3181 20.332 7.91354 20.3327H19.2096C19.7359 20.332 20.2403 20.1219 20.6116 19.7489C20.9829 19.3759 21.1905 18.8705 21.1884 18.3441V14.92C21.1884 14.7912 21.1373 14.6679 21.0463 14.5769C20.9555 14.4861 20.8318 14.4352 20.7033 14.4352ZM7.91359 19.3534C7.57714 19.3527 7.25454 19.2195 7.01571 18.9826C6.77686 18.7456 6.64119 18.4238 6.63798 18.0875V6.63642H17.2282V18.3448C17.2282 18.7002 17.3244 19.0488 17.507 19.3536L7.91359 19.3534ZM20.2182 18.3445C20.2012 18.6936 20.0049 19.0091 19.6994 19.179C19.3939 19.3488 19.0225 19.3488 18.7169 19.179C18.4114 19.0091 18.2152 18.6936 18.1982 18.3445V15.4053H20.2182V18.3445ZM15.1425 13.276C15.1425 13.4046 15.0912 13.5281 15.0004 13.6189C14.9094 13.7099 14.7861 13.761 14.6573 13.761H8.61153C8.34359 13.761 8.12656 13.5438 8.12656 13.276C8.12656 13.0081 8.34359 12.7911 8.61153 12.7911H14.6573C14.7869 12.7911 14.9109 12.8428 15.0021 12.9348C15.0933 13.0269 15.1437 13.1514 15.1425 13.2809V13.276ZM15.1425 16.4287C15.1425 16.5572 15.0912 16.6805 15.0004 16.7715C14.9094 16.8626 14.7861 16.9136 14.6573 16.9136H8.61153C8.34359 16.9136 8.12656 16.6964 8.12656 16.4287C8.12656 16.1607 8.34359 15.9437 8.61153 15.9437H14.6573C14.7872 15.9435 14.9117 15.9956 15.0029 16.0882C15.0941 16.1809 15.1443 16.306 15.1425 16.4359L15.1425 16.4287Z" fill="#1B2966"/>
<path d="M11.1035 11.1654V6.58203H7.43685V11.1654L9.27018 10.0195L11.1035 11.1654Z" fill="#0C7DCC"/>
</svg>
