<svg width="26" height="26" viewBox="0 0 26 26" fill="none" xmlns="http://www.w3.org/2000/svg">
<rect width="26" height="26" rx="13" fill="#F4F5FA"/>
<path d="M15.3184 6.07227V8.95162C15.3189 9.30406 15.4593 9.64187 15.7087 9.89088C15.9581 10.1399 16.2961 10.2797 16.6486 10.2797H19.5069" fill="#0C7DCC"/>
<path d="M11.3301 7.58789V10.4672C11.3306 10.8197 11.471 11.1575 11.7204 11.4065C11.9698 11.6555 12.3078 11.7954 12.6603 11.7954H15.5186" fill="#0C7DCC"/>
<path d="M19.5077 15.6533C19.3994 15.6533 19.2955 15.6103 19.2189 15.5337C19.1424 15.4571 19.0994 15.3533 19.0994 15.245V10.4376L15.1423 6.48059H11.48C11.1163 6.47863 10.7651 6.61343 10.4961 6.85827C10.227 7.1031 10.0599 7.44008 10.0277 7.80239C10.0133 7.90643 9.95951 8.00096 9.87731 8.06633C9.79511 8.13169 9.6909 8.16287 9.5863 8.15339C9.48171 8.14391 9.38475 8.09449 9.31565 8.0154C9.24655 7.93632 9.21061 7.83365 9.21524 7.72873C9.26584 7.16376 9.52659 6.63834 9.94596 6.25639C10.3653 5.87444 10.9128 5.66377 11.48 5.66603H15.4791L19.9286 10.1008V15.245C19.9287 15.2997 19.9177 15.3538 19.8964 15.4042C19.8751 15.4546 19.8438 15.5002 19.8046 15.5382C19.7653 15.5763 19.7188 15.6061 19.6678 15.6259C19.6168 15.6457 19.5623 15.655 19.5077 15.6533Z" fill="#1B2966"/>
<path d="M17.6488 18.634H15.965C15.862 18.6266 15.7657 18.5804 15.6954 18.5049C15.6251 18.4293 15.5859 18.3299 15.5859 18.2267C15.5859 18.1235 15.6251 18.0241 15.6954 17.9485C15.7657 17.8729 15.862 17.8268 15.965 17.8194H17.6488C17.7047 17.8154 17.761 17.8229 17.8139 17.8416C17.8668 17.8602 17.9152 17.8896 17.9563 17.9278C17.9974 17.966 18.0301 18.0123 18.0525 18.0637C18.0749 18.1151 18.0865 18.1706 18.0865 18.2267C18.0865 18.2828 18.0749 18.3383 18.0525 18.3897C18.0301 18.4411 17.9974 18.4874 17.9563 18.5256C17.9152 18.5638 17.8668 18.5932 17.8139 18.6118C17.761 18.6305 17.7047 18.638 17.6488 18.634Z" fill="#1B2966"/>
<path d="M14.1042 20.3333H8.00025C7.38116 20.3322 6.78775 20.0857 6.35018 19.6477C5.91261 19.2097 5.66657 18.6161 5.66602 17.997V9.63255C5.66657 9.02947 5.90653 8.45129 6.33317 8.02505C6.75981 7.59881 7.33823 7.35937 7.94131 7.35938H11.9404L16.3752 11.7942V18.0581C16.3752 18.1296 16.3752 18.2012 16.3752 18.2685C16.3255 18.8352 16.0642 19.3623 15.6433 19.7449C15.2225 20.1275 14.6729 20.3376 14.1042 20.3333ZM7.94553 8.17393C7.55848 8.17393 7.18725 8.32754 6.91337 8.60103C6.63949 8.87451 6.48532 9.24551 6.48476 9.63255V18.0033C6.48476 18.4066 6.64483 18.7933 6.92977 19.0786C7.2147 19.364 7.60123 19.5245 8.00447 19.5251H14.1084C14.4722 19.5266 14.8233 19.3917 15.0926 19.147C15.3618 18.9023 15.5296 18.5656 15.5628 18.2033C15.5628 18.157 15.5628 18.1107 15.5628 18.0644V12.1309L11.6036 8.17393H7.94553Z" fill="#1B2966"/>
</svg>
