<svg width="21" height="21" viewBox="0 0 21 21" fill="none" xmlns="http://www.w3.org/2000/svg">
<path d="M12.3086 4.20312V6.82072C12.3091 7.14112 12.4367 7.44822 12.6634 7.67459C12.8902 7.90097 13.1975 8.02811 13.5179 8.02811H16.1163" fill="#0C7DCC"/>
<path d="M8.68359 5.58203V8.19963C8.6841 8.52002 8.81171 8.82713 9.03844 9.0535C9.26517 9.27987 9.57247 9.40702 9.89286 9.40702H12.4913" fill="#0C7DCC"/>
<path d="M16.1149 12.9133C16.0165 12.9133 15.9221 12.8742 15.8524 12.8046C15.7828 12.735 15.7437 12.6406 15.7437 12.5421V8.17179L12.1464 4.57451H8.81705C8.48638 4.57273 8.1671 4.69527 7.92255 4.91785C7.678 5.14043 7.52601 5.44677 7.49674 5.77615C7.48372 5.87073 7.43478 5.95666 7.36005 6.01609C7.28532 6.07551 7.19059 6.10386 7.0955 6.09523C7.00042 6.08661 6.91228 6.04169 6.84946 5.96979C6.78663 5.8979 6.75397 5.80456 6.75817 5.70918C6.80418 5.19557 7.04122 4.71791 7.42246 4.37069C7.8037 4.02346 8.30139 3.83194 8.81705 3.834H12.4526L16.4976 7.86564V12.5421C16.4976 12.5918 16.4877 12.6411 16.4683 12.6869C16.449 12.7327 16.4205 12.7741 16.3848 12.8087C16.3492 12.8434 16.3069 12.8705 16.2605 12.8884C16.2141 12.9064 16.1646 12.9149 16.1149 12.9133Z" fill="#1B2966"/>
<path d="M14.4261 15.6223H12.8954C12.8018 15.6156 12.7142 15.5737 12.6503 15.505C12.5864 15.4363 12.5508 15.3459 12.5508 15.2521C12.5508 15.1582 12.5864 15.0679 12.6503 14.9992C12.7142 14.9305 12.8018 14.8885 12.8954 14.8818H14.4261C14.477 14.8782 14.5281 14.885 14.5762 14.902C14.6243 14.9189 14.6683 14.9456 14.7057 14.9803C14.743 15.0151 14.7728 15.0571 14.7931 15.1039C14.8135 15.1506 14.824 15.2011 14.824 15.2521C14.824 15.3031 14.8135 15.3535 14.7931 15.4003C14.7728 15.447 14.743 15.4891 14.7057 15.5238C14.6683 15.5585 14.6243 15.5852 14.5762 15.6022C14.5281 15.6191 14.477 15.626 14.4261 15.6223Z" fill="#1B2966"/>
<path d="M11.2042 17.1676H5.65524C5.09242 17.1665 4.55296 16.9424 4.15517 16.5442C3.75738 16.1461 3.53371 15.6064 3.5332 15.0436V7.43957C3.53371 6.89132 3.75185 6.3657 4.13971 5.97821C4.52756 5.59071 5.0534 5.37305 5.60165 5.37305H9.23721L13.2689 9.40469V15.0991C13.2689 15.1642 13.2689 15.2292 13.2689 15.2905C13.2237 15.8056 12.9861 16.2848 12.6035 16.6326C12.2209 16.9805 11.7213 17.1715 11.2042 17.1676ZM5.60548 6.11355C5.25363 6.11355 4.91615 6.2532 4.66717 6.50182C4.41818 6.75045 4.27802 7.08771 4.27751 7.43957V15.0494C4.27751 15.4159 4.42304 15.7675 4.68207 16.0269C4.9411 16.2863 5.29249 16.4323 5.65907 16.4328H11.2081C11.5388 16.4342 11.858 16.3115 12.1028 16.0891C12.3476 15.8666 12.5001 15.5605 12.5303 15.2311C12.5303 15.1891 12.5303 15.1469 12.5303 15.1049V9.71084L8.93104 6.11355H5.60548Z" fill="#1B2966"/>
</svg>
