<svg width="40" height="40" viewBox="0 0 40 40" fill="none" xmlns="http://www.w3.org/2000/svg">
<rect x="6" y="14" width="27" height="8" fill="#263A92"/>
<path d="M33.3334 4.5H6.66664C3 4.5 0 7.5 0 11.1667V22.2778C0 25.9445 3 28.9445 6.66664 28.9445H10C11.2222 28.9445 12.2222 29.9445 12.2222 31.1666V32.1666C12.2222 34.7222 14.9444 36.3333 17.1666 35.0555L27.2777 29.3889C27.7777 29.1111 28.3333 28.9445 28.9444 28.9445H33.3333C36.9999 28.9445 39.9999 25.9445 39.9999 22.2778V11.1667C40 7.5 37 4.5 33.3334 4.5ZM11.1111 20.0555C9.88891 20.0555 8.88891 19.0555 8.88891 17.8334C8.88891 16.6112 9.88891 15.6112 11.1111 15.6112C12.3333 15.6112 13.3333 16.6112 13.3333 17.8334C13.3333 19.0555 12.3334 20.0555 11.1111 20.0555ZM20 20.0555C18.7778 20.0555 17.7778 19.0555 17.7778 17.8334C17.7778 16.6112 18.7778 15.6112 20 15.6112C21.2222 15.6112 22.2222 16.6112 22.2222 17.8334C22.2222 19.0555 21.2222 20.0555 20 20.0555ZM28.8889 20.0555C27.6667 20.0555 26.6667 19.0555 26.6667 17.8334C26.6667 16.6112 27.6667 15.6112 28.8889 15.6112C30.1111 15.6112 31.1111 16.6112 31.1111 17.8334C31.1111 19.0555 30.1111 20.0555 28.8889 20.0555Z" fill="#263A92"/>
<g clip-path="url(#clip0_533_162757)">
<path d="M24.9687 12.8428C24.2958 12.1129 23.3724 11.7109 22.3684 11.7109C21.618 11.7109 20.9308 11.9482 20.3258 12.416C20.0205 12.6522 19.7439 12.9411 19.5 13.2783C19.2562 12.9412 18.9795 12.6522 18.6741 12.416C18.0692 11.9482 17.382 11.7109 16.6316 11.7109C15.6276 11.7109 14.7041 12.1129 14.0312 12.8428C13.3663 13.5642 13 14.5496 13 15.6178C13 16.7173 13.4097 17.7237 14.2894 18.7851C15.0763 19.7346 16.2073 20.6984 17.517 21.8145C17.9642 22.1957 18.4711 22.6277 18.9974 23.0879C19.1365 23.2097 19.3149 23.2768 19.5 23.2768C19.685 23.2768 19.8635 23.2097 20.0024 23.0881C20.5287 22.6278 21.0359 22.1956 21.4833 21.8142C22.7928 20.6983 23.9238 19.7346 24.7107 18.785C25.5904 17.7237 26 16.7173 26 15.6177C26 14.5496 25.6337 13.5642 24.9687 12.8428Z" fill="white"/>
</g>
<defs>
<clipPath id="clip0_533_162757">
<rect width="13" height="13" fill="white" transform="translate(13 11)"/>
</clipPath>
</defs>
</svg>
