<svg width="33" height="32" viewBox="0 0 33 32" fill="none" xmlns="http://www.w3.org/2000/svg">
<path d="M19.873 5.92188V10.11C19.8739 10.6227 20.078 11.114 20.4408 11.4762C20.8036 11.8384 21.2952 12.0419 21.8079 12.0419H25.9654" fill="#0C7DCC"/>
<path d="M14.0723 8.12891V12.3171C14.0731 12.8297 14.2772 13.3211 14.64 13.6833C15.0028 14.0455 15.4945 14.2489 16.0071 14.2489H20.1647" fill="#0C7DCC"/>
<path d="M25.9655 19.859C25.808 19.859 25.6569 19.7964 25.5455 19.685C25.4342 19.5736 25.3716 19.4226 25.3716 19.265V12.2725L19.6159 6.51686H14.2889C13.7598 6.51402 13.249 6.71009 12.8577 7.06622C12.4664 7.42234 12.2233 7.91249 12.1764 8.43949C12.1556 8.59082 12.0773 8.72832 11.9577 8.82339C11.8382 8.91847 11.6866 8.96382 11.5344 8.95003C11.3823 8.93623 11.2413 8.86435 11.1408 8.74932C11.0403 8.63429 10.988 8.48495 10.9947 8.33234C11.0683 7.51057 11.4476 6.74632 12.0576 6.19076C12.6676 5.63519 13.4639 5.32877 14.2889 5.33206H20.1058L26.5778 11.7827V19.265C26.5779 19.3446 26.562 19.4234 26.531 19.4967C26.5 19.5699 26.4545 19.6362 26.3974 19.6916C26.3403 19.747 26.2726 19.7904 26.1984 19.8191C26.1242 19.8479 26.0451 19.8614 25.9655 19.859Z" fill="#1B2966"/>
<path d="M23.2642 24.1941H20.815C20.6652 24.1834 20.5252 24.1163 20.4229 24.0064C20.3206 23.8965 20.2637 23.7519 20.2637 23.6017C20.2637 23.4516 20.3206 23.307 20.4229 23.1971C20.5252 23.0872 20.6652 23.0201 20.815 23.0093H23.2642C23.3456 23.0035 23.4273 23.0145 23.5043 23.0416C23.5812 23.0687 23.6517 23.1114 23.7115 23.167C23.7712 23.2225 23.8188 23.2898 23.8514 23.3646C23.884 23.4394 23.9008 23.5202 23.9008 23.6017C23.9008 23.6833 23.884 23.764 23.8514 23.8389C23.8188 23.9137 23.7712 23.981 23.7115 24.0365C23.6517 24.0921 23.5812 24.1348 23.5043 24.1619C23.4273 24.189 23.3456 24.2 23.2642 24.1941Z" fill="#1B2966"/>
<path d="M18.1076 26.6642H9.22924C8.32873 26.6626 7.46559 26.3039 6.82913 25.6669C6.19266 25.0298 5.83479 24.1664 5.83398 23.2659V11.0994C5.8348 10.2222 6.18382 9.38121 6.80439 8.76122C7.42495 8.14123 8.2663 7.79297 9.14351 7.79297H14.9604L21.411 14.2436V23.3547C21.411 23.4588 21.411 23.5629 21.411 23.6608C21.3387 24.485 20.9586 25.2517 20.3465 25.8083C19.7343 26.3649 18.935 26.6704 18.1076 26.6642ZM9.14963 8.97778C8.58666 8.97778 8.04669 9.20122 7.64832 9.59901C7.24995 9.99681 7.02569 10.5364 7.02488 11.0994V23.2751C7.02488 23.8616 7.25772 24.4241 7.67217 24.8392C8.08661 25.2542 8.64885 25.4877 9.23537 25.4886H18.1138C18.643 25.4908 19.1537 25.2945 19.5453 24.9386C19.937 24.5827 20.181 24.0929 20.2293 23.5659C20.2293 23.4986 20.2293 23.4312 20.2293 23.3639V14.7334L14.4705 8.97778H9.14963Z" fill="#1B2966"/>
</svg>
