<svg width="40" height="40" viewBox="0 0 40 40" fill="none" xmlns="http://www.w3.org/2000/svg">
<path d="M33.3334 4.5H6.66664C3 4.5 0 7.5 0 11.1667V22.2778C0 25.9445 3 28.9445 6.66664 28.9445H10C11.2222 28.9445 12.2222 29.9445 12.2222 31.1666V32.1666C12.2222 34.7222 14.9444 36.3333 17.1666 35.0555L27.2777 29.3889C27.7777 29.1111 28.3333 28.9445 28.9444 28.9445H33.3333C36.9999 28.9445 39.9999 25.9445 39.9999 22.2778V11.1667C40 7.5 37 4.5 33.3334 4.5ZM11.1111 20.0555C9.88891 20.0555 8.88891 19.0555 8.88891 17.8334C8.88891 16.6112 9.88891 15.6112 11.1111 15.6112C12.3333 15.6112 13.3333 16.6112 13.3333 17.8334C13.3333 19.0555 12.3334 20.0555 11.1111 20.0555ZM20 20.0555C18.7778 20.0555 17.7778 19.0555 17.7778 17.8334C17.7778 16.6112 18.7778 15.6112 20 15.6112C21.2222 15.6112 22.2222 16.6112 22.2222 17.8334C22.2222 19.0555 21.2222 20.0555 20 20.0555ZM28.8889 20.0555C27.6667 20.0555 26.6667 19.0555 26.6667 17.8334C26.6667 16.6112 27.6667 15.6112 28.8889 15.6112C30.1111 15.6112 31.1111 16.6112 31.1111 17.8334C31.1111 19.0555 30.1111 20.0555 28.8889 20.0555Z" fill="#263A92"/>
</svg>
