<svg width="40" height="40" viewBox="0 0 40 40" fill="none" xmlns="http://www.w3.org/2000/svg">
<g clip-path="url(#clip0_1541_182285)">
<path d="M20 33.5999L19.1976 34.4023C19.3029 34.5079 19.4279 34.5916 19.5656 34.6487C19.7033 34.7059 19.8509 34.7353 20 34.7353C20.1491 34.7353 20.2967 34.7059 20.4344 34.6487C20.5721 34.5916 20.6971 34.5079 20.8024 34.4023L20 33.5999ZM20 10.9333L19.1976 11.7357C19.3029 11.8412 19.4279 11.9249 19.5656 11.9821C19.7033 12.0392 19.8509 12.0686 20 12.0686C20.1491 12.0686 20.2967 12.0392 20.4344 11.9821C20.5721 11.9249 20.6971 11.8412 20.8024 11.7357L20 10.9333ZM20.8024 32.7975L7.28173 19.2791L5.6792 20.8817L19.1976 34.4023L20.8024 32.7975ZM32.7183 19.2791L19.1976 32.7975L20.8024 34.4023L34.3208 20.8817L32.7183 19.2791ZM17.0125 9.54833L19.1976 11.7357L20.8024 10.1309L18.6151 7.9458L17.0125 9.54833ZM20.8024 11.7357L22.9875 9.54833L21.3849 7.9458L19.1976 10.1309L20.8024 11.7357ZM27.8517 5.2666C25.4264 5.2666 23.1008 6.22993 21.3849 7.9458L22.9875 9.54833C24.2778 8.25861 26.0274 7.53385 27.8517 7.53327V5.2666ZM34.7333 14.4149C34.7333 16.2395 34.008 17.9894 32.716 19.2791L34.3208 20.8817C36.0358 19.1665 36.9995 16.8404 37 14.4149H34.7333ZM37 14.4149C37 11.9886 36.0362 9.6617 34.3205 7.94607C32.6049 6.23043 30.278 5.2666 27.8517 5.2666V7.53327C29.6768 7.53327 31.4272 8.25829 32.7178 9.54884C34.0083 10.8394 34.7333 12.5898 34.7333 14.4149H37ZM12.1483 7.53327C13.9729 7.53327 15.7228 8.2586 17.0125 9.5506L18.6151 7.9458C16.8999 6.23076 14.5738 5.26706 12.1483 5.2666V7.53327ZM5.26667 14.4149C5.26667 12.5898 5.99169 10.8394 7.28224 9.54884C8.57279 8.25829 10.3232 7.53327 12.1483 7.53327V5.2666C9.722 5.2666 7.3951 6.23043 5.67947 7.94607C3.96383 9.6617 3 11.9886 3 14.4149H5.26667ZM7.28173 19.2791C6.64251 18.6405 6.13761 17.8823 5.79147 17.0477C5.44534 16.213 5.26701 15.3184 5.26667 14.4149H3C3 16.8402 3.96333 19.1658 5.6792 20.8817L7.28173 19.2791Z" fill="#263A92"/>
<path d="M15.7492 7.25039L19.1492 10.6504L20.8492 11.5004L24.2492 8.10039H25.9492L28.4992 7.25039L31.8992 8.10039L34.4492 10.6504L35.2992 14.0504L34.4492 19.1504L19.9992 32.7504L5.54922 18.3004L4.69922 14.9004L5.54922 10.6504L8.94922 7.25039L11.4992 6.40039L15.7492 7.25039Z" fill="#263A92" stroke="#263A92"/>
</g>
<defs>
<clipPath id="clip0_1541_182285">
<rect width="34" height="34" fill="white" transform="translate(3 3)"/>
</clipPath>
</defs>
</svg>
