<svg width="72" height="72" viewBox="0 0 72 72" fill="none" xmlns="http://www.w3.org/2000/svg">
<g clip-path="url(#clip0_1027_148030)">
<mask id="path-1-inside-1_1027_148030" fill="white">
<path d="M71.6635 41.5255C71.2698 40.6817 70.5723 40.0517 69.706 39.7367L66.3985 38.5442C66.5223 37.723 66.3985 36.8905 66.0385 36.1255C65.6758 35.358 65.0972 34.7129 64.3736 34.2692C64.486 33.2905 64.5535 32.278 64.5535 31.2205C64.5535 15.493 51.751 2.66797 36.001 2.66797C20.251 2.66797 7.4373 15.493 7.4373 31.2317C7.4373 32.233 7.51605 33.2567 7.6173 34.2805C6.8973 34.7192 6.32355 35.3605 5.9523 36.1367C5.5923 36.9017 5.46855 37.7455 5.5923 38.5555L2.29605 39.748C1.41855 40.063 0.721046 40.693 0.327296 41.5367C-0.0777039 42.3805 -0.111454 43.3142 0.203546 44.1805L4.7823 56.8817C5.0973 57.7592 5.7273 58.4567 6.57105 58.8505C7.04355 59.0642 7.53855 59.188 8.03355 59.188C8.43855 59.188 8.8323 59.1092 9.22605 58.9742L12.4885 57.793C12.997 58.6728 13.7974 59.3469 14.7509 59.6983C15.7043 60.0497 16.7508 60.0562 17.7085 59.7167L19.0698 59.2105C19.4748 60.6392 20.4085 62.9117 22.5348 64.453C24.031 65.5442 25.831 66.0842 27.9235 66.0842C28.441 66.0842 28.9585 66.0505 29.5098 65.983V67.6255C29.5098 68.188 29.9485 68.6717 30.511 68.7167L38.386 69.3355H38.5773C39.196 69.3355 39.8148 69.1105 40.276 68.6717C40.7935 68.1992 41.0748 67.5355 41.0748 66.838V63.1255C41.0761 62.7802 41.0054 62.4384 40.8673 62.1219C40.7292 61.8055 40.5267 61.5212 40.2727 61.2873C40.0187 61.0534 39.7188 60.875 39.392 60.7634C39.0652 60.6518 38.7188 60.6095 38.3748 60.6392L30.4998 61.258C29.9373 61.303 29.4985 61.7755 29.4985 62.338V63.7667C27.181 64.093 25.2798 63.733 23.8285 62.6867C22.1298 61.4492 21.4098 59.5367 21.1285 58.4455L21.646 58.2655C22.7373 57.8717 23.6035 57.0842 24.0873 56.038C24.5823 54.9917 24.6273 53.8217 24.2448 52.7417L17.866 35.068C17.6763 34.5345 17.3814 34.0445 16.9988 33.6271C16.6161 33.2096 16.1536 32.8733 15.6385 32.638C15.1001 32.3822 14.5133 32.2442 13.9173 32.233C13.906 31.8955 13.8723 31.5692 13.8723 31.2317C13.8723 19.0367 23.7948 9.10297 36.001 9.10297C48.2073 9.10297 58.1298 19.0255 58.1298 31.2317C58.1298 31.5692 58.096 31.8955 58.0848 32.233C57.4998 32.2442 56.9035 32.3792 56.3635 32.638C55.8496 32.8749 55.3879 33.2118 55.0055 33.629C54.623 34.0462 54.3275 34.5354 54.136 35.068L47.7573 52.7417C47.3635 53.8217 47.4198 54.9917 47.9148 56.038C48.4098 57.0842 49.2648 57.8717 50.356 58.2655L54.2935 59.6942C54.7773 59.8742 55.2723 59.9417 55.7673 59.9417C56.527 59.9463 57.2741 59.7474 57.931 59.3656C58.5878 58.9837 59.1304 58.433 59.5023 57.7705L62.776 58.9517C63.1585 59.098 63.5635 59.1655 63.9685 59.1655C64.4748 59.1655 64.9585 59.0417 65.431 58.828C66.2748 58.4342 66.9048 57.7367 67.2198 56.8705L71.7985 44.1692C72.1023 43.303 72.0685 42.3692 71.6635 41.5255ZM31.6923 63.3505L38.566 62.8105C38.6785 62.788 38.7573 62.8555 38.8023 62.9005C38.8473 62.9342 38.9035 63.013 38.9035 63.1255V66.838C38.9035 66.9617 38.8473 67.0292 38.8023 67.0742C38.7359 67.1286 38.6518 67.1567 38.566 67.153L31.6923 66.613V63.3505ZM8.48355 56.893C8.16855 57.0167 7.8198 57.0055 7.51605 56.848C7.21253 56.7028 6.97819 56.4443 6.86355 56.128L2.2623 43.4267C2.13855 43.1117 2.1498 42.763 2.3073 42.4592C2.45355 42.1442 2.7123 41.9192 3.0273 41.7955L6.23355 40.6367L11.6898 55.7455L8.48355 56.893ZM14.716 34.6067C15.2335 34.843 15.616 35.2705 15.8185 35.8105L22.1973 53.4842C22.3885 54.0242 22.366 54.598 22.1185 55.1042C21.8823 55.6217 21.4435 56.0042 20.9035 56.2067L16.966 57.6355C15.8523 58.0292 14.626 57.4555 14.2323 56.353L14.1198 56.038V56.0267C14.1085 56.0267 14.1085 56.0155 14.1085 56.0155L7.8423 38.6905C7.74698 38.4261 7.70485 38.1454 7.71834 37.8647C7.73183 37.584 7.80066 37.3087 7.92089 37.0547C8.04111 36.8006 8.21036 36.5728 8.4189 36.3844C8.62743 36.196 8.87115 36.0506 9.13605 35.9567L13.0848 34.5392C13.3098 34.4492 13.5685 34.4042 13.8048 34.4042C14.1085 34.4042 14.4235 34.4717 14.716 34.6067ZM36.001 6.92047C22.591 6.92047 11.701 17.8217 11.701 31.2205C11.701 31.7267 11.7348 32.1992 11.7685 32.683L9.74355 33.4142C9.67605 32.683 9.63105 31.9405 9.63105 31.2205C9.6198 16.6855 21.4548 4.85047 36.001 4.85047C50.5585 4.85047 62.3823 16.6855 62.3823 31.2317C62.3823 31.9855 62.3485 32.7167 62.281 33.4255L60.256 32.6942C60.2785 32.2105 60.3235 31.738 60.3235 31.2317C60.3123 17.8217 49.3998 6.92047 36.001 6.92047ZM57.8935 56.0155L57.8823 56.038L57.7698 56.353C57.5785 56.893 57.1848 57.3205 56.6673 57.568C56.1498 57.8042 55.5648 57.8267 55.036 57.6467L51.0985 56.218C50.8347 56.1244 50.5919 55.9796 50.384 55.7921C50.1762 55.6045 50.0073 55.3778 49.8872 55.125C49.767 54.8721 49.6979 54.598 49.6837 54.3184C49.6696 54.0388 49.7107 53.7592 49.8048 53.4955L56.1835 35.8217C56.3748 35.2817 56.7573 34.8655 57.286 34.618C57.8035 34.3705 58.3773 34.348 58.906 34.5392L62.8548 35.9567C63.3948 36.148 63.8223 36.5417 64.0698 37.0592C64.306 37.5767 64.3285 38.1617 64.1485 38.6905L57.8935 56.0155ZM69.7398 43.4267L65.1498 56.1392C65.0373 56.4542 64.801 56.713 64.4973 56.8592C64.1936 57.0167 63.8448 57.028 63.5185 56.9042L60.3235 55.7455L65.7798 40.6367L68.986 41.7955C69.301 41.9192 69.5598 42.1442 69.706 42.4592C69.841 42.763 69.8523 43.1117 69.7398 43.4267Z"/>
</mask>
<path d="M71.6635 41.5255C71.2698 40.6817 70.5723 40.0517 69.706 39.7367L66.3985 38.5442C66.5223 37.723 66.3985 36.8905 66.0385 36.1255C65.6758 35.358 65.0972 34.7129 64.3736 34.2692C64.486 33.2905 64.5535 32.278 64.5535 31.2205C64.5535 15.493 51.751 2.66797 36.001 2.66797C20.251 2.66797 7.4373 15.493 7.4373 31.2317C7.4373 32.233 7.51605 33.2567 7.6173 34.2805C6.8973 34.7192 6.32355 35.3605 5.9523 36.1367C5.5923 36.9017 5.46855 37.7455 5.5923 38.5555L2.29605 39.748C1.41855 40.063 0.721046 40.693 0.327296 41.5367C-0.0777039 42.3805 -0.111454 43.3142 0.203546 44.1805L4.7823 56.8817C5.0973 57.7592 5.7273 58.4567 6.57105 58.8505C7.04355 59.0642 7.53855 59.188 8.03355 59.188C8.43855 59.188 8.8323 59.1092 9.22605 58.9742L12.4885 57.793C12.997 58.6728 13.7974 59.3469 14.7509 59.6983C15.7043 60.0497 16.7508 60.0562 17.7085 59.7167L19.0698 59.2105C19.4748 60.6392 20.4085 62.9117 22.5348 64.453C24.031 65.5442 25.831 66.0842 27.9235 66.0842C28.441 66.0842 28.9585 66.0505 29.5098 65.983V67.6255C29.5098 68.188 29.9485 68.6717 30.511 68.7167L38.386 69.3355H38.5773C39.196 69.3355 39.8148 69.1105 40.276 68.6717C40.7935 68.1992 41.0748 67.5355 41.0748 66.838V63.1255C41.0761 62.7802 41.0054 62.4384 40.8673 62.1219C40.7292 61.8055 40.5267 61.5212 40.2727 61.2873C40.0187 61.0534 39.7188 60.875 39.392 60.7634C39.0652 60.6518 38.7188 60.6095 38.3748 60.6392L30.4998 61.258C29.9373 61.303 29.4985 61.7755 29.4985 62.338V63.7667C27.181 64.093 25.2798 63.733 23.8285 62.6867C22.1298 61.4492 21.4098 59.5367 21.1285 58.4455L21.646 58.2655C22.7373 57.8717 23.6035 57.0842 24.0873 56.038C24.5823 54.9917 24.6273 53.8217 24.2448 52.7417L17.866 35.068C17.6763 34.5345 17.3814 34.0445 16.9988 33.6271C16.6161 33.2096 16.1536 32.8733 15.6385 32.638C15.1001 32.3822 14.5133 32.2442 13.9173 32.233C13.906 31.8955 13.8723 31.5692 13.8723 31.2317C13.8723 19.0367 23.7948 9.10297 36.001 9.10297C48.2073 9.10297 58.1298 19.0255 58.1298 31.2317C58.1298 31.5692 58.096 31.8955 58.0848 32.233C57.4998 32.2442 56.9035 32.3792 56.3635 32.638C55.8496 32.8749 55.3879 33.2118 55.0055 33.629C54.623 34.0462 54.3275 34.5354 54.136 35.068L47.7573 52.7417C47.3635 53.8217 47.4198 54.9917 47.9148 56.038C48.4098 57.0842 49.2648 57.8717 50.356 58.2655L54.2935 59.6942C54.7773 59.8742 55.2723 59.9417 55.7673 59.9417C56.527 59.9463 57.2741 59.7474 57.931 59.3656C58.5878 58.9837 59.1304 58.433 59.5023 57.7705L62.776 58.9517C63.1585 59.098 63.5635 59.1655 63.9685 59.1655C64.4748 59.1655 64.9585 59.0417 65.431 58.828C66.2748 58.4342 66.9048 57.7367 67.2198 56.8705L71.7985 44.1692C72.1023 43.303 72.0685 42.3692 71.6635 41.5255ZM31.6923 63.3505L38.566 62.8105C38.6785 62.788 38.7573 62.8555 38.8023 62.9005C38.8473 62.9342 38.9035 63.013 38.9035 63.1255V66.838C38.9035 66.9617 38.8473 67.0292 38.8023 67.0742C38.7359 67.1286 38.6518 67.1567 38.566 67.153L31.6923 66.613V63.3505ZM8.48355 56.893C8.16855 57.0167 7.8198 57.0055 7.51605 56.848C7.21253 56.7028 6.97819 56.4443 6.86355 56.128L2.2623 43.4267C2.13855 43.1117 2.1498 42.763 2.3073 42.4592C2.45355 42.1442 2.7123 41.9192 3.0273 41.7955L6.23355 40.6367L11.6898 55.7455L8.48355 56.893ZM14.716 34.6067C15.2335 34.843 15.616 35.2705 15.8185 35.8105L22.1973 53.4842C22.3885 54.0242 22.366 54.598 22.1185 55.1042C21.8823 55.6217 21.4435 56.0042 20.9035 56.2067L16.966 57.6355C15.8523 58.0292 14.626 57.4555 14.2323 56.353L14.1198 56.038V56.0267C14.1085 56.0267 14.1085 56.0155 14.1085 56.0155L7.8423 38.6905C7.74698 38.4261 7.70485 38.1454 7.71834 37.8647C7.73183 37.584 7.80066 37.3087 7.92089 37.0547C8.04111 36.8006 8.21036 36.5728 8.4189 36.3844C8.62743 36.196 8.87115 36.0506 9.13605 35.9567L13.0848 34.5392C13.3098 34.4492 13.5685 34.4042 13.8048 34.4042C14.1085 34.4042 14.4235 34.4717 14.716 34.6067ZM36.001 6.92047C22.591 6.92047 11.701 17.8217 11.701 31.2205C11.701 31.7267 11.7348 32.1992 11.7685 32.683L9.74355 33.4142C9.67605 32.683 9.63105 31.9405 9.63105 31.2205C9.6198 16.6855 21.4548 4.85047 36.001 4.85047C50.5585 4.85047 62.3823 16.6855 62.3823 31.2317C62.3823 31.9855 62.3485 32.7167 62.281 33.4255L60.256 32.6942C60.2785 32.2105 60.3235 31.738 60.3235 31.2317C60.3123 17.8217 49.3998 6.92047 36.001 6.92047ZM57.8935 56.0155L57.8823 56.038L57.7698 56.353C57.5785 56.893 57.1848 57.3205 56.6673 57.568C56.1498 57.8042 55.5648 57.8267 55.036 57.6467L51.0985 56.218C50.8347 56.1244 50.5919 55.9796 50.384 55.7921C50.1762 55.6045 50.0073 55.3778 49.8872 55.125C49.767 54.8721 49.6979 54.598 49.6837 54.3184C49.6696 54.0388 49.7107 53.7592 49.8048 53.4955L56.1835 35.8217C56.3748 35.2817 56.7573 34.8655 57.286 34.618C57.8035 34.3705 58.3773 34.348 58.906 34.5392L62.8548 35.9567C63.3948 36.148 63.8223 36.5417 64.0698 37.0592C64.306 37.5767 64.3285 38.1617 64.1485 38.6905L57.8935 56.0155ZM69.7398 43.4267L65.1498 56.1392C65.0373 56.4542 64.801 56.713 64.4973 56.8592C64.1936 57.0167 63.8448 57.028 63.5185 56.9042L60.3235 55.7455L65.7798 40.6367L68.986 41.7955C69.301 41.9192 69.5598 42.1442 69.706 42.4592C69.841 42.763 69.8523 43.1117 69.7398 43.4267Z" fill="#263A92" stroke="white" stroke-width="1.2" mask="url(#path-1-inside-1_1027_148030)"/>
<path d="M38.956 67.2662L38.9656 67.2584L38.9743 67.2497C39.0421 67.1819 39.1488 67.0544 39.1488 66.8367V63.1242C39.1488 62.9462 39.0836 62.7952 38.9552 62.7038C38.8903 62.6427 38.7422 62.5258 38.5293 62.5609L31.6679 63.0999L31.4375 63.118V63.3492V66.6117V66.8428L31.6679 66.8609L38.5417 67.4009L38.5417 67.401L38.5504 67.4014C38.6976 67.4078 38.8421 67.3597 38.956 67.2662Z" fill="white" stroke="white" stroke-width="0.5"/>
<path d="M58.1459 56.1625L58.0428 56.4512L58.1459 56.1625ZM58.1459 56.1625C58.1475 56.1594 58.1491 56.1564 58.1506 56.1534C58.1602 56.1343 58.1668 56.1162 58.1713 56.1004L64.4321 38.7906C64.6493 38.19 64.6262 37.5085 64.3289 36.9244C64.0481 36.3396 63.5617 35.8906 62.9458 35.6723C62.9455 35.6722 62.9453 35.6721 62.9451 35.6721L58.9983 34.2552C58.9982 34.2552 58.9981 34.2552 58.998 34.2551C58.3955 34.0373 57.7389 34.0626 57.1479 34.3449C56.5495 34.6254 56.1102 35.1016 55.8913 35.7185C55.8912 35.7189 55.8911 35.7193 55.8909 35.7197L49.5128 53.3917L49.5124 53.3928C49.4051 53.6937 49.3582 54.0127 49.3743 54.3317C49.3904 54.6507 49.4693 54.9634 49.6064 55.2519C49.7435 55.5404 49.9361 55.799 50.1732 56.0129C50.4101 56.2267 50.6868 56.3917 50.9874 56.4985C50.9877 56.4986 50.9881 56.4987 50.9884 56.4988L54.9239 57.9269L54.9239 57.9269L54.9295 57.9288C55.5289 58.1329 56.1932 58.1078 56.7821 57.839L56.7821 57.839L56.7869 57.8367C57.3734 57.5563 57.8237 57.0691 58.0425 56.452L58.1459 56.1625ZM11.7932 56.0257L12.0753 55.9238L11.9734 55.6417L6.51713 40.5329L6.4152 40.2507L6.133 40.3527L2.92675 41.5115L2.92671 41.5113L2.91902 41.5144C2.54153 41.6627 2.22176 41.9364 2.03937 42.3251C1.84372 42.7066 1.83145 43.1418 1.98292 43.5305L6.58287 56.2394L6.58292 56.2396C6.72383 56.6283 7.01128 56.9464 7.38367 57.1259C7.76552 57.3223 8.20135 57.3348 8.59061 57.1832L11.7932 56.0257ZM21.0073 56.4869L21.0073 56.4869L22.12 55.1023L22.3918 55.2292C22.392 55.2288 22.3922 55.2285 22.3923 55.2281C22.6602 54.6534 22.7005 53.9856 22.4687 53.3779L16.0909 35.7067L16.0909 35.7067L16.0896 35.7033C15.8614 35.0948 15.4265 34.6047 14.8334 34.3331C14.5105 34.1786 14.1519 34.1023 13.8062 34.1023C13.5371 34.1023 13.2422 34.1527 12.98 34.2567L9.0372 35.6721C9.03701 35.6722 9.03682 35.6722 9.03663 35.6723C8.7347 35.7794 8.45691 35.9452 8.21919 36.1599C7.98132 36.3749 7.78827 36.6347 7.65114 36.9245C7.514 37.2142 7.43549 37.5282 7.4201 37.8484C7.40472 38.1687 7.45277 38.4888 7.56149 38.7903L7.5616 38.7906L13.8223 56.1004C13.8269 56.1162 13.8335 56.1343 13.8431 56.1534C13.8445 56.1564 13.8461 56.1594 13.8478 56.1625L13.9512 56.452C14.4016 57.7132 15.8009 58.3642 17.0675 57.9164L17.0698 57.9156L21.0073 56.4869Z" fill="#2BA4FA" stroke="#2BA4FA" stroke-width="0.6"/>
<path d="M9.33282 31.229C9.33283 31.961 9.37855 32.7131 9.44659 33.4502L9.48226 33.8366L9.84721 33.7048L11.8722 32.9736L12.0854 32.8966L12.0696 32.6705L12.0677 32.6435C12.0345 32.1679 12.0028 31.7138 12.0028 31.2289C12.0028 17.9958 22.7586 7.22891 36.0028 7.22891C49.2362 7.22891 60.0141 17.9849 60.0141 31.2289C60.0141 31.5591 59.9948 31.8669 59.975 32.1835C59.965 32.3445 59.9548 32.5078 59.9469 32.6775L59.9366 32.8984L60.1447 32.9736L62.1697 33.7048L62.5335 33.8362L62.5702 33.4511C62.6387 32.7324 62.6728 31.9916 62.6728 31.2289C62.6728 16.5171 50.7149 4.54766 36.0028 4.54766C21.291 4.54766 9.32151 16.5169 9.33282 31.229ZM9.33282 31.229C9.33282 31.2291 9.33282 31.2291 9.33282 31.2291L9.63282 31.2289H9.33282C9.33282 31.2289 9.33282 31.229 9.33282 31.229ZM9.74532 33.4227L9.64343 33.1405L9.71823 33.1135C9.72677 33.2167 9.73582 33.3198 9.74532 33.4227ZM9.74532 33.4227L10.044 33.3951C10.0417 33.3692 10.0393 33.3433 10.037 33.3173L9.74532 33.4227ZM62.2716 33.4227L61.9801 33.3174C61.9777 33.343 61.9754 33.3686 61.9729 33.3942L62.2716 33.4227Z" fill="#2BA4FA" stroke="#2BA4FA" stroke-width="0.6"/>
<path d="M70.0187 43.5286L70.0191 43.5276C70.157 43.1414 70.1438 42.7129 69.977 42.3374L69.977 42.3374L69.9749 42.3329C69.793 41.9411 69.4719 41.6653 69.0925 41.5162L69.0926 41.5161L69.0848 41.5133L65.8785 40.3546L65.5963 40.2526L65.4944 40.5348L60.0381 55.6436L59.9364 55.9254L60.218 56.0275L63.411 57.1855C63.8086 57.3357 64.2443 57.3251 64.6282 57.1276C64.9991 56.9478 65.2896 56.6302 65.4289 56.2407C65.429 56.2405 65.429 56.2403 65.4291 56.2401L70.0187 43.5286Z" fill="#2BA4FA" stroke="#2BA4FA" stroke-width="0.6"/>
</g>
<defs>
<clipPath id="clip0_1027_148030">
<rect width="72" height="72" fill="white"/>
</clipPath>
</defs>
</svg>
