<svg width="48" height="48" viewBox="0 0 48 48" fill="none" xmlns="http://www.w3.org/2000/svg">
<g clip-path="url(#clip0_1_43578)">
<path d="M23.2734 42.8C33.6564 42.8 42.0734 34.383 42.0734 24C42.0734 13.617 33.6564 5.2 23.2734 5.2C12.8905 5.2 4.47344 13.617 4.47344 24C4.47344 34.383 12.8905 42.8 23.2734 42.8Z" stroke="#12B76A" stroke-width="1.6" stroke-linecap="round" stroke-linejoin="round"/>
<path fill-rule="evenodd" clip-rule="evenodd" d="M23 39C31.2843 39 38 32.2843 38 24C38 15.7157 31.2843 9 23 9C14.7157 9 8 15.7157 8 24C8 32.2843 14.7157 39 23 39ZM29.5727 19.721C29.9708 19.157 29.8363 18.377 29.2723 17.9789C28.7083 17.5808 27.9284 17.7153 27.5303 18.2792L21.3874 26.9816L18.3157 23.4711C17.8611 22.9515 17.0714 22.8989 16.5519 23.3535C16.0323 23.8081 15.9797 24.5978 16.4343 25.1174L20.5519 29.8232C20.8043 30.1116 21.175 30.2684 21.5577 30.2484C21.9405 30.2285 22.2929 30.034 22.5139 29.721L29.5727 19.721Z" fill="#12B76A"/>
</g>
<defs>
<clipPath id="clip0_1_43578">
<rect width="48" height="48" fill="white"/>
</clipPath>
</defs>
</svg>
