<svg width="24" height="24" viewBox="0 0 24 24" fill="none" xmlns="http://www.w3.org/2000/svg">
<path d="M10.125 24H13.875C14.3928 24 14.8125 23.5803 14.8125 23.0625C14.8125 22.5447 14.3928 22.125 13.875 22.125H10.125C9.60722 22.125 9.1875 22.5447 9.1875 23.0625C9.1875 23.5803 9.60722 24 10.125 24Z" fill="#263A92"/>
<path d="M12 0C11.4822 0 11.0625 0.419719 11.0625 0.9375V1.94227C7.88648 2.39855 5.4375 5.13722 5.4375 8.4375V14.2011C5.4375 14.5314 5.28867 14.832 5.06723 14.949C4.13906 15.4391 3.5625 16.3926 3.5625 17.4375C3.5625 18.9883 4.82419 20.25 6.375 20.25H17.625C19.1758 20.25 20.4375 18.9883 20.4375 17.4375C20.4375 16.3926 19.8609 15.4391 18.9328 14.949C18.7113 14.832 18.5625 14.5315 18.5625 14.2011V8.4375C18.5625 5.13722 16.1135 2.39855 12.9375 1.94227V0.9375C12.9375 0.419719 12.5178 0 12 0ZM16.6875 8.4375V14.2011C16.6875 15.239 17.2124 16.1609 18.0573 16.607C18.3689 16.7715 18.5625 17.0898 18.5625 17.4375C18.5625 17.9544 18.1419 18.375 17.625 18.375H6.375C5.85806 18.375 5.4375 17.9544 5.4375 17.4375C5.4375 17.0898 5.63109 16.7715 5.94272 16.607C6.78764 16.1609 7.3125 15.239 7.3125 14.2011V8.4375C7.3125 5.85281 9.41531 3.75 12 3.75C14.5847 3.75 16.6875 5.85281 16.6875 8.4375Z" fill="#263A92"/>
</svg>
