<svg width="480" height="50" viewBox="0 0 480 50" fill="none" xmlns="http://www.w3.org/2000/svg">
<rect width="480" height="50" fill="white" fill-opacity="0.01"/>
<path d="M240 24.2715C237.008 24.2715 236.438 25.5223 236.438 27.834V28.8157H243.562V27.834C243.562 25.5223 242.993 24.2715 240 24.2715Z" fill="url(#paint0_linear_770_358288)"/>
<path d="M239.999 35.9091C240.961 35.9091 241.741 35.1293 241.741 34.1674C241.741 33.2056 240.961 32.4258 239.999 32.4258C239.038 32.4258 238.258 33.2056 238.258 34.1674C238.258 35.1293 239.038 35.9091 239.999 35.9091Z" fill="#00A3FF"/>
<path d="M239.999 15.166C231.259 15.166 224.166 22.2593 224.166 30.9993C224.166 39.7393 231.259 46.8327 239.999 46.8327C248.739 46.8327 255.833 39.7393 255.833 30.9993C255.833 22.2593 248.739 15.166 239.999 15.166ZM248.518 34.9577C248.518 38.441 247.441 39.5177 243.958 39.5177H236.041C232.558 39.5177 231.481 38.441 231.481 34.9577V33.3743C231.481 30.6668 232.13 29.416 234.062 28.9885V27.8327C234.062 26.3602 234.062 21.8952 239.999 21.8952C245.937 21.8952 245.937 26.3602 245.937 27.8327V28.9885C247.869 29.416 248.518 30.6668 248.518 33.3743V34.9577Z" fill="#00A3FF"/>
<defs>
<linearGradient id="paint0_linear_770_358288" x1="240" y1="24.2715" x2="240" y2="28.8157" gradientUnits="userSpaceOnUse">
<stop stop-color="#138BD7"/>
<stop offset="1" stop-color="#62AAFB"/>
</linearGradient>
</defs>
</svg>
