<svg width="40" height="40" viewBox="0 0 40 40" fill="none" xmlns="http://www.w3.org/2000/svg">
<g clip-path="url(#clip0_533_162913)">
<path d="M39.1875 27.5L35.875 24.5C35.3125 24 35 23.3125 35 22.625V15C35 6.6875 28.3125 0 20 0C11.6875 0 5 6.6875 5 15V22.625C5 23.375 4.6875 24.0625 4.125 24.5L0.8125 27.5C0.3125 28 0 28.625 0 29.375V32.5C0 33.875 1.125 35 2.5 35H12.9375C13.9375 37.9375 16.75 40 20 40C23.25 40 26.0625 37.9375 27.0625 35H37.5C38.875 35 40 33.875 40 32.5V29.375C40 28.6875 39.6875 28 39.1875 27.5Z" fill="#263A92"/>
<path d="M32.5 18.75C36.6421 18.75 40 15.3921 40 11.25C40 7.10786 36.6421 3.75 32.5 3.75C28.3579 3.75 25 7.10786 25 11.25C25 15.3921 28.3579 18.75 32.5 18.75Z" fill="#55CCFF"/>
</g>
<defs>
<clipPath id="clip0_533_162913">
<rect width="40" height="40" fill="white"/>
</clipPath>
</defs>
</svg>
