<svg width="33" height="33" viewBox="0 0 33 33" fill="none" xmlns="http://www.w3.org/2000/svg">
<path d="M12.8534 11.9221C12.6024 11.6093 12.1561 11.6093 11.9051 11.9221L9.81324 14.5296C9.56225 14.8424 9.56225 15.3987 9.81324 15.7116L11.9051 18.319C12.0446 18.4929 12.2119 18.5625 12.3793 18.5625C12.5466 18.5625 12.7139 18.4929 12.8534 18.319C13.1044 18.0062 13.1044 17.4499 12.8534 17.137L11.2357 15.1206L12.8534 13.1042C13.1322 12.7567 13.1322 12.2353 12.8534 11.9222V11.9221Z" fill="#0C7DCC"/>
<path d="M21.081 11.9233C20.8284 11.6089 20.3794 11.6089 20.1269 11.9233C19.8744 12.2377 19.8744 12.7969 20.1269 13.1113L21.7545 15.138L20.1269 17.1298C19.8744 17.4442 19.8744 18.0034 20.1269 18.3178C20.2672 18.4925 20.4356 18.5625 20.6039 18.5625C20.7723 18.5625 20.9406 18.4925 21.081 18.3178L23.1856 15.6971C23.4381 15.3827 23.4381 14.8235 23.1856 14.5091L21.081 11.9233Z" fill="#0C7DCC"/>
<path d="M17.8279 11.7759C17.4816 11.5672 17.0775 11.7412 16.9041 12.1588L14.8546 17.379C14.6815 17.7966 14.8258 18.2838 15.1721 18.4928C15.2587 18.5625 15.3743 18.5625 15.4609 18.5625C15.7206 18.5625 15.9803 18.3884 16.0959 18.0753L18.1454 12.855C18.3185 12.4719 18.1742 11.9847 17.8279 11.7759Z" fill="#0C7DCC"/>
<rect x="4.625" y="6" width="23.75" height="16.875" rx="1.5" stroke="#1B2966" stroke-linecap="round"/>
<line x1="16.2142" y1="22.5" x2="16.2142" y2="27" stroke="#1B2966" stroke-linecap="round"/>
<line x1="11.5" y1="27" x2="21.5" y2="27" stroke="#1B2966" stroke-linecap="round"/>
</svg>
