<svg width="41" height="40" viewBox="0 0 41 40" fill="none" xmlns="http://www.w3.org/2000/svg">
<g clip-path="url(#clip0_770_361959)">
<path fill-rule="evenodd" clip-rule="evenodd" d="M24.2983 14.4042C24.2983 19.5924 20.0924 23.7983 14.9042 23.7983C9.71605 23.7983 5.51017 19.5924 5.51017 14.4042C5.51017 9.21605 9.71605 5.01017 14.9042 5.01017C20.0924 5.01017 24.2983 9.21605 24.2983 14.4042ZM23.1031 26.249C20.7761 27.8628 17.9506 28.8085 14.9042 28.8085C6.94902 28.8085 0.5 22.3594 0.5 14.4042C0.5 6.44902 6.94902 0 14.9042 0C22.8594 0 29.3085 6.44902 29.3085 14.4042C29.3085 17.5025 28.3302 20.3725 26.6658 22.7219L27.3101 23.42C28.7826 22.3046 30.8895 22.4185 32.2325 23.7615L39.3994 30.9284C40.8668 32.3958 40.8668 34.775 39.3994 36.2425L36.7424 38.8995C35.2749 40.3669 32.8957 40.3669 31.4283 38.8995L24.2614 31.7327C22.973 30.4443 22.8158 28.453 23.7899 26.9931L23.1031 26.249Z" fill="#263A92"/>
</g>
<defs>
<clipPath id="clip0_770_361959">
<rect width="40" height="40" fill="white" transform="translate(0.5)"/>
</clipPath>
</defs>
</svg>
