<svg width="73" height="72" viewBox="0 0 73 72" fill="none" xmlns="http://www.w3.org/2000/svg">
<g clip-path="url(#clip0_1027_143818)">
<g filter="url(#filter0_d_1027_143818)">
<path fill-rule="evenodd" clip-rule="evenodd" d="M9.22461 13.6523C6.46319 13.6523 4.22461 15.8909 4.22461 18.6523V48.3765C4.22461 51.1379 6.46319 53.3765 9.22461 53.3765H37.0692C36.6982 51.9908 36.5005 50.5343 36.5005 49.0317C36.5005 39.7761 44.0036 32.273 53.2591 32.273C54.3195 32.273 55.3568 32.3715 56.3625 32.5598V18.6523C56.3625 15.8909 54.124 13.6523 51.3625 13.6523H9.22461Z" fill="url(#paint0_linear_1027_143818)"/>
</g>
<path fill-rule="evenodd" clip-rule="evenodd" d="M50.1558 19.8594H10.4316V47.1697H36.6029C37.4153 39.8205 42.9799 33.9036 50.1558 32.56V19.8594Z" fill="white"/>
<path d="M67.4386 49.5116C67.2161 52.0987 66.2593 54.5684 64.6809 56.6301C63.1024 58.6919 60.9679 60.26 58.5285 61.1499C56.0891 62.0398 53.4463 62.2144 50.911 61.6533C48.3758 61.0923 46.0535 59.8187 44.2174 57.9826C42.3813 56.1466 41.1078 53.8243 40.5467 51.289C39.9856 48.7537 40.1603 46.1109 41.0501 43.6715C41.94 41.2321 43.5081 39.0976 45.5699 37.5192C47.6316 35.9407 50.1014 34.9839 52.6884 34.7614C52.826 34.75 52.9644 34.7659 53.0958 34.808C53.2273 34.8502 53.3491 34.9178 53.4544 35.007C53.5597 35.0963 53.6463 35.2054 53.7095 35.3281C53.7726 35.4509 53.8109 35.5848 53.8223 35.7224C53.8336 35.8599 53.8178 35.9984 53.7756 36.1298C53.7334 36.2612 53.6658 36.383 53.5766 36.4883C53.4873 36.5936 53.3782 36.6803 53.2555 36.7434C53.1328 36.8065 52.9988 36.8449 52.8613 36.8562C50.6716 37.0443 48.5813 37.8539 46.8362 39.1898C45.091 40.5256 43.7638 42.3321 43.0105 44.3967C42.2572 46.4613 42.1093 48.698 42.5841 50.8438C43.059 52.9896 44.1368 54.9552 45.6908 56.5092C47.2448 58.0632 49.2104 59.141 51.3562 59.6159C53.502 60.0907 55.7387 59.9428 57.8033 59.1895C59.8679 58.4362 61.6744 57.109 63.0102 55.3639C64.3461 53.6187 65.1557 51.5284 65.3438 49.3387C65.3667 49.061 65.4991 48.8036 65.7117 48.6234C65.9243 48.4432 66.1998 48.3548 66.4776 48.3777C66.7554 48.4007 67.0127 48.533 67.193 48.7456C67.3732 48.9583 67.4616 49.2338 67.4386 49.5116ZM58.0119 37.9036C58.3227 37.9036 58.6264 37.8115 58.8848 37.6388C59.1432 37.4662 59.3445 37.2208 59.4634 36.9337C59.5824 36.6466 59.6135 36.3307 59.5528 36.026C59.4922 35.7212 59.3426 35.4413 59.1229 35.2215C58.9031 35.0018 58.6232 34.8522 58.3184 34.7916C58.0137 34.7309 57.6978 34.7621 57.4107 34.881C57.1236 34.9999 56.8782 35.2013 56.7056 35.4596C56.5329 35.718 56.4408 36.0218 56.4408 36.3325C56.4408 36.7492 56.6063 37.1488 56.901 37.4434C57.1956 37.7381 57.5952 37.9036 58.0119 37.9036ZM62.7253 41.0459C63.036 41.0459 63.3398 40.9537 63.5981 40.7811C63.8565 40.6084 64.0579 40.3631 64.1768 40.076C64.2957 39.7889 64.3268 39.473 64.2662 39.1682C64.2056 38.8635 64.0559 38.5835 63.8362 38.3638C63.6165 38.1441 63.3366 37.9944 63.0318 37.9338C62.727 37.8732 62.4111 37.9043 62.124 38.0232C61.837 38.1421 61.5916 38.3435 61.4189 38.6019C61.2463 38.8602 61.1542 39.164 61.1542 39.4747C61.1542 39.8914 61.3197 40.291 61.6143 40.5857C61.909 40.8803 62.3086 41.0459 62.7253 41.0459ZM65.8675 45.7592C66.1783 45.7592 66.482 45.6671 66.7404 45.4944C66.9988 45.3218 67.2001 45.0764 67.319 44.7893C67.438 44.5023 67.4691 44.1864 67.4084 43.8816C67.3478 43.5768 67.1982 43.2969 66.9785 43.0771C66.7587 42.8574 66.4788 42.7078 66.174 42.6472C65.8693 42.5865 65.5534 42.6177 65.2663 42.7366C64.9792 42.8555 64.7338 43.0569 64.5612 43.3152C64.3885 43.5736 64.2964 43.8774 64.2964 44.1881C64.2964 44.6048 64.4619 45.0044 64.7566 45.299C65.0512 45.5937 65.4508 45.7592 65.8675 45.7592ZM53.8223 38.951C55.6867 38.951 57.5092 39.5039 59.0595 40.5397C60.6097 41.5755 61.8179 43.0478 62.5314 44.7703C63.2449 46.4928 63.4316 48.3882 63.0679 50.2168C62.7041 52.0454 61.8063 53.7251 60.488 55.0434C59.1696 56.3618 57.4899 57.2596 55.6613 57.6233C53.8327 57.9871 51.9373 57.8004 50.2148 57.0869C48.4923 56.3734 47.02 55.1652 45.9842 53.615C44.9484 52.0647 44.3955 50.2422 44.3955 48.3777C44.3983 45.8785 45.3924 43.4824 47.1596 41.7151C48.9269 39.9479 51.323 38.9538 53.8223 38.951ZM52.7748 48.3777C52.7748 48.6555 52.8852 48.922 53.0816 49.1184C53.2781 49.3148 53.5445 49.4252 53.8223 49.4252H60.1067C60.3845 49.4252 60.6509 49.3148 60.8474 49.1184C61.0438 48.922 61.1542 48.6555 61.1542 48.3777C61.1542 48.1 61.0438 47.8335 60.8474 47.6371C60.6509 47.4407 60.3845 47.3303 60.1067 47.3303H54.8697V42.0933C54.8697 41.8155 54.7593 41.5491 54.5629 41.3526C54.3665 41.1562 54.1001 41.0459 53.8223 41.0459C53.5445 41.0459 53.2781 41.1562 53.0816 41.3526C52.8852 41.5491 52.7748 41.8155 52.7748 42.0933V48.3777Z" fill="#2BA4FA"/>
<path fill-rule="evenodd" clip-rule="evenodd" d="M37.7426 17.378H47.6732C48.9899 17.3797 50.2517 17.903 51.1828 18.834C52.1139 19.7651 52.6372 21.0269 52.6389 22.3437V32.2858C51.7943 32.3165 50.9657 32.4098 50.1575 32.561L50.1575 32.2744H35.2608L35.2604 34.757H25.3294V32.2744H10.4328V44.6886C10.4336 45.3465 10.6954 45.9779 11.161 46.4434C11.6265 46.9089 12.2574 47.1703 12.9158 47.1712H36.6032C36.5356 47.7825 36.5009 48.4038 36.5009 49.0331C36.5009 49.2409 36.5047 49.4479 36.5122 49.6538H12.9149C11.5982 49.6525 10.3363 49.1288 9.40526 48.1978C8.47418 47.2672 7.95088 46.0049 7.94922 44.6886V22.3437C7.95092 21.0269 8.47422 19.7651 9.40526 18.834C10.3363 17.9029 11.5982 17.3797 12.9149 17.378H22.8459V14.8954C22.8476 13.5786 23.3709 12.3168 24.302 11.3857C25.233 10.4546 26.4949 9.93135 27.8116 9.92969H32.7769C34.0937 9.93139 35.3555 10.4547 36.2866 11.3857C37.2176 12.3168 37.7409 13.5786 37.7426 14.8954V17.378ZM26.0568 13.1405C25.5912 13.6061 25.3294 14.237 25.3285 14.8954L25.3285 17.378H35.2599V14.8954C35.2591 14.237 34.9972 13.6061 34.5317 13.1405C34.0662 12.675 33.4353 12.4132 32.7769 12.4123H27.8116C27.1533 12.4132 26.5223 12.675 26.0568 13.1405ZM35.2604 29.792H50.1571L50.1566 22.3437C50.1558 21.6853 49.8939 21.0544 49.4284 20.5888C48.9629 20.1233 48.3319 19.8615 47.6736 19.8606H12.9153C12.257 19.8615 11.626 20.1233 11.1605 20.5888C10.695 21.0544 10.4331 21.6853 10.4323 22.3437V29.792L25.329 29.7915V27.3089H35.2604V29.792Z" fill="#263A92"/>
</g>
<defs>
<filter id="filter0_d_1027_143818" x="-2.77539" y="9.65234" width="70.1387" height="57.7227" filterUnits="userSpaceOnUse" color-interpolation-filters="sRGB">
<feFlood flood-opacity="0" result="BackgroundImageFix"/>
<feColorMatrix in="SourceAlpha" type="matrix" values="0 0 0 0 0 0 0 0 0 0 0 0 0 0 0 0 0 0 127 0" result="hardAlpha"/>
<feOffset dx="2" dy="5"/>
<feGaussianBlur stdDeviation="4.5"/>
<feColorMatrix type="matrix" values="0 0 0 0 0.0627451 0 0 0 0 0.0941176 0 0 0 0 0.156863 0 0 0 0.08 0"/>
<feBlend mode="normal" in2="BackgroundImageFix" result="effect1_dropShadow_1027_143818"/>
<feBlend mode="normal" in="SourceGraphic" in2="effect1_dropShadow_1027_143818" result="shape"/>
</filter>
<linearGradient id="paint0_linear_1027_143818" x1="51.8566" y1="-13.5177" x2="42.8862" y2="87.0078" gradientUnits="userSpaceOnUse">
<stop stop-color="white"/>
<stop offset="1" stop-color="#99A3CC"/>
</linearGradient>
<clipPath id="clip0_1027_143818">
<rect width="72" height="72" fill="white" transform="translate(0.5)"/>
</clipPath>
</defs>
</svg>
