<svg width="73" height="72" viewBox="0 0 73 72" fill="none" xmlns="http://www.w3.org/2000/svg">
<g clip-path="url(#clip0_1027_173946)">
<g filter="url(#filter0_d_1027_173946)">
<path d="M53.6308 32.2902C53.5436 32.0052 53.5618 31.6992 53.6715 31.4221C53.7813 31.1444 53.978 30.9084 54.2373 30.7602L58.2698 28.4564C58.5024 28.3234 58.7005 28.1375 58.8481 27.9138C58.9957 27.6902 59.0887 27.435 59.1196 27.1688C59.3556 25.1477 59.3226 23.1043 59.0213 21.0919C58.9817 20.8285 58.8811 20.578 58.7276 20.3604C58.5742 20.1427 58.372 19.9639 58.1372 19.8381L54.03 17.6601C53.77 17.5223 53.5676 17.2933 53.4506 17.0233C53.3346 16.7554 53.3078 16.4594 53.3827 16.1773L54.5811 11.6641C54.6498 11.4065 54.6575 11.1365 54.6034 10.8755C54.5493 10.6145 54.435 10.3697 54.2696 10.1607C53.0079 8.56494 51.5396 7.144 49.9034 5.93528C49.6881 5.77571 49.4383 5.66894 49.1742 5.62358C48.9101 5.57821 48.639 5.59552 48.3828 5.6741L43.9594 7.02763C43.6735 7.11512 43.3663 7.10286 43.0883 6.99286C42.8101 6.8828 42.5776 6.68143 42.4289 6.42182L40.123 2.3947C39.9899 2.1621 39.804 1.96401 39.5804 1.81639C39.3567 1.66877 39.1015 1.57575 38.8353 1.54482C36.8142 1.30881 34.7708 1.34188 32.7584 1.64316C32.4951 1.68279 32.2446 1.78334 32.0269 1.93682C31.8093 2.0903 31.6304 2.29247 31.5047 2.52724L29.323 6.64322C29.1854 6.90278 28.9567 7.10564 28.6871 7.22239C28.4187 7.33865 28.1226 7.36407 27.84 7.28818L23.333 6.07742C23.0754 6.00866 22.8054 6.00101 22.5444 6.05509C22.2834 6.10917 22.0386 6.22348 21.8296 6.38891C20.2339 7.651 18.8124 9.11891 17.6022 10.7543C17.4428 10.9699 17.3363 11.2199 17.2913 11.4841C17.2463 11.7484 17.264 12.0196 17.343 12.2757L18.6965 16.6991C18.784 16.985 18.7718 17.2922 18.6618 17.5702C18.5517 17.8484 18.3503 18.0809 18.0907 18.2296L14.0636 20.5355C13.831 20.6686 13.6329 20.8545 13.4853 21.0781C13.3377 21.3018 13.2446 21.557 13.2137 21.8232C12.9777 23.8443 13.0108 25.8877 13.3121 27.9001C13.3517 28.1634 13.4522 28.4139 13.6057 28.6316C13.7592 28.8492 13.9614 29.0281 14.1961 29.1538L18.3037 31.332C18.5636 31.4698 18.7666 31.6988 18.8835 31.9687C18.9997 32.2368 19.0253 32.5326 18.95 32.815L17.7463 37.3255C17.6776 37.5831 17.6699 37.8531 17.724 38.1141C17.7781 38.3751 17.8924 38.6199 18.0578 38.8289C19.3199 40.4246 20.7878 41.8461 22.4232 43.0563C22.6388 43.2157 22.8888 43.3221 23.153 43.3672C23.4173 43.4122 23.6884 43.3945 23.9446 43.3155L28.3682 41.9619C28.6533 41.8747 28.9593 41.8929 29.2364 42.0026C29.5141 42.1125 29.7501 42.3091 29.8983 42.5684L32.202 46.6009C32.3351 46.8335 32.521 47.0316 32.7447 47.1792C32.9683 47.3268 33.2235 47.4198 33.4897 47.4507C35.5107 47.6877 37.5543 47.6547 39.5666 47.3524C39.83 47.3128 40.0804 47.2122 40.2981 47.0587C40.5158 46.9053 40.6946 46.7031 40.8203 46.4683L42.9983 42.3611C43.1362 42.1011 43.3652 41.8987 43.6352 41.7817C43.9031 41.6657 44.1991 41.6389 44.4812 41.7138L48.9944 42.9122C49.252 42.9809 49.522 42.9886 49.783 42.9345C50.044 42.8804 50.2888 42.7661 50.4978 42.6007C52.0935 41.3386 53.515 39.8707 54.7252 38.2353C54.8846 38.0197 54.991 37.7697 55.0361 37.5054C55.0811 37.2412 55.0634 36.97 54.9844 36.7139L53.6308 32.2902ZM33.0162 32.4502C31.4428 31.8277 30.0893 30.7526 29.1268 29.3609C28.1644 27.9691 27.6363 26.3232 27.6093 24.6313C27.5823 22.9394 28.0576 21.2775 28.9752 19.8558C29.8927 18.434 31.2112 17.3162 32.764 16.6438C34.3167 15.9714 36.034 15.7746 37.6987 16.0782C39.3633 16.3818 40.9006 17.1722 42.116 18.3494C43.3315 19.5267 44.1705 21.0379 44.5271 22.692C44.8836 24.3461 44.7417 26.0688 44.1191 27.6423C43.2844 29.7522 41.6456 31.4441 39.5634 32.3458C37.4812 33.2474 35.1261 33.285 33.0162 32.4502Z" fill="url(#paint0_linear_1027_173946)"/>
</g>
<g filter="url(#filter1_d_1027_173946)">
<path d="M14.1558 32.7578L10.4316 52.6199L16.6385 53.8613L17.8799 51.3785L29.0523 63.7923H32.1558L33.3972 62.5509V61.3095L35.8799 62.5509L40.2247 63.7923L40.8454 62.5509L41.4661 61.3095L43.3282 61.9302H45.811L46.4316 60.6888L47.0523 58.8268H48.9144L50.7765 56.9647L51.3972 54.4819L53.8799 51.3785L55.1213 53.8613L61.9489 52.6199L57.6041 32.7578L51.3972 33.9992L50.7765 35.8613L48.9144 36.482L44.5696 35.8613L40.8454 34.6199L37.742 32.7578H35.2592L31.5351 35.2406H20.3627V33.9992L14.1558 32.7578Z" fill="white"/>
</g>
<path fill-rule="evenodd" clip-rule="evenodd" d="M22.6012 34.2231L23.8611 32.2221L23.1941 29.3317L22.6012 27.4048H18.9697L18.3027 24.3662V22.2911L19.7429 21.4758H22.6012L23.8611 17.1032L21.5637 13.9164L25.714 10.359L28.382 12.7306L33.0511 10.9519V7.39453H38.9059V10.9519L43.2785 12.7306L46.3171 10.359L50.4674 13.9164L47.7994 17.1032L49.504 21.4758H54.173L53.4319 27.4048H50.4674L47.7994 32.2221L50.4674 34.2231L48.6146 36.6688L42.241 35.5572L38.9059 33.4079L36.1638 32.2221L33.7922 34.2231L31.3465 35.5572H22.6012V34.2231ZM36.2378 32.1493C40.4946 32.1493 43.9455 28.6985 43.9455 24.4416C43.9455 20.1848 40.4946 16.734 36.2378 16.734C31.981 16.734 28.5302 20.1848 28.5302 24.4416C28.5302 28.6985 31.981 32.1493 36.2378 32.1493Z" fill="#2BA4FA"/>
<path fill-rule="evenodd" clip-rule="evenodd" d="M55.8879 53.1732L52.2381 34.8876L56.9349 33.9545L60.5843 52.238L55.8879 53.1732ZM50.9934 53.8211L53.5915 51.228L50.7977 37.2265C47.7094 38.1844 43.7088 38.4326 38.9421 34.5127L38.9425 34.5123C38.3975 34.0104 37.6902 33.7201 36.9487 33.6949C36.2073 33.6696 35.4818 33.9111 34.904 34.3747L28.6067 39.6215V39.6219C28.3656 39.7923 28.1772 40.0271 28.0633 40.2992C27.95 40.5718 27.9154 40.8705 27.9643 41.1617L29.6592 48.9136C32.6704 47.8106 32.8727 45.5165 33.1434 42.4422C33.164 42.2095 33.1851 41.9735 33.207 41.7388V41.7165V41.7169C33.2357 41.3871 33.3575 41.0724 33.559 40.8095C33.76 40.5461 34.0319 40.3459 34.3434 40.2314C35.6535 39.7443 37.769 40.6639 40.0018 42.6946L40.038 42.7295L50.9949 53.821L50.9934 53.8211ZM49.8553 57.6313C49.5265 57.9564 49.0818 58.139 48.619 58.139C48.1558 58.139 47.7115 57.9564 47.3827 57.6313L39.3921 49.6554C39.0271 49.2903 38.4345 49.2903 38.069 49.6546C37.7031 50.0193 37.7031 50.6104 38.0682 50.9756L46.0603 58.9488C46.489 59.3926 46.6517 60.0291 46.4886 60.6232C46.3251 61.2176 45.8597 61.682 45.2641 61.8453C44.6685 62.0081 44.0307 61.8457 43.5865 61.4175L35.1445 52.9916C34.7799 52.6273 34.1881 52.6268 33.8231 52.9911C33.4581 53.355 33.4576 53.9457 33.8227 54.31L40.1955 60.6704C40.6373 61.1113 40.8101 61.7537 40.6482 62.356C40.4868 62.9585 40.0155 63.4292 39.4119 63.5908C38.8083 63.7523 38.1646 63.5802 37.7225 63.1394L30.8941 56.3243H30.8945C30.5266 55.9755 29.947 55.9831 29.5883 56.3411C29.2296 56.6995 29.2225 57.2775 29.5723 57.6444L32.7446 60.8105V60.8109C33.1787 61.253 33.346 61.8916 33.1833 62.4894C33.0211 63.0868 32.554 63.5538 31.9555 63.7166C31.3569 63.8794 30.7167 63.7133 30.2732 63.2804L18.396 51.4252L21.4021 36.364L29.5975 36.3636L27.4095 38.1869C26.9012 38.5722 26.5125 39.093 26.2882 39.6891C26.0636 40.2852 26.0126 40.9327 26.1403 41.5566L28.0506 50.2929C28.1037 50.5386 28.2546 50.7528 28.4683 50.8861C28.6824 51.0195 28.9408 51.0607 29.1857 51.001C34.3787 49.7229 34.7117 45.941 35.0059 42.6036C35.0245 42.3903 35.0434 42.1766 35.0662 41.9621C35.4477 41.9133 36.7759 42.2843 38.7287 44.0558L50.2153 55.6891C50.3557 56.0117 50.3961 56.3693 50.3316 56.7151C50.2671 57.0609 50.1002 57.3794 49.8524 57.6301L49.8553 57.6313ZM16.1399 53.1732L19.7902 34.8876L15.0934 33.9545L11.4435 52.238L16.1399 53.1732ZM36.0141 31.423C34.2045 31.423 32.4689 30.7057 31.1891 29.4285C29.909 28.1517 29.1903 26.4194 29.1899 24.6133C29.1899 22.8069 29.9086 21.075 31.1883 19.7977C32.468 18.5201 34.2038 17.8028 36.0134 17.8028C37.8233 17.8024 39.5586 18.5201 40.8384 19.7974C42.1181 21.0745 42.8372 22.8065 42.8372 24.613C42.8351 26.4182 42.1155 28.1493 40.8363 29.426C39.5573 30.7024 37.8233 31.4208 36.0141 31.423ZM22.4374 26.62C22.8774 26.62 23.258 26.9263 23.3508 27.3558C23.6774 28.869 24.276 30.3103 25.1173 31.6106C25.3554 31.98 25.3036 32.465 24.993 32.7759L23.2673 34.4981H31.8362L33.6739 32.9652C31.0189 32.2244 28.8729 30.2703 27.8912 27.6994C26.9095 25.1282 27.2079 22.2449 28.6954 19.9281C30.1834 17.6118 32.6838 16.1369 35.4345 15.9535C38.1853 15.7701 40.8602 16.9 42.6432 18.9984C44.4266 21.0971 45.1065 23.9153 44.4759 26.5938C43.8453 29.2723 41.9793 31.4935 39.4465 32.5802C39.6863 32.7262 39.916 32.889 40.1327 33.0673C43.3226 35.6946 46.0377 36.1812 48.3774 35.8641L49.255 34.9882L47.0362 32.7758C46.7251 32.4649 46.6729 31.9799 46.911 31.6106C47.7528 30.3107 48.3513 28.8694 48.6776 27.3562C48.7703 26.9266 49.1513 26.6204 49.5918 26.6204H52.7291V22.607H49.5918C49.1513 22.6066 48.7707 22.3003 48.6776 21.8712C48.3509 20.3576 47.7523 18.9159 46.911 17.6155C46.6729 17.2462 46.7251 16.7611 47.0362 16.4503L49.255 14.2358L46.4114 11.3978L44.1927 13.6131L44.1922 13.6127C43.8812 13.9232 43.3947 13.9749 43.0251 13.7372C41.7223 12.8975 40.2782 12.3001 38.7624 11.9737C38.3316 11.8816 38.0243 11.5013 38.0248 11.0616V7.93094H34.0035V11.0616C34.0039 11.5013 33.6966 11.8811 33.2663 11.9737C31.751 12.3001 30.3069 12.8975 29.0044 13.7372C28.6343 13.9749 28.1483 13.9232 27.8373 13.6123L25.6168 11.3978L22.7729 14.2361L24.9926 16.4506L24.993 16.4502C25.3036 16.7611 25.3555 17.2461 25.1173 17.6154C24.2756 18.9157 23.6774 20.3575 23.3508 21.8711C23.2576 22.3002 22.8774 22.6065 22.4374 22.6069H19.2993V26.6199L22.4374 26.62ZM62.6023 52.79L58.5857 32.6746C58.5372 32.4319 58.3943 32.2186 58.1882 32.0815C57.9821 31.9439 57.7296 31.8943 57.4868 31.9426L50.9567 33.2417C50.7578 33.2816 50.5774 33.3847 50.4421 33.5353L48.8774 31.9737C49.5101 30.8782 49.9974 29.7058 50.3278 28.4849H53.6658C53.9136 28.4849 54.1514 28.3865 54.3267 28.2115C54.502 28.0365 54.6007 27.7992 54.6007 27.5518V21.6736C54.6007 21.4262 54.5021 21.189 54.3267 21.014C54.1513 20.839 53.9136 20.7405 53.6658 20.7405H50.3257C49.9953 19.5201 49.508 18.3472 48.8757 17.2517L51.2362 14.8959H51.2357C51.6012 14.5311 51.6012 13.9405 51.2357 13.5757L47.0725 9.41847C46.8971 9.24347 46.6594 9.14544 46.4116 9.14544C46.1637 9.14544 45.926 9.24346 45.7511 9.41847L43.3902 11.7735C42.2921 11.1428 41.117 10.6561 39.8942 10.3262V6.9978C39.8938 6.48289 39.4752 6.06599 38.9593 6.06641H33.0691C32.5528 6.06641 32.1342 6.48415 32.1342 6.99949V10.3292C30.9114 10.6595 29.7362 11.1458 28.6383 11.7764L26.2774 9.42437C25.9124 9.06089 25.321 9.06089 24.956 9.42437L20.7906 13.5816C20.6152 13.7566 20.5166 13.9939 20.5166 14.2413C20.5166 14.4886 20.6152 14.7259 20.7906 14.9009L23.151 17.258V17.2576C22.5187 18.3531 22.0311 19.5259 21.7006 20.7464H18.3644C17.8485 20.7464 17.4299 21.1642 17.4299 21.6795V27.5577C17.4299 28.0731 17.8485 28.4908 18.3644 28.4908H21.7028C22.0333 29.7117 22.5209 30.8841 23.1528 31.9799L21.5882 33.5415L21.5886 33.5411C21.4537 33.3897 21.2733 33.2866 21.0744 33.2475L14.5418 31.9425C14.2991 31.8941 14.0466 31.9438 13.8405 32.0813C13.6343 32.2185 13.4914 32.4318 13.443 32.6745L9.42637 52.7899C9.32563 53.2951 9.65399 53.7865 10.1602 53.8874L16.6898 55.1848H16.6903C16.7497 55.1974 16.8104 55.2038 16.8715 55.2033C17.3171 55.2029 17.7006 54.8891 17.7883 54.4533L17.9527 53.6266L28.9505 64.603L28.9501 64.6025C29.6291 65.2798 30.551 65.658 31.5111 65.6526C32.2956 65.6542 33.0589 65.401 33.6861 64.9307C34.3133 64.4608 34.7698 63.7994 34.9869 63.0473L36.401 64.4579C37.3073 65.3624 38.6253 65.7208 39.8662 65.4002C41.1067 65.0797 42.085 64.1277 42.4374 62.8976C43.1536 63.5257 44.0894 63.8458 45.0411 63.7886C45.9929 63.7318 46.8835 63.3019 47.5192 62.593C48.1548 61.8837 48.4844 60.9531 48.4364 60.0028C49.4581 60.0566 50.4545 59.6746 51.1778 58.9523C51.6339 58.4904 51.958 57.9158 52.1174 57.2872C52.2767 56.6592 52.2653 55.9995 52.0841 55.3769L54.0335 53.4321L54.2379 54.4573C54.3248 54.8931 54.7079 55.2069 55.153 55.2073C55.2142 55.2078 55.2748 55.2015 55.3343 55.1888L61.8648 53.8914C62.1097 53.8439 62.3251 53.7004 62.4633 53.4939C62.6016 53.2869 62.6517 53.0332 62.602 52.7896L62.6023 52.79Z" fill="#263A92"/>
</g>
<defs>
<filter id="filter0_d_1027_173946" x="6.05859" y="-2.60938" width="64.2168" height="64.2148" filterUnits="userSpaceOnUse" color-interpolation-filters="sRGB">
<feFlood flood-opacity="0" result="BackgroundImageFix"/>
<feColorMatrix in="SourceAlpha" type="matrix" values="0 0 0 0 0 0 0 0 0 0 0 0 0 0 0 0 0 0 127 0" result="hardAlpha"/>
<feOffset dx="2" dy="5"/>
<feGaussianBlur stdDeviation="4.5"/>
<feColorMatrix type="matrix" values="0 0 0 0 0.0627451 0 0 0 0 0.0941176 0 0 0 0 0.156863 0 0 0 0.08 0"/>
<feBlend mode="normal" in2="BackgroundImageFix" result="effect1_dropShadow_1027_173946"/>
<feBlend mode="normal" in="SourceGraphic" in2="effect1_dropShadow_1027_173946" result="shape"/>
</filter>
<filter id="filter1_d_1027_173946" x="6.43164" y="29.7578" width="63.5176" height="43.0352" filterUnits="userSpaceOnUse" color-interpolation-filters="sRGB">
<feFlood flood-opacity="0" result="BackgroundImageFix"/>
<feColorMatrix in="SourceAlpha" type="matrix" values="0 0 0 0 0 0 0 0 0 0 0 0 0 0 0 0 0 0 127 0" result="hardAlpha"/>
<feOffset dx="2" dy="3"/>
<feGaussianBlur stdDeviation="3"/>
<feColorMatrix type="matrix" values="0 0 0 0 0.0627451 0 0 0 0 0.0941176 0 0 0 0 0.156863 0 0 0 0.08 0"/>
<feBlend mode="normal" in2="BackgroundImageFix" result="effect1_dropShadow_1027_173946"/>
<feBlend mode="normal" in="SourceGraphic" in2="effect1_dropShadow_1027_173946" result="shape"/>
</filter>
<linearGradient id="paint0_linear_1027_173946" x1="75.0434" y1="-20.9224" x2="17.5689" y2="85.5039" gradientUnits="userSpaceOnUse">
<stop stop-color="white"/>
<stop offset="1" stop-color="#99A3CC"/>
</linearGradient>
<clipPath id="clip0_1027_173946">
<rect width="72" height="72" fill="white" transform="translate(0.5)"/>
</clipPath>
</defs>
</svg>
