<svg width="20" height="20" viewBox="0 0 20 20" fill="none" xmlns="http://www.w3.org/2000/svg">
<rect width="20" height="20" fill="white" fill-opacity="0.01"/>
<path d="M10.0026 15.2198C10.5831 15.2198 11.1354 15.1715 11.6595 15.075C12.1837 14.9784 12.6883 14.8461 13.1735 14.6782L12.4327 13.9665C12.0559 14.084 11.666 14.1785 11.2632 14.2499C10.8603 14.3171 10.4401 14.3507 10.0026 14.3507C9.31817 14.3507 8.6619 14.2688 8.03379 14.105C7.41001 13.9371 6.82304 13.7187 6.2729 13.45C5.72709 13.1771 5.2311 12.8811 4.78492 12.5619C4.34308 12.2386 3.96188 11.9195 3.64132 11.6046C3.32077 11.2855 3.07602 10.9958 2.90708 10.7354C2.73814 10.4751 2.65367 10.2736 2.65367 10.1308C2.65367 9.98805 2.7728 9.75292 3.01104 9.42541C3.25363 9.0937 3.59801 8.7305 4.04418 8.3358C4.49036 7.93691 5.02101 7.55902 5.63613 7.20211L4.94087 6.5282C4.25211 6.93969 3.66298 7.37847 3.17349 7.84454C2.68832 8.31061 2.31579 8.74939 2.05588 9.16088C1.79597 9.56817 1.66602 9.89148 1.66602 10.1308C1.66602 10.3324 1.75698 10.5969 1.93892 10.9244C2.12519 11.2477 2.3916 11.6004 2.73814 11.9825C3.08902 12.3646 3.51137 12.7467 4.0052 13.1288C4.50336 13.5067 5.06216 13.8531 5.68161 14.168C6.30106 14.4829 6.97249 14.737 7.69591 14.9301C8.42365 15.1232 9.19255 15.2198 10.0026 15.2198ZM10.0026 5.0544C9.45246 5.0544 8.93264 5.09849 8.44314 5.18667C7.95365 5.27484 7.47931 5.39661 7.02014 5.55197L7.75439 6.26367C8.10959 6.1545 8.4713 6.07052 8.83951 6.01174C9.20771 5.94876 9.59541 5.91727 10.0026 5.91727C10.6827 5.91727 11.3368 6.00124 11.9649 6.1692C12.5974 6.33715 13.1865 6.55969 13.7323 6.83681C14.2781 7.11394 14.7719 7.41626 15.2138 7.74377C15.66 8.07128 16.0412 8.39459 16.3574 8.7137C16.6779 9.03281 16.9227 9.31833 17.0916 9.57027C17.2649 9.8222 17.3515 10.009 17.3515 10.1308C17.3515 10.2988 17.2367 10.5444 17.0071 10.8677C16.7776 11.1868 16.4505 11.5374 16.026 11.9195C15.6015 12.2974 15.099 12.6606 14.5185 13.0091L15.2073 13.6767C15.8614 13.2695 16.4202 12.837 16.8837 12.3793C17.3515 11.9216 17.7089 11.4912 17.9558 11.0882C18.2071 10.6851 18.3327 10.3659 18.3327 10.1308C18.3327 9.93347 18.2417 9.67314 18.0598 9.34983C17.8778 9.02232 17.6136 8.66751 17.2671 8.28542C16.9248 7.89912 16.5068 7.51703 16.013 7.13913C15.5192 6.75704 14.9625 6.41063 14.3431 6.09992C13.728 5.785 13.0544 5.53307 12.3223 5.34412C11.5945 5.15098 10.8213 5.0544 10.0026 5.0544ZM10.0026 13.4689C10.2842 13.4689 10.5549 13.4353 10.8148 13.3681C11.0747 13.3009 11.3238 13.2086 11.5621 13.091L6.93567 8.61293C6.81005 8.83547 6.71475 9.0748 6.64977 9.33093C6.58479 9.58706 6.55231 9.85369 6.55231 10.1308C6.55231 10.7354 6.70609 11.2918 7.01364 11.7999C7.32554 12.3037 7.74139 12.7089 8.26121 13.0154C8.78103 13.3177 9.36149 13.4689 10.0026 13.4689ZM13.115 11.5101C13.2233 11.3002 13.3056 11.0798 13.3619 10.8488C13.4226 10.6179 13.4529 10.3785 13.4529 10.1308C13.4529 9.51358 13.2969 8.95303 12.9851 8.44917C12.6732 7.94531 12.2573 7.54642 11.7375 7.2525C11.2177 6.95438 10.6394 6.80532 10.0026 6.80532C9.74702 6.80532 9.50011 6.83262 9.26186 6.8872C9.02361 6.93759 8.79619 7.01317 8.5796 7.11394L13.115 11.5101ZM14.8304 15.2954C14.917 15.3752 15.0167 15.4151 15.1293 15.4151C15.2463 15.4193 15.3481 15.3794 15.4347 15.2954C15.5257 15.203 15.569 15.1023 15.5647 14.9931C15.5647 14.8839 15.5213 14.7873 15.4347 14.7034L5.12281 4.708C5.03617 4.62402 4.93221 4.58203 4.81092 4.58203C4.68962 4.58203 4.58783 4.62402 4.50552 4.708C4.42322 4.78358 4.38207 4.88015 4.38207 4.99772C4.38207 5.11529 4.42322 5.21396 4.50552 5.29374L14.8304 15.2954Z" fill="#626576"/>
</svg>
