<svg width="20" height="21" viewBox="0 0 20 21" fill="none" xmlns="http://www.w3.org/2000/svg">
<rect width="20" height="20" transform="translate(0 0.5)" fill="white" fill-opacity="0.01"/>
<path d="M10.0036 15.5C10.8223 15.5 11.5955 15.405 12.3233 15.215C13.0553 15.025 13.7289 14.7751 14.3441 14.4653C14.9635 14.1555 15.5201 13.8147 16.014 13.443C16.5078 13.0671 16.9258 12.6912 17.268 12.3154C17.6146 11.9395 17.8788 11.5925 18.0608 11.2745C18.2427 10.9523 18.3337 10.6921 18.3337 10.4938C18.3337 10.2997 18.2427 10.0436 18.0608 9.72553C17.8788 9.40335 17.6124 9.05432 17.2615 8.67844C16.915 8.29843 16.497 7.92255 16.0075 7.55081C15.518 7.17493 14.9635 6.83416 14.3441 6.5285C13.7246 6.21871 13.051 5.97088 12.3233 5.78501C11.5955 5.595 10.8223 5.5 10.0036 5.5C9.19353 5.5 8.42679 5.595 7.70338 5.78501C6.97997 5.97088 6.30853 6.21871 5.68909 6.5285C5.06963 6.83416 4.513 7.17493 4.01917 7.55081C3.52534 7.92255 3.10299 8.29843 2.75211 8.67844C2.40124 9.05432 2.13266 9.40335 1.94639 9.72553C1.76013 10.0436 1.66699 10.2997 1.66699 10.4938C1.66699 10.6921 1.75796 10.9523 1.9399 11.2745C2.12616 11.5925 2.39257 11.9395 2.73912 12.3154C3.08999 12.6912 3.51235 13.0671 4.00617 13.443C4.50433 13.8147 5.06314 14.1555 5.68259 14.4653C6.30204 14.7751 6.97347 15.025 7.69688 15.215C8.42463 15.405 9.19353 15.5 10.0036 15.5ZM10.0036 14.645C9.31915 14.645 8.66288 14.5644 8.03476 14.4033C7.41098 14.2381 6.82402 14.0233 6.27388 13.759C5.72807 13.4905 5.23208 13.1993 4.7859 12.8854C4.34406 12.5673 3.96286 12.2534 3.6423 11.9436C3.32175 11.6297 3.077 11.3447 2.90806 11.0886C2.73912 10.8325 2.65465 10.6342 2.65465 10.4938C2.65465 10.374 2.73912 10.1902 2.90806 9.94238C3.077 9.69455 3.32175 9.41367 3.6423 9.09975C3.96286 8.78583 4.34406 8.46778 4.7859 8.1456C5.23208 7.82342 5.72807 7.52602 6.27388 7.25341C6.82402 6.98079 7.41098 6.76188 8.03476 6.59665C8.66288 6.43143 9.31915 6.34882 10.0036 6.34882C10.6837 6.34882 11.3356 6.43143 11.9594 6.59665C12.5875 6.76188 13.1745 6.98079 13.7203 7.25341C14.2661 7.52602 14.7621 7.82342 15.2083 8.1456C15.6544 8.46778 16.0356 8.78583 16.3519 9.09975C16.6724 9.41367 16.9193 9.69455 17.0926 9.94238C17.2659 10.1902 17.3525 10.374 17.3525 10.4938C17.3525 10.6342 17.2659 10.8325 17.0926 11.0886C16.9193 11.3447 16.6724 11.6297 16.3519 11.9436C16.0356 12.2534 15.6544 12.5673 15.2083 12.8854C14.7621 13.1993 14.2661 13.4905 13.7203 13.759C13.1745 14.0233 12.5875 14.2381 11.9594 14.4033C11.3356 14.5644 10.6837 14.645 10.0036 14.645ZM10.0036 13.7776C10.4801 13.7776 10.9263 13.6908 11.3421 13.5173C11.758 13.3439 12.124 13.1064 12.4402 12.8048C12.7564 12.5033 13.0034 12.1543 13.181 11.7577C13.3629 11.3612 13.4539 10.9399 13.4539 10.4938C13.4539 9.88662 13.2979 9.33519 12.986 8.83953C12.6741 8.34387 12.2583 7.95147 11.7385 7.66233C11.2186 7.36906 10.6404 7.22243 10.0036 7.22243C9.36247 7.22243 8.77984 7.36906 8.25569 7.66233C7.73587 7.95147 7.32001 8.34387 7.00812 8.83953C6.70056 9.33519 6.54895 9.88662 6.55328 10.4938C6.55761 11.0886 6.71356 11.6359 7.02112 12.1357C7.32868 12.6314 7.74237 13.0299 8.26218 13.3315C8.782 13.6289 9.36247 13.7776 10.0036 13.7776ZM10.0036 11.5657C9.68735 11.5657 9.41878 11.4603 9.19786 11.2497C8.97693 11.039 8.86647 10.7871 8.86647 10.4938C8.86647 10.1964 8.97693 9.94444 9.19786 9.73792C9.41878 9.52726 9.68735 9.42193 10.0036 9.42193C10.3155 9.42193 10.5819 9.52726 10.8028 9.73792C11.0237 9.94444 11.1342 10.1964 11.1342 10.4938C11.1342 10.7871 11.0237 11.039 10.8028 11.2497C10.5819 11.4603 10.3155 11.5657 10.0036 11.5657Z" fill="#626576"/>
</svg>
