<svg width="24" height="24" viewBox="0 0 24 24" fill="none" xmlns="http://www.w3.org/2000/svg">
<circle cx="12" cy="12" r="12" fill="#F4F5FA"/>
<rect width="20" height="20" transform="translate(2 2)" fill="white" fill-opacity="0.01"/>
<path d="M12.6662 7.33236C12.6662 6.96417 12.3677 6.66569 11.9995 6.66569C11.6313 6.66569 11.3328 6.96417 11.3328 7.33236V12.3324C11.3328 12.7005 11.6313 12.999 11.9995 12.999H15.3328C15.701 12.999 15.9995 12.7005 15.9995 12.3324C15.9995 11.9642 15.701 11.6657 15.3328 11.6657H12.6662V7.33236Z" fill="#626576"/>
<path fill-rule="evenodd" clip-rule="evenodd" d="M11.9993 18.9993C15.8653 18.9993 18.9993 15.8653 18.9993 11.9993C18.9993 8.13336 15.8653 4.99935 11.9993 4.99935C8.13336 4.99935 4.99935 8.13336 4.99935 11.9993C4.99935 15.8653 8.13336 18.9993 11.9993 18.9993ZM11.9993 20.3327C16.6017 20.3327 20.3327 16.6017 20.3327 11.9993C20.3327 7.39698 16.6017 3.66602 11.9993 3.66602C7.39698 3.66602 3.66602 7.39698 3.66602 11.9993C3.66602 16.6017 7.39698 20.3327 11.9993 20.3327Z" fill="#626576"/>
</svg>
