<svg width="24" height="24" viewBox="0 0 24 24" fill="none" xmlns="http://www.w3.org/2000/svg">
<circle cx="12" cy="12" r="12" fill="#F4F5FA"/>
<path d="M9.49658 6.93066H18.9237" stroke="#626576" stroke-width="1.2" stroke-linecap="round" stroke-linejoin="round"/>
<path d="M9.49658 11.6439H18.9237" stroke="#626576" stroke-width="1.2" stroke-linecap="round" stroke-linejoin="round"/>
<path d="M9.49658 16.3572H18.9237" stroke="#626576" stroke-width="1.2" stroke-linecap="round" stroke-linejoin="round"/>
<path d="M6.25554 12.8222C6.90635 12.8222 7.43394 12.2946 7.43394 11.6438C7.43394 10.993 6.90635 10.4654 6.25554 10.4654C5.60473 10.4654 5.07715 10.993 5.07715 11.6438C5.07715 12.2946 5.60473 12.8222 6.25554 12.8222Z" fill="#626576"/>
<path d="M6.25554 8.10893C6.90635 8.10893 7.43394 7.58134 7.43394 6.93053C7.43394 6.27972 6.90635 5.75214 6.25554 5.75214C5.60473 5.75214 5.07715 6.27972 5.07715 6.93053C5.07715 7.58134 5.60473 8.10893 6.25554 8.10893Z" fill="#626576"/>
<path d="M6.25554 17.5354C6.90635 17.5354 7.43394 17.0079 7.43394 16.357C7.43394 15.7062 6.90635 15.1786 6.25554 15.1786C5.60473 15.1786 5.07715 15.7062 5.07715 16.357C5.07715 17.0079 5.60473 17.5354 6.25554 17.5354Z" fill="#626576"/>
</svg>
