<svg width="24" height="24" viewBox="0 0 24 24" fill="none" xmlns="http://www.w3.org/2000/svg">
<circle cx="12" cy="12" r="12" fill="#F4F5FA"/>
<path d="M7.80469 14.7981H18.9935C19.179 14.7981 19.3568 14.7244 19.488 14.5933C19.6191 14.4621 19.6928 14.2843 19.6928 14.0988V5.00789C19.6928 4.82243 19.6191 4.64456 19.488 4.51341C19.3568 4.38227 19.179 4.30859 18.9935 4.30859H9.20329C9.01782 4.30859 8.83995 4.38227 8.70881 4.51341C8.57766 4.64456 8.50399 4.82243 8.50399 5.00789V5.7072" stroke="#626576" stroke-width="1.2" stroke-linecap="round" stroke-linejoin="round"/>
<path d="M9.90259 12.6992L7.80469 14.7971L9.90259 16.895" stroke="#626576" stroke-width="1.2" stroke-linecap="round" stroke-linejoin="round"/>
<path d="M16.1967 9.20312H5.00789C4.82243 9.20312 4.64456 9.2768 4.51341 9.40795C4.38227 9.53909 4.30859 9.71696 4.30859 9.90243V18.9933C4.30859 19.1788 4.38227 19.3567 4.51341 19.4878C4.64456 19.619 4.82243 19.6926 5.00789 19.6926H14.7981C14.9836 19.6926 15.1614 19.619 15.2926 19.4878C15.4237 19.3567 15.4974 19.1788 15.4974 18.9933V18.294" stroke="#626576" stroke-width="1.2" stroke-linecap="round" stroke-linejoin="round"/>
<path d="M14.0996 11.3013L16.1975 9.20337L14.0996 7.10547" stroke="#626576" stroke-width="1.2" stroke-linecap="round" stroke-linejoin="round"/>
</svg>
