<svg width="24" height="24" viewBox="0 0 24 24" fill="none" xmlns="http://www.w3.org/2000/svg">
<rect width="24" height="24" rx="12" fill="#F4F5FA"/>
<path d="M5.64619 14.6181H6.09657C6.27748 14.613 6.423 14.4683 6.42849 14.2881V11.0383C6.42849 8.07327 8.81434 5.64686 11.7554 5.63045H11.7836C13.2041 5.6329 14.5655 6.1974 15.5684 7.19991C16.5714 8.20243 17.1336 9.56068 17.1313 10.9763V15.172C17.1313 16.5449 16.1246 17.6815 14.8 17.8546V17.6406C14.7928 17.4598 14.6459 17.3153 14.4644 17.3106H13.228C12.9252 17.3106 12.6454 17.4717 12.4938 17.733C12.3424 17.9943 12.3424 18.3163 12.4938 18.5777C12.6454 18.839 12.9253 19 13.228 19H14.4644C14.6401 19 14.8 18.8714 14.8 18.6964V18.4932C16.4425 18.3167 17.7671 16.8947 17.7671 15.1719V14.6182H17.8996C18.6662 14.6182 19.3747 14.2107 19.7581 13.5491C20.1413 12.8875 20.1413 12.0726 19.7581 11.411C19.3747 10.7494 18.6662 10.342 17.8996 10.342H17.7459C17.5853 8.87627 16.888 7.52101 15.7874 6.53549C14.6866 5.54996 13.26 5.00319 11.7801 5C11.7684 5 11.7565 5.00528 11.7448 5.00528C8.69338 5.02263 6.16985 7.33289 5.82008 10.3422H5.6458C4.87922 10.3422 4.17073 10.7497 3.78754 11.4113C3.40415 12.0729 3.40415 12.8878 3.78754 13.5494C4.17074 14.211 4.87922 14.6184 5.6458 14.6184L5.64619 14.6181Z" fill="#626576" stroke="#626576" stroke-width="0.2"/>
</svg>
