<svg width="24" height="24" viewBox="0 0 24 24" fill="none" xmlns="http://www.w3.org/2000/svg">
<circle cx="12" cy="12" r="12" fill="#F4F5FA"/>
<path d="M19.1648 11.5692C19.1648 11.2263 18.9363 10.9978 18.5934 10.9978H17.622L18.4791 6.54065C18.5362 6.25487 18.3077 5.91202 18.0219 5.85493C17.7361 5.79785 17.3933 6.02636 17.3362 6.31213L16.479 10.9977H13.6218L12.5362 7.56913C12.4218 7.22627 12.079 6.99776 11.7361 6.99776C11.3362 6.99776 11.0504 7.22627 10.9361 7.56913L9.85042 10.9977H6.99322L6.07899 6.31213C6.0219 6.02636 5.73613 5.79785 5.39327 5.85493C5.1075 5.91202 4.87899 6.19779 4.93607 6.54065L5.79322 10.9978H4.87899C4.53613 10.9978 4.30762 11.2263 4.30762 11.5692C4.30762 11.912 4.53613 12.1405 4.87899 12.1405H6.07899L6.3075 13.2834L4.87899 13.2836C4.53613 13.2836 4.30762 13.5121 4.30762 13.855C4.30762 14.1978 4.53613 14.4264 4.87899 14.4264H6.47893L7.22173 18.4263H8.7075L9.96459 14.4264H13.4502L14.7073 18.4263H16.1931L16.9359 14.4264H18.5933C18.9361 14.4264 19.1646 14.1978 19.1646 13.855C19.1646 13.5121 18.9361 13.2836 18.5933 13.2836H17.1648L17.3933 12.1407H18.5933C18.9361 12.1407 19.1648 11.9122 19.1648 11.5693V11.5692ZM11.736 8.8263L12.4217 10.9978H11.0502L11.736 8.8263ZM7.22182 12.1405H9.50747L9.16462 13.2834H7.45033L7.22182 12.1405ZM8.07896 16.6547L7.67902 14.4261H8.82193L8.07896 16.6547ZM10.3646 13.2834L10.7075 12.1404H12.7646L13.1075 13.2834H10.3646ZM15.3935 16.6547L14.7078 14.4261H15.8507L15.3935 16.6547ZM16.0219 13.2834H14.3076L13.9648 12.1404H16.2504L16.0219 13.2834Z" fill="#626576"/>
</svg>
