<svg width="48" height="48" viewBox="0 0 48 48" fill="none" xmlns="http://www.w3.org/2000/svg">
<path fill-rule="evenodd" clip-rule="evenodd" d="M5.25864 36.073C3.79246 38.7388 5.72107 42.0005 8.76351 42.0005H39.2334C42.2758 42.0005 44.2044 38.7388 42.7382 36.073L27.5034 8.37311C25.9836 5.61003 22.0134 5.60998 20.4936 8.3731M20.4936 8.3731L5.25864 36.073L20.4936 8.3731Z" fill="#E01839"/>
<path d="M18.3039 7.1683L18.3039 7.16831L3.069 34.8682L3.50711 35.1091L3.069 34.8682C0.686434 39.2002 3.8205 44.5005 8.76441 44.5005H39.2343C44.1782 44.5005 47.3123 39.2002 44.9296 34.8682L29.6948 7.16831C27.2252 2.67826 20.7735 2.67829 18.3039 7.1683Z" stroke="#A9122B"/>
<path fill-rule="evenodd" clip-rule="evenodd" d="M26 18C26 16.8954 25.1046 16 24 16C22.8954 16 22 16.8954 22 18V26C22 27.1046 22.8954 28 24 28C25.1046 28 26 27.1046 26 26V18ZM24 36C25.1046 36 26 35.1046 26 34C26 32.8954 25.1046 32 24 32C22.8954 32 22 32.8954 22 34C22 35.1046 22.8954 36 24 36Z" fill="white"/>
</svg>
