<svg width="179" height="44" viewBox="0 0 179 44" fill="none" xmlns="http://www.w3.org/2000/svg">
<g clip-path="url(#clip0_4284_147618)" filter="url(#filter0_d_4284_147618)">
<path d="M78.1218 28.4303H72.1699L66.7527 21.3024H65.0019V28.4303H60.146V8.99334H67.9555C68.8996 8.98228 69.843 9.05083 70.7755 9.19826C71.5672 9.32577 72.3249 9.61219 73.003 10.0403C73.6805 10.4649 74.2483 11.0434 74.6603 11.7287C75.0982 12.5254 75.3107 13.4264 75.275 14.3348C75.3348 15.6187 74.9819 16.8879 74.2682 17.9567C73.5775 18.9111 72.6585 19.6769 71.5953 20.1842L78.1218 28.4303ZM70.2632 14.9452C70.2747 14.5097 70.1783 14.0781 69.9825 13.6889C69.7745 13.3187 69.4459 13.031 69.0515 12.8736C68.7267 12.737 68.3824 12.6528 68.0313 12.6241C67.6571 12.5885 67.1938 12.5707 66.6369 12.5707H65.0019V17.8053H66.4008C66.9795 17.8136 67.5578 17.7719 68.1293 17.6805C68.5717 17.6144 68.9885 17.4314 69.3366 17.1504C69.6412 16.9172 69.8818 16.6107 70.036 16.2594C70.2004 15.8413 70.2777 15.3941 70.2632 14.9452Z" fill="white"/>
<path d="M58.6 12.7026H50.4296V16.3691H57.9362V20.0756H50.4296V28.4286H45.5781V8.99609H58.6V12.7026Z" fill="white"/>
<path d="M79.436 28.4169V8.98438H92.5826V12.6909H84.292V16.099H91.9278V19.8055H84.292V24.7059H92.5826V28.4125L79.436 28.4169Z" fill="white"/>
<path d="M94.3335 28.4169V8.98438H107.476V12.6909H99.1894V16.099H106.825V19.8055H99.1894V24.7059H107.476V28.4125L94.3335 28.4169Z" fill="white"/>
<path d="M131.171 28.4169H126.315V15.551L122.778 23.8639H119.45L115.913 15.551V28.4303H111.32V8.98438H116.96L121.268 18.5759L125.562 8.98438H131.171V28.4169Z" fill="white"/>
<path d="M152.154 18.8962C152.154 22.0385 151.315 24.5095 149.637 26.3093C147.959 28.1091 145.658 29.009 142.732 29.009C139.801 29.009 137.499 28.0987 135.827 26.2781C134.155 24.4575 133.32 21.9969 133.323 18.8962C133.323 15.7748 134.158 13.3052 135.827 11.4876C137.496 9.67 139.798 8.76266 142.732 8.76563C145.655 8.76563 147.956 9.66851 149.637 11.4743C151.318 13.28 152.157 15.754 152.154 18.8962ZM147.116 18.8962C147.135 17.8984 147.015 16.9028 146.759 15.9381C146.564 15.2182 146.237 14.5402 145.797 13.9379C145.429 13.4446 144.944 13.0511 144.385 12.7929C143.868 12.5674 143.31 12.4507 142.746 12.4499C142.186 12.4418 141.63 12.551 141.115 12.7707C140.561 13.0337 140.077 13.4245 139.703 13.9111C139.254 14.5131 138.925 15.195 138.732 15.9203C138.245 17.8759 138.245 19.921 138.732 21.8766C138.928 22.5894 139.254 23.2599 139.694 23.8546C140.063 24.3558 140.553 24.7545 141.119 25.0129C141.638 25.2385 142.198 25.3552 142.763 25.3559C143.34 25.3543 143.91 25.2282 144.434 24.9862C144.989 24.7242 145.469 24.3256 145.828 23.8279C146.262 23.231 146.59 22.5632 146.795 21.8543C147.037 20.8833 147.139 19.8827 147.098 18.8829L147.116 18.8962Z" fill="white"/>
<path d="M152.154 28.4169L158.721 8.98438H164.045L170.611 28.4169H165.568L164.352 24.452H158.244L157.032 28.4169H152.154ZM163.292 20.9281L161.309 14.5174L159.322 20.9281H163.292Z" fill="white"/>
<path d="M34.7126 21.1362L32.8772 19.3008L29.9458 22.2321L35.8798 23.1721C35.6845 22.3994 35.2807 21.6952 34.7126 21.1362Z" fill="white"/>
<path d="M24.1674 3.12891C23.9946 3.1724 23.8249 3.22747 23.6595 3.29374L23.5838 3.32047C23.4316 3.38712 23.2829 3.46146 23.1383 3.54321L23.0626 3.58777C22.9079 3.6729 22.7591 3.76815 22.6171 3.87289L22.5591 3.91744C22.4153 4.02928 22.2784 4.14979 22.1493 4.27829L20.2871 6.11374L23.214 9.04065L24.1674 3.12891Z" fill="white"/>
<path d="M35.0735 16.4403L35.118 16.3868C35.2213 16.2446 35.315 16.0958 35.3987 15.9413C35.4166 15.9156 35.433 15.8888 35.4477 15.8611C35.5289 15.7169 35.6018 15.5682 35.666 15.4156C35.6783 15.3897 35.6887 15.3629 35.6972 15.3354C35.7634 15.1715 35.8185 15.0034 35.862 14.832L22.3234 16.9838L22.1764 17.1308L21.9536 19.0063L22.1764 20.8819L22.3234 21.0289L29.4068 22.1515L34.7082 16.859C34.8395 16.7281 34.9615 16.5881 35.0735 16.4403Z" fill="white"/>
<path d="M17.9617 16.5873V16.6675L18.0909 16.7967L19.9709 17.0284L21.8419 16.7967L21.9756 16.6631V16.5873L23.0893 9.5797L17.8013 4.27829C17.6696 4.15082 17.5313 4.03037 17.387 3.91744L17.3291 3.87289C17.187 3.76815 17.0382 3.6729 16.8836 3.58777L16.8078 3.54321C16.6636 3.46066 16.5149 3.38629 16.3623 3.32047L16.2866 3.29374C16.1225 3.22813 15.9543 3.17308 15.7832 3.12891L17.9617 16.5873Z" fill="white"/>
<path d="M4.28983 15.336C4.29828 15.3634 4.30871 15.3902 4.32102 15.4162C4.38603 15.5684 4.45889 15.7171 4.53931 15.8617L4.58831 15.9419C4.67067 16.0971 4.76449 16.246 4.86898 16.3874L4.91798 16.4497C5.02828 16.5935 5.14731 16.7304 5.27438 16.8596L7.10982 18.695L10.0412 15.7681L7.98745 15.4385L4.125 14.8281C4.16844 15.0009 4.22351 15.1706 4.28983 15.336Z" fill="white"/>
<path d="M22.5149 16.15L22.4614 16.4975L22.8089 16.4396L35.9154 14.3546C35.9154 14.2923 35.9154 14.2255 35.9377 14.1586C35.96 14.0918 35.9377 13.9938 35.9377 13.9136C35.9377 13.8334 35.9377 13.7309 35.9377 13.6374C35.9377 13.5438 35.9377 13.477 35.9377 13.3968C35.9377 13.3166 35.9154 13.2142 35.902 13.1206C35.8887 13.0271 35.8798 12.9647 35.8664 12.889C35.8474 12.7957 35.8236 12.7035 35.7951 12.6128C35.7951 12.537 35.7595 12.4657 35.7372 12.3945C35.7062 12.3007 35.6705 12.2085 35.6303 12.1182C35.6036 12.0514 35.5813 11.9802 35.5546 11.9178C35.5278 11.8554 35.4566 11.7307 35.4075 11.6371L35.314 11.4634C35.2516 11.3654 35.1803 11.2674 35.1091 11.1738C35.0804 11.1275 35.0492 11.0829 35.0155 11.0402C34.9096 10.9023 34.7951 10.7713 34.6725 10.6481L28.3286 4.27752C28.2148 4.16351 28.0943 4.0564 27.9678 3.95676L27.8787 3.88993C27.7762 3.81419 27.6737 3.73846 27.5668 3.67164L27.4733 3.61818C27.3619 3.55136 27.246 3.48898 27.1302 3.43107L27.05 3.39543C26.9208 3.33306 26.7916 3.28405 26.658 3.23505H26.6045C26.2923 3.13251 25.9695 3.06527 25.6423 3.03458H25.5977C25.4494 3.02493 25.3006 3.02493 25.1522 3.03458H25.0275L24.68 3.06131H24.5998L22.5149 16.15Z" fill="white"/>
<path d="M15.8325 34.8649C16.0046 34.8208 16.1742 34.7673 16.3404 34.7045L16.4161 34.6733C16.5695 34.6092 16.7183 34.5348 16.8616 34.4505C16.8883 34.4382 16.9136 34.4233 16.9374 34.406C17.0929 34.3225 17.2419 34.2272 17.3829 34.1209L17.4408 34.0763C17.5862 33.9647 17.7245 33.8442 17.8551 33.7155L19.6905 31.88L16.7591 28.9531L15.8325 34.8649Z" fill="white"/>
<path d="M4.125 23.1716L17.6681 21.0199L17.8106 20.8729L18.0379 18.9929L17.8106 17.1173L17.6681 16.9748L10.5802 15.8477L10.46 15.959L5.27438 21.1357C5.14731 21.2649 5.02828 21.4018 4.91798 21.5455L4.86898 21.6079C4.76664 21.7507 4.67291 21.8995 4.58831 22.0534L4.53931 22.1381C4.45727 22.2818 4.38437 22.4306 4.32102 22.5836C4.30798 22.6076 4.29752 22.633 4.28983 22.6593C4.22502 22.8248 4.17144 22.9945 4.12945 23.1672L4.125 23.1716Z" fill="white"/>
<path d="M4.03541 14.3669L17.1686 16.4384L17.5295 16.4963L17.476 16.1489L15.3867 3.04235H15.3065L14.9679 3.01562H14.8342C14.6961 3.01562 14.5625 3.01562 14.4288 3.01562H14.362C14.0348 3.04631 13.712 3.11356 13.3997 3.2161H13.3507C13.2153 3.26108 13.0829 3.31464 12.9542 3.37648L12.883 3.41212C12.762 3.46738 12.6445 3.52985 12.531 3.59922L12.4419 3.65268C12.335 3.71951 12.2281 3.79525 12.1256 3.87098L12.041 3.93781C11.9121 4.03629 11.79 4.14345 11.6757 4.25856L5.27389 10.647C5.15257 10.7698 5.03805 10.8992 4.93086 11.0346C4.89522 11.0836 4.86403 11.137 4.82394 11.186C4.78384 11.235 4.69474 11.3642 4.63683 11.4622L4.53437 11.6493C4.48536 11.7384 4.43636 11.8231 4.39626 11.9122C4.35617 12.0013 4.33835 12.0548 4.31162 12.126C4.28489 12.1973 4.24034 12.2998 4.20916 12.3889C4.17797 12.478 4.16906 12.5403 4.14679 12.6161C4.12451 12.6918 4.09778 12.7943 4.07996 12.8878C4.06214 12.9814 4.05768 13.0437 4.04432 13.1239C4.02929 13.2139 4.01889 13.3046 4.01314 13.3957C4.00864 13.4773 4.00864 13.5591 4.01314 13.6407C4.01314 13.7298 4.01314 13.8189 4.01314 13.908C4.01314 13.9971 4.01314 14.0773 4.03541 14.162C4.05769 14.2466 4.0265 14.3045 4.03541 14.3669Z" fill="white"/>
<path d="M35.9513 23.6228L22.4795 21.4844L24.6223 34.9606C25.2949 35.0554 25.9803 34.9925 26.6244 34.7768C27.2684 34.5611 27.8535 34.1985 28.3333 33.7177L34.7173 27.3337C35.1962 26.8529 35.5569 26.2675 35.771 25.6235C35.9852 24.9795 36.0469 24.2946 35.9513 23.6228Z" fill="white"/>
<path d="M22.2385 22.7262L22.1494 22.1827L22.0158 21.3229L21.8688 21.1759L19.9977 20.9531L18.1132 21.1803L17.9885 21.3095V21.4254L17.8682 22.1649L17.7836 22.7128L16.8926 28.4018C16.9282 28.4419 16.9594 28.482 16.9995 28.5221L22.1806 33.6988C22.7397 34.2617 23.4423 34.6607 24.2121 34.8526L23.829 32.4469L22.2385 22.7262Z" fill="white"/>
<path d="M17.3383 22.5808L17.4541 21.8458L17.512 21.4805L17.1645 21.5384L4.05806 23.6233C4.05806 23.6901 4.05806 23.7525 4.05806 23.8193C4.05806 23.8861 4.05805 23.9842 4.03578 24.0688C4.0135 24.1534 4.03578 24.247 4.03578 24.3406C4.03141 24.4222 4.03141 24.504 4.03578 24.5856C4.03578 24.6747 4.03578 24.7638 4.06696 24.8529C4.09814 24.942 4.08924 25.0133 4.1026 25.0935C4.11597 25.1736 4.14715 25.2716 4.16943 25.3607C4.1917 25.4498 4.20952 25.5122 4.2318 25.5879C4.25407 25.6637 4.29862 25.7661 4.33426 25.8552C4.3699 25.9443 4.38772 25.9934 4.41891 26.0646C4.45009 26.1359 4.508 26.2384 4.55701 26.3275L4.65947 26.519C4.71739 26.6126 4.78421 26.7017 4.85104 26.7908L4.9535 26.9423C5.06069 27.0776 5.17521 27.207 5.29653 27.3298L11.6805 33.7138C12.0888 34.1243 12.575 34.4493 13.1104 34.6696C13.6459 34.8899 14.22 35.0011 14.799 34.9968C14.9837 34.9961 15.1681 34.9842 15.3514 34.9612H15.387L17.3383 22.5808Z" fill="white"/>
</g>
<defs>
<filter id="filter0_d_4284_147618" x="0" y="0" width="178.593" height="44" filterUnits="userSpaceOnUse" color-interpolation-filters="sRGB">
<feFlood flood-opacity="0" result="BackgroundImageFix"/>
<feColorMatrix in="SourceAlpha" type="matrix" values="0 0 0 0 0 0 0 0 0 0 0 0 0 0 0 0 0 0 127 0" result="hardAlpha"/>
<feOffset dx="2" dy="3"/>
<feGaussianBlur stdDeviation="3"/>
<feColorMatrix type="matrix" values="0 0 0 0 0.0627451 0 0 0 0 0.0941176 0 0 0 0 0.156863 0 0 0 0.08 0"/>
<feBlend mode="normal" in2="BackgroundImageFix" result="effect1_dropShadow_4284_147618"/>
<feBlend mode="normal" in="SourceGraphic" in2="effect1_dropShadow_4284_147618" result="shape"/>
</filter>
<clipPath id="clip0_4284_147618">
<rect width="166.593" height="32" fill="white" transform="translate(4 3)"/>
</clipPath>
</defs>
</svg>
