<svg width="167" height="32" viewBox="0 0 167 32" fill="none" xmlns="http://www.w3.org/2000/svg">
<g clip-path="url(#clip0_4261_115087)">
<path d="M74.1218 25.4294H68.1699L62.7527 18.3014H61.0019V25.4294H56.146V5.99236H63.9555C64.8996 5.98131 65.843 6.04986 66.7755 6.19729C67.5672 6.32479 68.3249 6.61121 69.003 7.03928C69.6805 7.46391 70.2483 8.04239 70.6603 8.72772C71.0982 9.52444 71.3107 10.4254 71.275 11.3339C71.3348 12.6177 70.9819 13.8869 70.2682 14.9557C69.5775 15.9101 68.6585 16.676 67.5953 17.1832L74.1218 25.4294ZM66.2632 11.9442C66.2747 11.5087 66.1783 11.0771 65.9825 10.6879C65.7745 10.3177 65.4459 10.03 65.0515 9.87263C64.7267 9.736 64.3824 9.65179 64.0313 9.62315C63.6571 9.58752 63.1938 9.5697 62.6369 9.5697H61.0019V14.8043H62.4008C62.9795 14.8126 63.5578 14.7709 64.1293 14.6795C64.5717 14.6135 64.9885 14.4304 65.3366 14.1494C65.6412 13.9162 65.8818 13.6097 66.036 13.2584C66.2004 12.8404 66.2777 12.3932 66.2632 11.9442Z" fill="#263A92"/>
<path d="M54.6 9.70261H46.4296V13.3691H53.9362V17.0756H46.4296V25.4286H41.5781V5.99609H54.6V9.70261Z" fill="#263A92"/>
<path d="M75.436 25.4159V5.9834H88.5826V9.68992H80.292V13.098H87.9278V16.8045H80.292V21.705H88.5826V25.4115L75.436 25.4159Z" fill="#263A92"/>
<path d="M90.3335 25.4159V5.9834H103.476V9.68992H95.1894V13.098H102.825V16.8045H95.1894V21.705H103.476V25.4115L90.3335 25.4159Z" fill="#263A92"/>
<path d="M127.171 25.4159H122.315V12.55L118.778 20.863H115.45L111.913 12.55V25.4293H107.32V5.9834H112.96L117.268 15.5749L121.562 5.9834H127.171V25.4159Z" fill="#263A92"/>
<path d="M148.154 15.8953C148.154 19.0375 147.315 21.5085 145.637 23.3083C143.959 25.1081 141.658 26.008 138.732 26.008C135.801 26.008 133.499 25.0977 131.827 23.2771C130.155 21.4565 129.32 18.9959 129.323 15.8953C129.323 12.7738 130.158 10.3043 131.827 8.48664C133.496 6.66902 135.798 5.76169 138.732 5.76466C141.655 5.76466 143.956 6.66754 145.637 8.47328C147.318 10.279 148.157 12.753 148.154 15.8953ZM143.116 15.8953C143.135 14.8974 143.015 13.9018 142.759 12.9371C142.564 12.2172 142.237 11.5393 141.797 10.9369C141.429 10.4437 140.944 10.0501 140.385 9.79195C139.868 9.56646 139.31 9.4497 138.746 9.44892C138.186 9.4408 137.63 9.55006 137.115 9.76968C136.561 10.0327 136.077 10.4236 135.703 10.9101C135.254 11.5121 134.925 12.194 134.732 12.9193C134.245 14.8749 134.245 16.9201 134.732 18.8756C134.928 19.5884 135.254 20.2589 135.694 20.8536C136.063 21.3548 136.553 21.7535 137.119 22.0119C137.638 22.2375 138.198 22.3543 138.763 22.3549C139.34 22.3533 139.91 22.2272 140.434 21.9852C140.989 21.7232 141.469 21.3247 141.828 20.8269C142.262 20.23 142.59 19.5622 142.795 18.8533C143.037 17.8823 143.139 16.8817 143.098 15.8819L143.116 15.8953Z" fill="#263A92"/>
<path d="M148.154 25.4159L154.721 5.9834H160.045L166.611 25.4159H161.568L160.352 21.451H154.244L153.032 25.4159H148.154ZM159.292 17.9272L157.309 11.5165L155.322 17.9272H159.292Z" fill="#263A92"/>
<path d="M30.7126 18.1362L28.8772 16.3008L25.9458 19.2321L31.8798 20.1721C31.6845 19.3994 31.2807 18.6952 30.7126 18.1362Z" fill="#263A92"/>
<path d="M20.1674 0.128906C19.9946 0.172403 19.8249 0.227469 19.6595 0.293738L19.5838 0.320466C19.4316 0.387116 19.2829 0.461462 19.1383 0.543214L19.0626 0.587767C18.9079 0.672897 18.7591 0.76815 18.6171 0.872891L18.5591 0.917443C18.4153 1.02928 18.2784 1.14979 18.1493 1.27829L16.2871 3.11374L19.214 6.04065L20.1674 0.128906Z" fill="#263A92"/>
<path d="M31.0735 13.4403L31.118 13.3868C31.2213 13.2446 31.315 13.0958 31.3987 12.9413C31.4166 12.9156 31.433 12.8888 31.4477 12.8611C31.5289 12.7169 31.6018 12.5682 31.666 12.4156C31.6783 12.3897 31.6887 12.3629 31.6972 12.3354C31.7634 12.1715 31.8185 12.0034 31.862 11.832L18.3234 13.9838L18.1764 14.1308L17.9536 16.0063L18.1764 17.8819L18.3234 18.0289L25.4068 19.1515L30.7082 13.859C30.8395 13.7281 30.9615 13.5881 31.0735 13.4403Z" fill="#263A92"/>
<path d="M13.9617 13.5873V13.6675L14.0909 13.7967L15.9709 14.0284L17.8419 13.7967L17.9756 13.6631V13.5873L19.0893 6.5797L13.8013 1.27829C13.6696 1.15082 13.5313 1.03037 13.387 0.917443L13.3291 0.872891C13.187 0.76815 13.0382 0.672897 12.8836 0.587767L12.8078 0.543215C12.6636 0.460658 12.5149 0.38629 12.3623 0.320466L12.2866 0.293738C12.1225 0.228134 11.9543 0.17308 11.7832 0.128906L13.9617 13.5873Z" fill="#263A92"/>
<path d="M0.289831 12.336C0.298284 12.3634 0.308709 12.3902 0.321019 12.4162C0.386031 12.5684 0.458889 12.7171 0.539308 12.8617L0.588313 12.9419C0.67067 13.0971 0.764486 13.246 0.868978 13.3874L0.917983 13.4497C1.02828 13.5935 1.14731 13.7304 1.27438 13.8596L3.10982 15.695L6.04119 12.7681L3.98745 12.4385L0.125 11.8281C0.168444 12.0009 0.223512 12.1706 0.289831 12.336Z" fill="#263A92"/>
<path d="M18.5149 13.151L18.4614 13.4985L18.8089 13.4405L31.9154 11.3556C31.9154 11.2933 31.9154 11.2264 31.9377 11.1596C31.96 11.0928 31.9377 10.9948 31.9377 10.9146C31.9377 10.8344 31.9377 10.7319 31.9377 10.6384C31.9377 10.5448 31.9377 10.478 31.9377 10.3978C31.9377 10.3176 31.9154 10.2151 31.902 10.1216C31.8887 10.028 31.8798 9.96567 31.8664 9.88994C31.8474 9.79671 31.8236 9.70452 31.7951 9.61373C31.7951 9.538 31.7595 9.46672 31.7372 9.39544C31.7062 9.30164 31.6705 9.20944 31.6303 9.11922C31.6036 9.0524 31.5813 8.98113 31.5546 8.91876C31.5278 8.85639 31.4566 8.73165 31.4075 8.63809L31.314 8.46434C31.2516 8.36633 31.1803 8.26833 31.1091 8.17477C31.0804 8.12848 31.0492 8.08386 31.0155 8.04113C30.9096 7.90327 30.7951 7.77232 30.6725 7.64909L24.3286 1.2785C24.2148 1.16448 24.0943 1.05737 23.9678 0.957741L23.8787 0.890905C23.7762 0.815171 23.6737 0.739441 23.5668 0.672617L23.4733 0.619159C23.3619 0.552335 23.246 0.489959 23.1302 0.432045L23.05 0.396411C22.9208 0.334041 22.7916 0.28503 22.658 0.236025H22.6045C22.2923 0.133483 21.9695 0.0662472 21.6423 0.03556H21.5977C21.4494 0.0259071 21.3006 0.0259071 21.1522 0.03556H21.0275L20.68 0.0622887H20.5998L18.5149 13.151Z" fill="#263A92"/>
<path d="M11.8325 31.8668C12.0046 31.8228 12.1742 31.7692 12.3404 31.7064L12.4161 31.6752C12.5695 31.6111 12.7183 31.5367 12.8616 31.4525C12.8883 31.4402 12.9136 31.4253 12.9374 31.4079C13.0929 31.3245 13.2419 31.2291 13.3829 31.1228L13.4408 31.0783C13.5862 30.9666 13.7245 30.8461 13.8551 30.7174L15.6905 28.882L12.7591 25.9551L11.8325 31.8668Z" fill="#263A92"/>
<path d="M0.125 20.1716L13.6681 18.0199L13.8106 17.8729L14.0379 15.9929L13.8106 14.1173L13.6681 13.9748L6.58024 12.8477L6.45996 12.959L1.27438 18.1357C1.14731 18.2649 1.02828 18.4018 0.917983 18.5455L0.868978 18.6079C0.766635 18.7507 0.672912 18.8995 0.588313 19.0534L0.539308 19.1381C0.457274 19.2818 0.38437 19.4306 0.321019 19.5836C0.307979 19.6076 0.297522 19.633 0.289831 19.6593C0.225024 19.8248 0.171443 19.9945 0.129453 20.1672L0.125 20.1716Z" fill="#263A92"/>
<path d="M0.0354134 11.3688L13.1686 13.4404L13.5295 13.4983L13.476 13.1508L11.3867 0.0443068H11.3065L10.9679 0.0175781H10.8342C10.6961 0.0175781 10.5625 0.0175781 10.4288 0.0175781H10.362C10.0348 0.0482653 9.71201 0.115514 9.39974 0.218057H9.35074C9.2153 0.263028 9.08286 0.31659 8.95424 0.378429L8.88297 0.414076C8.76201 0.469329 8.64448 0.531804 8.53102 0.601177L8.44193 0.654635C8.33501 0.721459 8.22809 0.797203 8.12562 0.872937L8.04098 0.939759C7.91206 1.03824 7.79 1.14541 7.67567 1.26052L1.27389 7.64893C1.15257 7.77178 1.03805 7.90116 0.930859 8.03651C0.895219 8.08552 0.864032 8.13897 0.823937 8.18798C0.783842 8.23698 0.694744 8.36617 0.636829 8.46418L0.534367 8.6513C0.485363 8.7404 0.436359 8.82504 0.396264 8.91414C0.35617 9.00324 0.338349 9.0567 0.311619 9.12798C0.284889 9.19926 0.240341 9.30172 0.209157 9.39082C0.177972 9.47992 0.169062 9.5423 0.146788 9.61803C0.124513 9.69377 0.0977788 9.79622 0.079959 9.88978C0.0621391 9.98333 0.0576833 10.0457 0.0443184 10.1259C0.0292924 10.2159 0.0188874 10.3066 0.0131372 10.3976C0.00864175 10.4793 0.00864175 10.5611 0.0131372 10.6427C0.0131372 10.7318 0.0131372 10.8209 0.0131372 10.91C0.0131372 10.9991 0.0131386 11.0793 0.0354134 11.1639C0.0576882 11.2485 0.0265035 11.3065 0.0354134 11.3688Z" fill="#263A92"/>
<path d="M31.9513 20.6218L18.4795 18.4834L20.6223 31.9597C21.2949 32.0545 21.9803 31.9915 22.6244 31.7758C23.2684 31.5601 23.8535 31.1975 24.3333 30.7167L30.7173 24.3328C31.1962 23.8519 31.5569 23.2665 31.771 22.6225C31.9852 21.9785 32.0469 21.2936 31.9513 20.6218Z" fill="#263A92"/>
<path d="M18.2385 19.7262L18.1494 19.1827L18.0158 18.3229L17.8688 18.1759L15.9977 17.9531L14.1132 18.1803L13.9885 18.3095V18.4254L13.8682 19.1649L13.7836 19.7128L12.8926 25.4018C12.9282 25.4419 12.9594 25.482 12.9995 25.5221L18.1806 30.6988C18.7397 31.2617 19.4423 31.6607 20.2121 31.8526L19.829 29.4469L18.2385 19.7262Z" fill="#263A92"/>
<path d="M13.3383 19.5799L13.4541 18.8448L13.512 18.4795L13.1645 18.5374L0.058055 20.6223C0.058055 20.6892 0.058055 20.7515 0.058055 20.8183C0.058055 20.8852 0.0580536 20.9832 0.0357788 21.0678C0.013504 21.1525 0.0357788 21.246 0.0357788 21.3396C0.0314145 21.4212 0.0314145 21.503 0.0357788 21.5846C0.0357788 21.6737 0.0357753 21.7628 0.06696 21.8519C0.0981448 21.941 0.0892357 22.0123 0.102601 22.0925C0.115965 22.1727 0.147154 22.2707 0.169429 22.3598C0.191704 22.4489 0.209523 22.5112 0.231798 22.587C0.254073 22.6627 0.298621 22.7652 0.334261 22.8543C0.3699 22.9434 0.387721 22.9924 0.418906 23.0637C0.450091 23.1349 0.508004 23.2374 0.557009 23.3265L0.659471 23.5181C0.717386 23.6116 0.784214 23.7007 0.851038 23.7898L0.9535 23.9413C1.06069 24.0766 1.17521 24.206 1.29653 24.3289L7.68049 30.7128C8.08882 31.1234 8.57495 31.4483 9.11043 31.6686C9.6459 31.8889 10.22 32.0002 10.799 31.9958C10.9837 31.9951 11.1681 31.9832 11.3514 31.9602H11.387L13.3383 19.5799Z" fill="#263A92"/>
</g>
<defs>
<clipPath id="clip0_4261_115087">
<rect width="166.593" height="32" fill="white"/>
</clipPath>
</defs>
</svg>
