<svg width="38" height="38" viewBox="0 0 38 38" fill="none" xmlns="http://www.w3.org/2000/svg">
<g clip-path="url(#clip0_532_157857)">
<path d="M27.7586 5.22266H9.27828C8.08771 5.22266 7.12256 6.1878 7.12256 7.37837V29.2774C7.12256 30.468 8.08771 31.4331 9.27828 31.4331H27.7586C28.9491 31.4331 29.9143 30.468 29.9143 29.2774V7.37837C29.9143 6.1878 28.9491 5.22266 27.7586 5.22266Z" fill="#E7E7E7"/>
<path d="M18.609 9.92969C13.9415 9.92969 10.1523 13.7236 10.1523 18.3864C10.1523 23.0492 13.9462 26.843 18.609 26.843C23.2718 26.843 27.0657 23.0492 27.0657 18.3864C27.0657 13.7236 23.2766 9.92969 18.609 9.92969ZM22.6546 19.9248H21.3725L20.9167 21.7956C20.855 22.0473 20.6318 22.2277 20.3706 22.2325H20.3564C20.1047 22.2325 19.8816 22.0615 19.8008 21.8241L18.609 17.8783L17.4172 21.8241C17.3412 22.071 17.1323 22.223 16.8474 22.2325C16.5863 22.223 16.3631 22.0473 16.3014 21.7956L15.8503 19.9248H14.573C14.2596 19.9248 13.9984 19.6637 13.9984 19.3503C13.9984 19.0369 14.2596 18.7757 14.573 18.7757H15.5749L15.3802 18.0065H14.573C14.2596 18.0065 13.9984 17.7453 13.9984 17.432C13.9984 17.1186 14.2596 16.8574 14.573 16.8574H15.1048L14.9054 16.036C14.8294 15.7226 15.0193 15.4139 15.328 15.3332C15.6366 15.2573 15.95 15.4472 16.026 15.7558L16.9234 19.469L18.0535 15.7226C18.1294 15.4852 18.3526 15.3142 18.609 15.3142C18.8654 15.3142 19.0839 15.4852 19.1646 15.7226L20.2947 19.469L21.1921 15.7558C21.2681 15.4472 21.5767 15.2573 21.8901 15.3332C22.1987 15.4092 22.3887 15.7178 22.3127 16.036L22.1132 16.8574H22.6451C22.9584 16.8574 23.2196 17.1186 23.2196 17.432C23.2196 17.7453 22.9584 18.0065 22.6451 18.0065H21.8379L21.6432 18.7757H22.6498C22.9632 18.7757 23.2243 19.0369 23.2243 19.3503C23.2243 19.6637 22.9632 19.9248 22.6451 19.9248H22.6546Z" fill="#1A63DA"/>
</g>
<defs>
<clipPath id="clip0_532_157857">
<rect width="22.7917" height="26.2105" fill="white" transform="translate(7.12256 5.22266)"/>
</clipPath>
</defs>
</svg>
