<svg width="15" height="14" viewBox="0 0 15 14" fill="none" xmlns="http://www.w3.org/2000/svg">
<g clip-path="url(#clip0_532_157848)">
<path d="M10.5507 7.02486C10.2817 6.89697 10.0072 6.7868 9.72787 6.69452C10.6325 6.01552 11.2187 4.93432 11.2187 3.71875C11.2187 1.66824 9.55052 0 7.49999 0C5.44945 0 3.78124 1.66824 3.78124 3.71875C3.78124 4.93566 4.3688 6.01792 5.27511 6.69678C4.44474 6.97017 3.66558 7.39556 2.98362 7.95648C1.73314 8.98507 0.863689 10.4198 0.535482 11.9963C0.432614 12.4903 0.555853 12.9977 0.873532 13.3883C1.18965 13.7771 1.65841 14 2.15956 14H8.89452C9.19656 14 9.44139 13.7552 9.44139 13.4531C9.44139 13.1511 9.19656 12.9062 8.89452 12.9062H2.15956C1.9261 12.9062 1.78525 12.7759 1.72209 12.6983C1.61302 12.5642 1.5708 12.3896 1.60626 12.2192C2.17378 9.4932 4.57828 7.50187 7.35501 7.43471C7.40311 7.43657 7.45143 7.4375 7.49999 7.4375C7.54902 7.4375 7.59782 7.43654 7.64639 7.43466C8.49732 7.45462 9.31572 7.64881 10.0812 8.0127C10.354 8.14231 10.6802 8.02635 10.8099 7.75354C10.9395 7.48076 10.8235 7.15452 10.5507 7.02486ZM7.63337 6.34039C7.58899 6.33959 7.54453 6.33918 7.49999 6.33918C7.45586 6.33918 7.41172 6.33962 7.36765 6.34044C5.98145 6.27129 4.87499 5.12181 4.87499 3.71875C4.87499 2.27131 6.05255 1.09375 7.49999 1.09375C8.94743 1.09375 10.125 2.27131 10.125 3.71875C10.125 5.12146 9.01907 6.27071 7.63337 6.34039Z" fill="#263A92"/>
<path d="M13.9531 10.8555H12.4492V9.35156C12.4492 9.04952 12.2044 8.80469 11.9023 8.80469C11.6003 8.80469 11.3555 9.04952 11.3555 9.35156V10.8555H9.85156C9.54952 10.8555 9.30469 11.1003 9.30469 11.4023C9.30469 11.7044 9.54952 11.9492 9.85156 11.9492H11.3555V13.4531C11.3555 13.7552 11.6003 14 11.9023 14C12.2044 14 12.4492 13.7552 12.4492 13.4531V11.9492H13.9531C14.2552 11.9492 14.5 11.7044 14.5 11.4023C14.5 11.1003 14.2552 10.8555 13.9531 10.8555Z" fill="#263A92"/>
</g>
<defs>
<clipPath id="clip0_532_157848">
<rect width="14" height="14" fill="white" transform="translate(0.5)"/>
</clipPath>
</defs>
</svg>
