<svg width="20" height="20" viewBox="0 0 20 20" fill="none" xmlns="http://www.w3.org/2000/svg">
<path d="M12.9165 10.9609H11.1082C9.62484 10.9609 8.4165 9.76094 8.4165 8.26927V6.46094C8.4165 6.11927 8.1415 5.83594 7.7915 5.83594H5.14984C3.22484 5.83594 1.6665 7.08594 1.6665 9.31927V14.8526C1.6665 17.0859 3.22484 18.3359 5.14984 18.3359H10.0582C11.9832 18.3359 13.5415 17.0859 13.5415 14.8526V11.5859C13.5415 11.2359 13.2582 10.9609 12.9165 10.9609Z" fill="#00A3FF"/>
<path d="M14.8497 1.66797H13.208H12.2997H9.94133C8.05798 1.66797 6.53298 2.86797 6.46631 5.00964C6.51631 5.00964 6.55798 5.0013 6.60798 5.0013H8.96633H9.87467H11.5163C13.4413 5.0013 14.9997 6.2513 14.9997 8.48464V10.1263V12.3846V14.0263C14.9997 14.0763 14.9913 14.118 14.9913 14.1596C16.8497 14.1013 18.333 12.868 18.333 10.693V9.0513V6.79297V5.1513C18.333 2.91797 16.7747 1.66797 14.8497 1.66797Z" fill="#263A92"/>
<path d="M9.98369 5.9591C9.72536 5.70077 9.28369 5.87577 9.28369 6.2341V8.4174C9.28369 9.33407 10.0587 10.0841 11.0087 10.0841C11.6004 10.0924 12.4254 10.0924 13.1337 10.0924C13.492 10.0924 13.6754 9.67574 13.4254 9.42574C12.517 8.5174 10.9004 6.89244 9.98369 5.9591Z" fill="#263A92"/>
</svg>
