<svg width="14" height="14" viewBox="0 0 14 14" fill="none" xmlns="http://www.w3.org/2000/svg">
<g clip-path="url(#clip0_532_157771)">
<path d="M13.7246 6.51083L11.4763 5.38674L13.7246 4.26255C14.1268 4.06153 14.1272 3.4856 13.7246 3.28426L7.27147 0.0576785C7.11744 -0.0192262 6.93629 -0.0192262 6.78227 0.0576785L0.329114 3.28426C-0.0730328 3.48538 -0.07346 4.06131 0.329114 4.26255L2.5774 5.38674L0.329114 6.51083C-0.0730328 6.71196 -0.07346 7.28778 0.329114 7.48912L2.5774 8.61332L0.329114 9.73741C-0.0730328 9.93853 -0.07346 10.5144 0.329114 10.7157L6.78227 13.9423C6.93597 14.0191 7.11712 14.0194 7.27147 13.9423L13.7246 10.7157C14.1268 10.5146 14.1272 9.93875 13.7246 9.73741L11.4763 8.61332L13.7246 7.48912C14.1268 7.2881 14.1272 6.71217 13.7246 6.51083ZM7.02687 1.15827L12.2571 3.77345L7.02687 6.38853L1.7966 3.77345L7.02687 1.15827ZM12.2571 10.2266L7.02687 12.8417L1.7966 10.2266L3.80029 9.22471L6.78227 10.7157C6.93608 10.7925 7.11712 10.7928 7.27147 10.7157L10.2534 9.22471L12.2571 10.2266ZM7.02687 9.61511L1.7966 7.00003L3.80029 5.99813L6.78227 7.48912C6.93608 7.56592 7.11712 7.56624 7.27147 7.48912L10.2534 5.99813L12.2571 7.00003L7.02687 9.61511Z" fill="#263A92"/>
</g>
<defs>
<clipPath id="clip0_532_157771">
<rect width="14" height="14" fill="white"/>
</clipPath>
</defs>
</svg>
