<svg width="15" height="14" viewBox="0 0 15 14" fill="none" xmlns="http://www.w3.org/2000/svg">
<g clip-path="url(#clip0_532_157844)">
<path d="M14.5 2.1875V11.8125C14.5 13.0187 13.5187 14 12.3125 14H6.81641C5.61018 14 4.62891 13.0187 4.62891 11.8125V10.7188C4.62891 10.4167 4.87372 10.1719 5.17578 10.1719C5.47784 10.1719 5.72266 10.4167 5.72266 10.7188V11.8125C5.72266 12.4156 6.21335 12.9062 6.81641 12.9062H12.3125C12.9156 12.9062 13.4062 12.4156 13.4062 11.8125V2.1875C13.4062 1.58444 12.9156 1.09375 12.3125 1.09375H6.81641C6.21335 1.09375 5.72266 1.58444 5.72266 2.1875V3.28125C5.72266 3.58331 5.47784 3.82812 5.17578 3.82812C4.87372 3.82812 4.62891 3.58331 4.62891 3.28125V2.1875C4.62891 0.981277 5.61018 0 6.81641 0H12.3125C13.5187 0 14.5 0.981277 14.5 2.1875ZM6.67734 8.41643C6.46297 8.6292 6.46158 8.97548 6.67424 9.18985C6.78116 9.29762 6.92183 9.35156 7.0625 9.35156C7.20178 9.35156 7.34106 9.29869 7.44766 9.19295L8.68208 7.96825C8.94249 7.70987 9.08594 7.36604 9.08594 7C9.08594 6.63396 8.94249 6.29013 8.68208 6.03175L7.44766 4.80705C7.23329 4.59439 6.88701 4.59567 6.67424 4.81015C6.46158 5.02452 6.46297 5.3708 6.67734 5.58347L7.55383 6.45312H1.04688C0.744812 6.45312 0.5 6.69794 0.5 7C0.5 7.30206 0.744812 7.54688 1.04688 7.54688H7.55383L6.67734 8.41643Z" fill="#263A92"/>
</g>
<defs>
<clipPath id="clip0_532_157844">
<rect width="14" height="14" fill="white" transform="translate(0.5)"/>
</clipPath>
</defs>
</svg>
