<svg width="20" height="20" viewBox="0 0 20 20" fill="none" xmlns="http://www.w3.org/2000/svg">
<path d="M13.3333 1.66797H6.66667C4.36667 1.66797 2.5 3.53464 2.5 5.83464V14.168C2.5 16.468 4.36667 18.3346 6.66667 18.3346H13.3333C15.6333 18.3346 17.5 16.468 17.5 14.168V5.83464C17.5 3.53464 15.6333 1.66797 13.3333 1.66797ZM7.38333 15.5263C7.225 15.6846 7.01667 15.768 6.8 15.768C6.575 15.768 6.36667 15.6846 6.20833 15.5263C6.05 15.368 5.95833 15.1596 5.95833 14.9346C5.95833 14.718 6.05 14.5013 6.20833 14.343C6.28333 14.268 6.375 14.2096 6.475 14.168C6.68333 14.0846 6.90833 14.0846 7.11667 14.168C7.16667 14.1846 7.21667 14.2096 7.25833 14.243C7.30833 14.268 7.35 14.3096 7.38333 14.343C7.54167 14.5013 7.63333 14.718 7.63333 14.9346C7.63333 15.1596 7.54167 15.368 7.38333 15.5263ZM5.95833 11.6013C5.95833 11.493 5.98333 11.3846 6.025 11.2846C6.06667 11.1763 6.125 11.093 6.20833 11.0096C6.4 10.818 6.69167 10.7263 6.95833 10.7846C7.00833 10.793 7.06667 10.8096 7.11667 10.8346C7.16667 10.8513 7.21667 10.8763 7.25833 10.9096C7.30833 10.9346 7.35 10.9763 7.38333 11.0096C7.45833 11.093 7.525 11.1763 7.56667 11.2846C7.60833 11.3846 7.625 11.493 7.625 11.6013C7.625 11.8263 7.54167 12.0346 7.38333 12.193C7.225 12.3513 7.01667 12.4346 6.8 12.4346C6.68333 12.4346 6.575 12.4096 6.475 12.368C6.375 12.3263 6.28333 12.268 6.20833 12.193C6.05 12.0346 5.95833 11.8263 5.95833 11.6013ZM10.7167 15.5263C10.6417 15.6013 10.55 15.6596 10.45 15.7013C10.35 15.743 10.2417 15.768 10.125 15.768C9.90833 15.768 9.7 15.6846 9.54167 15.5263C9.38333 15.368 9.29167 15.1596 9.29167 14.9346C9.29167 14.8763 9.3 14.8263 9.30833 14.768C9.325 14.718 9.34167 14.668 9.35833 14.618L9.43333 14.468C9.46667 14.4263 9.5 14.3846 9.54167 14.343C9.61667 14.268 9.70833 14.2096 9.80833 14.168C10.1167 14.043 10.4833 14.1096 10.7167 14.343C10.875 14.5013 10.9583 14.718 10.9583 14.9346C10.9583 15.1596 10.875 15.368 10.7167 15.5263ZM10.7167 12.193C10.5583 12.3513 10.35 12.4346 10.125 12.4346C9.90833 12.4346 9.7 12.3513 9.54167 12.193C9.38333 12.0346 9.29167 11.8263 9.29167 11.6013C9.29167 11.3846 9.38333 11.168 9.54167 11.0096C9.85 10.7013 10.4083 10.7013 10.7167 11.0096C10.7917 11.093 10.8583 11.1763 10.9 11.2846C10.9417 11.3846 10.9583 11.493 10.9583 11.6013C10.9583 11.8263 10.875 12.0346 10.7167 12.193ZM7.5 8.71797C6.64167 8.71797 5.93333 8.01797 5.93333 7.1513V6.31797C5.93333 5.45964 6.63333 4.7513 7.5 4.7513H12.5C13.3583 4.7513 14.0667 5.4513 14.0667 6.31797V7.1513C14.0667 8.00964 13.3667 8.71797 12.5 8.71797H7.5ZM14.05 15.5263C13.8917 15.6846 13.6833 15.768 13.4583 15.768C13.35 15.768 13.2417 15.743 13.1417 15.7013C13.0417 15.6596 12.95 15.6013 12.875 15.5263C12.7167 15.368 12.6333 15.1596 12.6333 14.9346C12.6333 14.718 12.7167 14.5013 12.875 14.343C13.1 14.1096 13.475 14.043 13.7833 14.168C13.8833 14.2096 13.975 14.268 14.05 14.343C14.2083 14.5013 14.2917 14.718 14.2917 14.9346C14.2917 15.1596 14.2083 15.368 14.05 15.5263ZM14.2333 11.918C14.1917 12.018 14.1333 12.1096 14.05 12.193C13.8917 12.3513 13.6833 12.4346 13.4583 12.4346C13.2417 12.4346 13.0333 12.3513 12.875 12.193C12.7167 12.0346 12.625 11.8263 12.625 11.6013C12.625 11.3846 12.7167 11.168 12.875 11.0096C13.1833 10.7013 13.7417 10.7013 14.05 11.0096C14.2083 11.168 14.3 11.3846 14.3 11.6013C14.3 11.7096 14.275 11.818 14.2333 11.918Z" fill="#00A3FF"/>
</svg>
