<svg width="38" height="38" viewBox="0 0 38 38" fill="none" xmlns="http://www.w3.org/2000/svg">
<g clip-path="url(#clip0_532_157861)">
<path d="M24.7007 5.22266H8.53754C7.75607 5.22266 7.12256 5.85617 7.12256 6.63764V25.6497C7.12256 26.4312 7.75607 27.0647 8.53754 27.0647H24.7007C25.4822 27.0647 26.1157 26.4312 26.1157 25.6497V6.63764C26.1157 5.85617 25.4822 5.22266 24.7007 5.22266Z" fill="#C4CAD0"/>
<path d="M21.3672 10.4453H11.8706V12.8195H21.3672V10.4453Z" fill="white"/>
<path d="M21.3672 15.1953H11.8706V17.5695H21.3672V15.1953Z" fill="white"/>
<path d="M26.5286 19.9814C26.2721 19.725 25.859 19.725 25.6026 19.9814L18.5752 27.0088L18.9313 30.1949C18.9835 30.6507 19.3397 31.0116 19.8003 31.0638L22.9863 31.42L30.0138 24.3925C30.2702 24.1361 30.2702 23.723 30.0138 23.4666L26.5333 19.9861L26.5286 19.9814Z" fill="#3182F6"/>
</g>
<defs>
<clipPath id="clip0_532_157861">
<rect width="23.0814" height="26.1867" fill="white" transform="translate(7.12256 5.22266)"/>
</clipPath>
</defs>
</svg>
