<svg width="48" height="48" viewBox="0 0 48 48" fill="none" xmlns="http://www.w3.org/2000/svg">
<g clip-path="url(#clip0_998_180493)">
<path d="M10.7578 13.457H18.0903V16.5357H10.7578V13.457Z" fill="#263A92"/>
<path d="M10.7578 20.457H18.0903V23.5357H10.7578V20.457Z" fill="#263A92"/>
<path d="M10.7578 27.457H18.0903V30.5357H10.7578V27.457Z" fill="#263A92"/>
<path d="M10.7578 34.4609H18.0903V37.5396H10.7578V34.4609Z" fill="#263A92"/>
<path d="M44.7385 41.6385V14.923C44.7385 14.0823 44.0367 13.3848 43.1982 13.3836L24.0453 13.406C23.1964 13.407 22.5087 14.0958 22.5087 14.9452V41.6384H6.33846V11.1773L22.5087 6.82729V10.3222H25.5856V4.8194C25.5856 3.8235 24.6102 3.07396 23.6477 3.33283L4.40051 8.51058C3.72862 8.6914 3.26154 9.30094 3.26154 9.99714V41.6385H0V44.7171H48V41.6385H44.7385ZM37.2427 34.5631V37.4365H29.9102V34.5631H37.2427ZM29.9102 30.4358V27.5624H37.2427V30.4358H29.9102ZM37.2427 23.4351H29.9102V20.5617H37.2427V23.4351Z" fill="#263A92"/>
</g>
<defs>
<clipPath id="clip0_998_180493">
<rect width="48" height="48" fill="white"/>
</clipPath>
</defs>
</svg>
