<svg width="48" height="48" viewBox="0 0 48 48" fill="none" xmlns="http://www.w3.org/2000/svg">
<path d="M6.46 2H22.72C24.08 2 25.18 3.12 25.18 4.5V7.24C25.18 8.24 24.56 9.48 23.94 10.1L18.66 14.86C17.92 15.48 17.44 16.72 17.44 17.72V23.08C17.44 23.82 16.94 24.82 16.34 25.2L14.6 26.34C13 27.34 10.78 26.22 10.78 24.22V17.6C10.78 16.72 10.28 15.6 9.8 14.98L5.12 9.98C4.5 9.36 4 8.24 4 7.5V4.62C4 3.12 5.1 2 6.46 2Z" fill="#55CCFF"/>
<path d="M34 4H29.2C28.64 4 28.2 4.44 28.2 5V7.24C28.2 9.22 27.14 11.16 26.1 12.22L20.66 17.08C20.6 17.22 20.5 17.42 20.44 17.58V23.08C20.44 24.9 19.36 26.88 17.88 27.78L16.24 28.84C15.32 29.42 14.3 29.7 13.28 29.7C12.36 29.7 11.44 29.46 10.6 29C9.56508 28.4268 8.78366 27.562 8.3062 26.5472C8.06226 26.0286 8 25.449 8 24.876V20.42C8 20.16 7.9 19.9 7.7 19.72L5.7 17.72C5.08 17.08 4 17.52 4 18.42V34C4 39.52 8.48 44 14 44H34C39.52 44 44 39.52 44 34V14C44 8.48 39.52 4 34 4ZM36 35.5H22C21.18 35.5 20.5 34.82 20.5 34C20.5 33.18 21.18 32.5 22 32.5H36C36.82 32.5 37.5 33.18 37.5 34C37.5 34.82 36.82 35.5 36 35.5ZM36 27.5H26C25.18 27.5 24.5 26.82 24.5 26C24.5 25.18 25.18 24.5 26 24.5H36C36.82 24.5 37.5 25.18 37.5 26C37.5 26.82 36.82 27.5 36 27.5Z" fill="#263A92"/>
</svg>
