<?xml version="1.0" encoding="utf-8"?>
<!-- Generator: Adobe Illustrator 16.0.0, SVG Export Plug-In . SVG Version: 6.00 Build 0)  -->
<!DOCTYPE svg PUBLIC "-//W3C//DTD SVG 1.1//EN" "http://www.w3.org/Graphics/SVG/1.1/DTD/svg11.dtd">
<svg version="1.1" id="Layer_1" xmlns="http://www.w3.org/2000/svg" xmlns:xlink="http://www.w3.org/1999/xlink" x="0px" y="0px"
	 width="13.777px" height="16.477px" viewBox="0 0 13.777 16.477" enable-background="new 0 0 13.777 16.477" xml:space="preserve">
<path fill="#FFFFFF" d="M1.763,13.231V6.865c0-2.829,2.313-5.145,5.144-5.145c2.829,0,5.143,2.315,5.143,5.145v6.366"/>
<path fill="#FFFFFF" d="M12.014,8.253l-5.143,2.841L1.776,8.262c0,0,0.098,4.089-1.274,4.089h5.78h1.176h5.877
	C11.964,12.351,12.014,8.253,12.014,8.253"/>
<path fill="#FFFFFF" d="M13.115,13.574H0.661C0.298,13.574,0,13.277,0,12.914c0-0.363,0.298-0.662,0.661-0.662h12.454
	c0.364,0,0.661,0.299,0.661,0.662C13.776,13.277,13.479,13.574,13.115,13.574"/>
<path fill="#FFFFFF" d="M8.486,1.617c0,0.893-0.724,1.615-1.616,1.615S5.253,2.51,5.253,1.617C5.253,0.723,5.978,0,6.871,0
	S8.486,0.723,8.486,1.617"/>
<path fill="#FFFFFF" d="M4.077,14.64c0.501,1.083,1.595,1.837,2.867,1.837c1.271,0,2.365-0.754,2.866-1.837"/>
</svg>
