<?xml version="1.0" encoding="utf-8"?>
<!-- Generator: Adobe Illustrator 16.0.0, SVG Export Plug-In . SVG Version: 6.00 Build 0)  -->
<!DOCTYPE svg PUBLIC "-//W3C//DTD SVG 1.1//EN" "http://www.w3.org/Graphics/SVG/1.1/DTD/svg11.dtd">
<svg version="1.1" id="Layer_1" xmlns="http://www.w3.org/2000/svg" xmlns:xlink="http://www.w3.org/1999/xlink" x="0px" y="0px"
	 width="512px" height="428.399px" viewBox="0 0 512 428.399" enable-background="new 0 0 512 428.399" xml:space="preserve">
<g>
	<defs>
		<rect id="SVGID_1_" width="512" height="428.399"/>
	</defs>
	<clipPath id="SVGID_2_">
		<use xlink:href="#SVGID_1_"  overflow="visible"/>
	</clipPath>
	<path clip-path="url(#SVGID_2_)" fill="#FFFFFF" d="M41.798,326.027V41.798h136.539h94.748h136.539v98.536
		c15.189,5.943,29.276,14.532,41.798,25.479V0H0v367.826h249.427c-10.955-12.523-19.544-26.613-25.483-41.798L41.798,326.027
		L41.798,326.027z"/>
	<path clip-path="url(#SVGID_2_)" fill="#FFFFFF" d="M503.642,379.696L458.59,334.64c11.238-18.702,17.03-39.807,17.004-60.895
		c0.034-30.173-11.579-60.558-34.63-83.596c-23.021-23.039-53.412-34.647-83.601-34.632c-30.182-0.015-60.571,11.592-83.604,34.632
		c-23.034,23.037-34.659,53.423-34.623,83.596c-0.029,30.198,11.589,60.591,34.623,83.613
		c23.033,23.047,53.423,34.656,83.604,34.631c21.063,0.025,42.178-5.763,60.873-17.005l45.066,45.056
		c11.132,11.145,29.207,11.145,40.338,0C514.786,408.906,514.786,390.831,503.642,379.696 M408.698,325.087
		c-14.246,14.213-32.681,21.228-51.334,21.259c-18.65-0.031-37.097-7.046-51.317-21.259c-14.226-14.246-21.244-32.68-21.271-51.342
		c0.026-18.646,7.046-37.088,21.258-51.318c14.233-14.22,32.68-21.225,51.33-21.266c18.653,0.041,37.088,7.046,51.334,21.266
		c14.209,14.23,21.221,32.672,21.258,51.318C429.919,292.409,422.907,310.841,408.698,325.087"/>
	<rect x="94" y="98" clip-path="url(#SVGID_2_)" fill="#FFFFFF" width="226" height="41.798"/>
	<rect x="94" y="193.3" clip-path="url(#SVGID_2_)" fill="#FFFFFF" width="93" height="41.798"/>
</g>
</svg>
