<?xml version="1.0" encoding="utf-8"?>
<!-- Generator: Adobe Illustrator 16.0.0, SVG Export Plug-In . SVG Version: 6.00 Build 0)  -->
<!DOCTYPE svg PUBLIC "-//W3C//DTD SVG 1.1//EN" "http://www.w3.org/Graphics/SVG/1.1/DTD/svg11.dtd">
<svg version="1.1" id="Layer_1" xmlns="http://www.w3.org/2000/svg" xmlns:xlink="http://www.w3.org/1999/xlink" x="0px" y="0px"
	 width="24px" height="18px" viewBox="0 0 24 18" enable-background="new 0 0 24 18" xml:space="preserve">
<g>
	<defs>
		<rect id="SVGID_1_" width="24" height="18"/>
	</defs>
	<clipPath id="SVGID_2_">
		<use xlink:href="#SVGID_1_"  overflow="visible"/>
	</clipPath>
	<path clip-path="url(#SVGID_2_)" fill-rule="evenodd" clip-rule="evenodd" fill="#F0483B" d="M5,8v1h8V2H3V1c0-0.552,0.448-1,1-1
		h10c0.552,0,1,0.448,1,1v2h4.667c1.117,0,1.6,0.576,1.936,1.107c0.595,0.94,1.536,2.432,2.109,3.378C23.9,7.797,24,8.155,24,8.52
		V13c0,1.089-0.743,2-2,2h-1c0,1.656-1.344,3-3,3s-3-1.344-3-3h-4c0,1.656-1.344,3-3,3s-3-1.344-3-3H4c-0.552,0-1-0.448-1-1V8H1V6h7
		v2H5z M8,13.8c0.662,0,1.2,0.538,1.2,1.2S8.662,16.2,8,16.2S6.8,15.662,6.8,15S7.338,13.8,8,13.8 M18,13.8
		c0.662,0,1.2,0.538,1.2,1.2s-0.538,1.2-1.2,1.2s-1.2-0.538-1.2-1.2S17.338,13.8,18,13.8 M15,11H5v2h0.765
		C6.314,12.386,7.112,12,8,12s1.686,0.386,2.235,1h5.53c0.55-0.614,1.348-1,2.235-1s1.686,0.386,2.235,1H22V8.425
		c0,0-1.156-1.98-1.711-2.929C20.11,5.189,19.781,5,19.426,5H15V11z M16,6v3h5c0,0-0.938-1.642-1.427-2.496
		C19.395,6.192,19.064,6,18.705,6H16z M0,3h8v2H0V3z"/>
</g>
</svg>
