<?xml version="1.0" encoding="utf-8"?>
<!-- Generator: Adobe Illustrator 16.0.0, SVG Export Plug-In . SVG Version: 6.00 Build 0)  -->
<!DOCTYPE svg PUBLIC "-//W3C//DTD SVG 1.1//EN" "http://www.w3.org/Graphics/SVG/1.1/DTD/svg11.dtd">
<svg version="1.1" id="All_glyphs" xmlns="http://www.w3.org/2000/svg" xmlns:xlink="http://www.w3.org/1999/xlink" x="0px" y="0px"
	 width="76px" height="96px" viewBox="0 0 76 96" enable-background="new 0 0 76 96" xml:space="preserve">
<path fill="#FFFFFF" d="M4.941,37.56l5.51,48.544C10.748,88.412,21.883,95.988,38,96c16.119-0.012,27.254-7.588,27.551-9.896
	l5.508-48.544C62.641,42.268,50.057,44.5,38,44.5S13.359,42.268,4.941,37.56z M53.834,7.558l-4.295-4.764
	C47.881,0.438,46.084,0,42.58,0h-9.158c-3.504,0-5.303,0.438-6.959,2.794l-4.295,4.764C9.316,9.804,0,15.759,0,20.146V21
	c0,7.732,17.014,14,38,14c20.988,0,38-6.268,38-14v-0.854C76,15.759,66.686,9.804,53.834,7.558z M48.348,18.694L42.088,12h-8.174
	l-6.26,6.694h-8.5c0,0,9.314-11.099,10.557-12.604C30.662,4.937,31.633,4.5,32.893,4.5h10.215c1.262,0,2.23,0.437,3.184,1.591
	c1.24,1.505,10.557,12.604,10.557,12.604H48.348z"/>
</svg>
