<?xml version="1.0" encoding="utf-8"?>
<!-- Generator: Adobe Illustrator 16.0.0, SVG Export Plug-In . SVG Version: 6.00 Build 0)  -->
<!DOCTYPE svg PUBLIC "-//W3C//DTD SVG 1.1//EN" "http://www.w3.org/Graphics/SVG/1.1/DTD/svg11.dtd">
<svg version="1.1" id="Layer_1" xmlns="http://www.w3.org/2000/svg" xmlns:xlink="http://www.w3.org/1999/xlink" x="0px" y="0px"
	 width="1792px" height="1792px" viewBox="0 0 1792 1792" enable-background="new 0 0 1792 1792" xml:space="preserve">
<path fill="#C94B4B" d="M1440,893c0-107.333-29-205.667-87-295l-754,753c91.333,59.333,190.333,89,297,89
	c74,0,144.5-14.5,211.5-43.5s124.833-67.833,173.5-116.5s87.333-106.833,116-174.5S1440,967,1440,893z M441,1192l755-754
	c-90-60.667-190-91-300-91c-98.667,0-189.667,24.333-273,73S473.667,535,425,619c-48.667,84-73,175.333-73,274
	C352,1001,381.667,1100.667,441,1192z M1664,893c0,104.667-20.333,204.667-61,300s-95.167,177.333-163.5,246s-150,123.333-245,164
	s-194.5,61-298.5,61s-203.5-20.333-298.5-61s-176.667-95.333-245-164S229.667,1288.333,189,1193s-61-195.333-61-300
	s20.333-204.5,61-299.5S284.167,416.667,352.5,348c68.333-68.667,150-123.333,245-164S792,123,896,123s203.5,20.333,298.5,61
	s176.667,95.333,245,164c68.333,68.667,122.833,150.5,163.5,245.5S1664,788.333,1664,893z"/>
</svg>
