<?xml version="1.0" encoding="utf-8"?>
<!-- Generator: Adobe Illustrator 16.0.0, SVG Export Plug-In . SVG Version: 6.00 Build 0)  -->
<!DOCTYPE svg PUBLIC "-//W3C//DTD SVG 1.1//EN" "http://www.w3.org/Graphics/SVG/1.1/DTD/svg11.dtd">
<svg version="1.1" id="Layer_1" xmlns="http://www.w3.org/2000/svg" xmlns:xlink="http://www.w3.org/1999/xlink" x="0px" y="0px"
	 width="308.244px" height="512px" viewBox="0 0 308.244 512" enable-background="new 0 0 308.244 512" xml:space="preserve">
<g>
	<defs>
		<rect id="SVGID_1_" width="308.244" height="512"/>
	</defs>
	<clipPath id="SVGID_2_">
		<use xlink:href="#SVGID_1_"  overflow="visible"/>
	</clipPath>
	<path clip-path="url(#SVGID_2_)" fill="#333333" d="M291.933,370.922c-9.21-22.546-21.949-43.573-37.489-61.186
		c17.264-21.754,27.537-49.299,27.609-79.309c-0.072-21.608-5.435-41.943-14.899-59.753V46.337c0-7.974-2.088-15.722-6.701-21.826
		c-4.547-6.183-11.255-10.287-18.625-12.368c-9.167-2.612-21.608-5.668-36.435-8.047C190.492,1.71,173.213,0,154.137,0
		c-38.145,0-69.284,6.853-87.763,12.143c-7.298,2.081-14.006,6.184-18.545,12.368c-4.62,6.105-6.708,13.853-6.708,21.826v124.191
		c-9.538,17.883-14.9,38.218-14.9,59.899c0,30.026,10.28,57.577,27.559,79.337c-15.533,17.607-28.266,38.626-37.468,61.157
		C5.923,396.4,0.015,423.814,0,450.537c-0.014,5.638,1.681,11.073,4.424,15.752c4.845,8.221,12.47,14.521,21.848,19.993
		c14.121,8.148,32.688,14.405,54.486,18.836c21.782,4.4,46.765,6.882,73.364,6.882c40.561-0.022,77.272-5.711,104.795-15.366
		c13.765-4.867,25.29-10.666,34.071-17.934c4.372-3.646,8.097-7.705,10.84-12.412c2.736-4.678,4.43-10.113,4.416-15.752
		C308.238,423.815,302.322,396.401,291.933,370.922 M63.456,92.747c0.073,0,0.153,0.08,0.226,0.08
		c2.757,0.895,6.184,1.863,10.134,2.757c7.821,1.782,17.578,3.347,27.56,4.612c19.97,2.539,41.426,3.951,52.746,3.951
		c14.9,0,47.087-2.386,70.775-6.7c7.901-1.346,14.827-2.983,19.673-4.62c0.071,0,0.146-0.08,0.218-0.08v23.245
		c-1.71,0.524-3.572,0.968-5.435,1.346c-8.942,2.008-19.149,3.644-29.655,4.991c-21.004,2.678-42.687,4.096-55.577,4.169
		c-16.835-0.073-49.094-2.459-74.718-6.999c-5.74-1.048-11.102-2.16-15.948-3.507L63.456,92.747L63.456,92.747z M154.122,474.502
		c-9.978,0-18.065-8.083-18.065-18.064c0-9.982,8.087-18.065,18.065-18.065c9.979,0,18.065,8.083,18.065,18.065
		C172.188,466.419,164.101,474.502,154.122,474.502 M154.122,414.902c-9.978,0-18.065-8.083-18.065-18.065
		c0-9.981,8.087-18.064,18.065-18.064c9.979,0,18.065,8.081,18.065,18.064C172.188,406.819,164.101,414.902,154.122,414.902
		 M154.137,335.993c-29.203,0-55.503-11.771-74.645-30.921c-19.077-19.142-30.921-45.442-30.921-74.645
		c0-15.497,3.354-30.171,9.312-43.434c6.184,2.088,13.481,3.652,21.528,5.143c25.631,4.54,57.818,6.926,74.726,6.926
		c12.893,0,34.565-1.418,55.577-4.096c10.506-1.346,20.713-2.983,29.654-4.991c3.943-0.822,7.596-1.79,10.949-2.983
		c6.031,13.263,9.312,27.938,9.386,43.434c-0.073,29.203-11.844,55.504-30.913,74.645
		C209.641,324.222,183.34,335.993,154.137,335.993"/>
</g>
</svg>
