<?xml version="1.0" encoding="utf-8"?>
<!-- Generator: Adobe Illustrator 16.0.0, SVG Export Plug-In . SVG Version: 6.00 Build 0)  -->
<!DOCTYPE svg PUBLIC "-//W3C//DTD SVG 1.1//EN" "http://www.w3.org/Graphics/SVG/1.1/DTD/svg11.dtd">
<svg version="1.1" id="All_glyphs" xmlns="http://www.w3.org/2000/svg" xmlns:xlink="http://www.w3.org/1999/xlink" x="0px" y="0px"
	 width="118.07px" height="90px" viewBox="0 0 118.07 90" enable-background="new 0 0 118.07 90" xml:space="preserve">
<path fill="#4B4B4B" d="M93.746,19.939c0-5-4.977-5-4.977-5H29.044c0,0-4.977,0-4.977,5v5h69.679V19.939z M78.815,4.939H38.997
	c0,0-4.977,0-4.977,5h49.771C83.791,4.939,78.815,4.939,78.815,4.939z M103.699,24.939c-2.945-2.959-2.945-2.959-2.945-2.959v7.959
	H17.057V21.98c0,0,0,0-2.945,2.959s-5.055,3.754-3.869,10.004c1.18,6.226,6.891,40.375,7.74,44.997c0.932,5.065,6.084,5,6.084,5
	h69.679c0,0,5.15,0.065,6.082-5c0.851-4.621,6.562-38.771,7.742-44.997C108.756,28.693,106.645,27.898,103.699,24.939z
	 M78.813,51.939c0,0,0,5-4.978,5h-29.86c-4.978,0-4.978-5-4.978-5v-10h6.969v8h25.865v-8h6.98L78.813,51.939L78.813,51.939z"/>
</svg>
