<?xml version="1.0" encoding="utf-8"?>
<!-- Generator: Adobe Illustrator 16.0.0, SVG Export Plug-In . SVG Version: 6.00 Build 0)  -->
<!DOCTYPE svg PUBLIC "-//W3C//DTD SVG 1.1//EN" "http://www.w3.org/Graphics/SVG/1.1/DTD/svg11.dtd">
<svg version="1.1" id="All_glyphs" xmlns="http://www.w3.org/2000/svg" xmlns:xlink="http://www.w3.org/1999/xlink" x="0px" y="0px"
	 width="118.07px" height="90px" viewBox="0 0 118.07 90" enable-background="new 0 0 118.07 90" xml:space="preserve">
<path fill="#4B4B4B" d="M98.906,4.939h-80c-5.5,0-10,4.5-10,10v60c0,5.5,4.5,10,10,10h80c5.5,0,10-4.5,10-10v-60
	C108.906,9.439,104.406,4.939,98.906,4.939z M98.906,74.939h-80v-60h80V74.939z M53.906,55.439h-25v9h25V55.439z M53.906,40.439h-25
	v9h25V40.439z M53.906,25.439h-25v9h25V25.439z M88.406,57.439c0,0-8.5-2.225-8.5-6.59c0-4.16,5.5-5.911,5.5-14.411
	c0-6.903-2.098-11-9-11c-6.904,0-9,4.097-9,11c0,8.5,5.498,10.25,5.498,14.411c0,4.365-8.498,6.59-8.498,6.59c-0.5,0-0.5,7-0.5,7h25
	C88.906,64.439,88.906,57.439,88.406,57.439z"/>
</svg>
