<?xml version="1.0" encoding="utf-8"?>
<!-- Generator: Adobe Illustrator 16.0.0, SVG Export Plug-In . SVG Version: 6.00 Build 0)  -->
<!DOCTYPE svg PUBLIC "-//W3C//DTD SVG 1.1//EN" "http://www.w3.org/Graphics/SVG/1.1/DTD/svg11.dtd">
<svg version="1.1" id="All_glyphs" xmlns="http://www.w3.org/2000/svg" xmlns:xlink="http://www.w3.org/1999/xlink" x="0px" y="0px"
	 width="118.07px" height="90px" viewBox="0 0 118.07 90" enable-background="new 0 0 118.07 90" xml:space="preserve">
<path fill="#4B4B4B" d="M36.472,30.29c0.952,0,1.873,0.145,2.739,0.412c3.272-3.667,6.901-7.005,10.832-9.967
	c-0.163-0.694-0.262-1.413-0.262-2.158c0-1.029,0.174-2.018,0.484-2.942c-4.401-3.16-9.19-5.809-14.284-7.859
	c-4.776,2.952-8.94,6.799-12.259,11.308c2.464,4.363,5.394,8.433,8.723,12.135C33.666,30.629,35.028,30.29,36.472,30.29z
	 M27.18,39.581c0-1.304,0.271-2.545,0.757-3.672c-2.981-3.273-5.684-6.806-8.048-10.571c-2.969,5.896-4.65,12.55-4.65,19.601
	c0,8.165,2.247,15.802,6.148,22.338c1.393-7.855,4.037-15.279,7.69-22.086C27.892,43.631,27.18,41.691,27.18,39.581z M59.073,9.285
	c2.455,0,4.68,0.958,6.339,2.512c4.85-2.085,9.953-3.685,15.263-4.708c-6.408-3.693-13.839-5.818-21.769-5.818
	c-5.406,0-10.579,0.99-15.359,2.787c3.793,1.873,7.407,4.061,10.808,6.524C55.74,9.764,57.349,9.285,59.073,9.285z M72.968,53.044
	c0.578-1.204,1.398-2.269,2.414-3.114c-2.741-8.439-7.087-16.159-12.683-22.798c-1.114,0.473-2.34,0.735-3.626,0.735
	c-2.016,0-3.875-0.649-5.397-1.739c-3.366,2.561-6.481,5.43-9.315,8.561c0.884,1.421,1.403,3.096,1.403,4.893
	c0,0.972-0.15,1.905-0.427,2.784C53.487,47.811,62.865,51.542,72.968,53.044z M85.018,65.584c0.127,1.759,0.195,3.534,0.195,5.325
	c0,3.153-0.201,6.258-0.582,9.308c7.403-5.408,13.043-13.087,15.887-22.017c-3.367,0.813-6.823,1.396-10.351,1.735
	C89.339,62.479,87.448,64.534,85.018,65.584z M70.789,59.288c-10.776-1.785-20.772-5.897-29.471-11.791
	c-1.413,0.864-3.068,1.376-4.846,1.376c-0.655,0-1.291-0.07-1.906-0.198c-4.164,7.896-6.825,16.701-7.59,26.037
	c4.158,4.458,9.23,8.05,14.929,10.46C48.98,74.292,58.871,65.292,70.789,59.288z M88.219,12.574
	c-6.997,0.675-13.682,2.431-19.903,5.071c0.033,0.306,0.049,0.617,0.049,0.931c0,1.466-0.349,2.849-0.953,4.083
	c6.215,7.298,11.044,15.804,14.093,25.112c3.776,0.067,7.007,2.384,8.396,5.67c4.204-0.428,8.297-1.23,12.241-2.391
	c0.278-1.998,0.434-4.037,0.434-6.112C102.573,32.104,97.035,20.563,88.219,12.574z M75.465,64.252
	C64.339,69.463,55.037,77.489,48.3,87.302c3.396,0.849,6.947,1.306,10.607,1.306c6.588,0,12.828-1.469,18.428-4.08
	c0.899-4.4,1.376-8.953,1.376-13.617c0-1.686-0.076-3.354-0.202-5.006C77.386,65.544,76.357,64.98,75.465,64.252z"/>
</svg>
