<?xml version="1.0" encoding="utf-8"?>
<!-- Generator: Adobe Illustrator 16.0.0, SVG Export Plug-In . SVG Version: 6.00 Build 0)  -->
<!DOCTYPE svg PUBLIC "-//W3C//DTD SVG 1.1//EN" "http://www.w3.org/Graphics/SVG/1.1/DTD/svg11.dtd">
<svg version="1.1" id="All_glyphs" xmlns="http://www.w3.org/2000/svg" xmlns:xlink="http://www.w3.org/1999/xlink" x="0px" y="0px"
	 width="118.07px" height="90px" viewBox="0 0 118.07 90" enable-background="new 0 0 118.07 90" xml:space="preserve">
<path fill="#4B4B4B" d="M48.167,56.025l-19.535-7.814v6.609l19.535,7.814V56.025z M48.167,35.742l-19.535-7.813v6.611l19.535,7.813
	V35.742z M100.705,1.834c-1.341-0.908-3.046-1.092-4.551-0.49l-37.248,14.9l-37.249-14.9c-1.504-0.602-3.208-0.418-4.551,0.49
	c-1.341,0.908-2.145,2.422-2.145,4.043v62.499c0,1.997,1.215,3.791,3.067,4.533L57.009,88.5c0,0,0.8,0.258,0.95,0.288
	c0.313,0.062,0.629,0.096,0.948,0.096c0.317,0,0.634-0.034,0.948-0.096c0.148-0.03,0.952-0.289,0.952-0.289L99.782,72.91
	c1.854-0.742,3.068-2.536,3.068-4.533V5.878C102.851,4.256,102.046,2.742,100.705,1.834z M54.024,78.895l-31.249-12.5V11.669
	L54.024,24.17V78.895z M95.038,66.395l-31.249,12.5V24.17l31.249-12.501V66.395z M89.181,48.211l-19.534,7.814v6.609l19.534-7.814
	V48.211z M89.181,27.929l-19.534,7.813v6.61l19.534-7.813V27.929z"/>
</svg>
