<?xml version="1.0" encoding="utf-8"?>
<!-- Generator: Adobe Illustrator 16.0.0, SVG Export Plug-In . SVG Version: 6.00 Build 0)  -->
<!DOCTYPE svg PUBLIC "-//W3C//DTD SVG 1.1//EN" "http://www.w3.org/Graphics/SVG/1.1/DTD/svg11.dtd">
<svg version="1.1" id="All_glyphs" xmlns="http://www.w3.org/2000/svg" xmlns:xlink="http://www.w3.org/1999/xlink" x="0px" y="0px"
	 width="118.07px" height="90px" viewBox="0 0 118.07 90" enable-background="new 0 0 118.07 90" xml:space="preserve">
<g>
	<path fill="#4B4B4B" d="M114.191,5.439h-64.71c-1.598,0-2.89,1.369-2.89,3.057V54.1c0,1.688,1.292,3.053,2.89,3.053h64.709
		c1.596,0,2.889-1.364,2.889-3.053V8.496C117.079,6.808,115.786,5.439,114.191,5.439"/>
	<path fill="#4B4B4B" d="M24.09,67.293c-4.478,0-8.11,3.835-8.11,8.572c0,4.734,3.633,8.574,8.11,8.574
		c4.477,0,8.104-3.84,8.104-8.574C32.194,71.128,28.566,67.293,24.09,67.293"/>
	<path fill="#4B4B4B" d="M114.673,60.744H45.603c-1.329,0-2.409-1.143-2.409-2.547V20.176c0-1.408-1.076-2.547-2.408-2.547H18.847
		c-0.716,0-1.392,0.337-1.848,0.915L1.292,38.48c-0.36,0.455-0.558,1.034-0.558,1.628v17.487v9.146c0,1.404,1.078,2.544,2.406,2.544
		h12.104c1.961-2.938,5.192-4.866,8.845-4.866c3.651,0,6.881,1.93,8.844,4.866h49.401c1.961-2.938,5.189-4.866,8.843-4.866
		c3.654,0,6.881,1.93,8.844,4.866h14.651c1.328,0,2.406-1.14,2.406-2.544v-3.448C117.079,61.884,116.001,60.744,114.673,60.744
		 M9.529,42.132V40.37c0-0.603,0.194-1.186,0.554-1.658L20.11,25.654c0.474-0.614,1.18-0.969,1.927-0.969h9.825
		c1.373,0,2.484,1.174,2.484,2.623v14.824c0,1.449-1.112,2.623-2.484,2.623H12.01C10.64,44.756,9.529,43.582,9.529,42.132"/>
	<path fill="#4B4B4B" d="M91.178,67.293c-4.478,0-8.106,3.835-8.106,8.572c0,4.734,3.63,8.574,8.106,8.574
		c4.476,0,8.105-3.84,8.105-8.574C99.284,71.128,95.654,67.293,91.178,67.293"/>
</g>
</svg>
