<?xml version="1.0" encoding="utf-8"?>
<!-- Generator: Adobe Illustrator 16.0.0, SVG Export Plug-In . SVG Version: 6.00 Build 0)  -->
<!DOCTYPE svg PUBLIC "-//W3C//DTD SVG 1.1//EN" "http://www.w3.org/Graphics/SVG/1.1/DTD/svg11.dtd">
<svg version="1.1" id="All_glyphs" xmlns="http://www.w3.org/2000/svg" xmlns:xlink="http://www.w3.org/1999/xlink" x="0px" y="0px"
	 width="118.07px" height="90px" viewBox="0 0 118.07 90" enable-background="new 0 0 118.07 90" xml:space="preserve">
<path fill="#4B4B4B" d="M70.705,67.02c-12.367-4.459-16.318-8.223-16.318-16.276c0-4.836,3.774-3.257,5.433-12.112
	c0.688-3.674,4.022-0.06,4.661-8.446c0-3.341-1.82-4.173-1.82-4.173s0.925-4.945,1.287-8.752c0.45-4.742-2.769-16.996-19.933-16.996
	S23.631,12.518,24.081,17.26c0.362,3.807,1.288,8.752,1.288,8.752s-1.821,0.832-1.821,4.173c0.639,8.386,3.974,4.772,4.659,8.446
	c1.66,8.855,5.436,7.276,5.436,12.112c0,8.055-3.952,11.817-16.319,16.276c-1.489,0.537-5.04,1.369-8.057,2.674v19.923H88.69
	c0,0,0-7.343,0-10.451C88.69,76.055,83.112,71.491,70.705,67.02z M93.654,39.975V25.083h-9.928v14.892H68.834v9.927h14.893v14.893
	h9.928V49.902h14.893v-9.927H93.654z"/>
</svg>
