<?xml version="1.0" encoding="utf-8"?>
<!-- Generator: Adobe Illustrator 16.0.0, SVG Export Plug-In . SVG Version: 6.00 Build 0)  -->
<!DOCTYPE svg PUBLIC "-//W3C//DTD SVG 1.1//EN" "http://www.w3.org/Graphics/SVG/1.1/DTD/svg11.dtd">
<svg version="1.1" id="All_glyphs" xmlns="http://www.w3.org/2000/svg" xmlns:xlink="http://www.w3.org/1999/xlink" x="0px" y="0px"
	 width="118.07px" height="90px" viewBox="0 0 118.07 90" enable-background="new 0 0 118.07 90" xml:space="preserve">
<g>
	<path fill="#4B4B4B" d="M71.081,28.123c-1.173,0-1.928,0.083-2.305,0.167v16.893c0.377,0.084,1.09,0.084,1.593,0.084
		c4.904,0.084,8.551-2.641,8.551-9.012C78.92,30.722,75.609,28.123,71.081,28.123z"/>
	<path fill="#4B4B4B" d="M43.881,28.039h-0.084c-0.419,1.677-0.838,3.981-1.258,5.575l-1.215,5.071h5.239l-1.3-5.071
		C44.845,32.021,44.3,29.716,43.881,28.039z"/>
	<path fill="#4B4B4B" d="M88.906,9.939h-60c-5.5,0-10,4.5-10,10v35c0,5.5,4.5,10,10,10h20l20,15v-15h20c5.5,0,10-4.5,10-10v-35
		C98.906,14.439,94.406,9.939,88.906,9.939z M49.414,50.8l-1.803-6.539h-7.293L38.726,50.8h-7.839l8.216-28.252h10.06L57.587,50.8
		H49.414z M82.022,47.655c-3.103,2.432-7.754,3.479-13.287,3.479c-3.646,0-6.078-0.251-7.545-0.503V22.968
		c2.431-0.42,5.658-0.629,9.012-0.629c5.407,0,8.845,0.88,11.61,2.809c3.103,2.137,5.113,5.658,5.113,10.855
		C86.926,41.788,84.746,45.52,82.022,47.655z"/>
</g>
</svg>
