<?xml version="1.0" encoding="utf-8"?>
<!-- Generator: Adobe Illustrator 16.0.0, SVG Export Plug-In . SVG Version: 6.00 Build 0)  -->
<!DOCTYPE svg PUBLIC "-//W3C//DTD SVG 1.1//EN" "http://www.w3.org/Graphics/SVG/1.1/DTD/svg11.dtd">
<svg version="1.1" id="All_glyphs" xmlns="http://www.w3.org/2000/svg" xmlns:xlink="http://www.w3.org/1999/xlink" x="0px" y="0px"
	 width="118.07px" height="90px" viewBox="0 0 118.07 90" enable-background="new 0 0 118.07 90" xml:space="preserve">
<g>
	<path fill="#4B4B4B" d="M75.354,74.202c0-7.479-4.39-13.646-12.779-15.024c-1.153,0.387-2.387,0.602-3.67,0.602
		c-1.281,0-2.513-0.215-3.668-0.602c-8.388,1.379-12.778,7.545-12.778,15.024h16.446H75.354z"/>
	<path fill="#4B4B4B" d="M58.905,57.111c4.974,0,9.002-4.03,9.002-9.004v-2.553c0-4.973-4.028-9.003-9.002-9.003
		c-4.972,0-9.002,4.03-9.002,9.003v2.553C49.902,53.081,53.933,57.111,58.905,57.111z"/>
	<path fill="#4B4B4B" d="M70.191,9.392c0-4.445-3.616-8.062-8.061-8.062h-6.448c-4.445,0-8.062,3.617-8.062,8.062v14.509H70.19
		L70.191,9.392L70.191,9.392z M63.742,12.616c0,0.891-0.721,1.612-1.611,1.612h-6.448c-0.892,0-1.612-0.721-1.612-1.612V9.392
		c0-0.892,0.722-1.613,1.612-1.613h6.448c0.892,0,1.611,0.721,1.611,1.613V12.616z"/>
	<path fill="#4B4B4B" d="M96.519,20.837H73.416V23.9c0,1.772-1.452,3.225-3.226,3.225H47.621c-1.772,0-3.225-1.452-3.225-3.225
		v-3.063H21.294c-5.045,0-9.141,4.095-9.141,9.14v49.431c0,5.046,4.095,9.141,9.141,9.141h75.226c5.045,0,9.141-4.095,9.141-9.141
		v-49.43C105.658,24.932,101.564,20.837,96.519,20.837z M95.987,81.133L95.987,81.133h-74.16V30.512h74.16V81.133z"/>
</g>
</svg>
